<svg version="1.2" baseProfile="tiny" xmlns="http://www.w3.org/2000/svg" viewBox="0 0 55.3 55.3"><path fill="#007550" d="M0 36.9h55.3v18.4H0z"/><path fill="#CE1141" d="M0 0h55.3v37H0z"/><path fill="none" d="M15.6 39.5h1.6l.5-2.2c0-.1 0-.2.1-.3h-1.4l-.8 2.5zm-.7 2.2l.6.6h.9l.7-2.7h-1.6l-.6 2.1zm1.4 1.2c0-.1 0-.1 0 0l.1-.4h-.7c.2.1.4.2.6.4zM13.4 36l-.3.9h1.4c0-.7-.4-.8-1.1-.9zm.2 4.4l.2-.8h-.9c.2.3.4.5.7.8zM12.4 39c.1.2.2.3.3.5h1.1l.6-1.9c.1-.2.1-.4.1-.6H13l-.6 2zm16.5-2.1h3.9c.4-1.4 1.2-2.1 2-2.4h.1H31c.5.1 1.2.4 1.5 1.1l-1 1.3c.1-1.2-1.8-1.9-2.6 0zm2.7 5.2l.1.2h1c-.2-.7-.4-1.6-.3-2.7h-4.1c0 1.1.1 2.1.4 2.7h2.8c.1-.1.1-.1.1-.2zm-15-6.2l-.3.9h1.4c0-.6-.5-.8-1.1-.9zm17.8 1h2.2c-.3-1-1.9-1.7-2.2 0zm.1 5.1c.1.1.1.2.2.3h2.7l-.4-2.7h-2.8c-.1 1 0 1.8.3 2.4z"/><path fill="none" d="M19.5 36.7v.2h1.3c.3-.5.6-1 .8-1.3 1.1-1.3 2.8-1.5 3.1-.5l.1-.6h1.7s-.1 1.1-.2 2.4h1c.6-1.7 1.5-2.3 2.3-2.5H9.8c.4.9.8 1.7 1.2 2.5h.5l.9-2.4h5.4c1.2-.1 1.9 1.2 1.7 2.2zm-8.3.6l.1-.3H11c0 .1.1.2.2.3zm23.1-.3c-.2.8-.2 1.7-.2 2.5h2.8l-.3-2.5h-2.3zM23.4 14l.1.3-.3.1.1 1-.1.5h9l-.1-.5.1-1-.3-.1v-.2h10.2c.2.1-.8-.8-.6-.6H31.4v-.2c-.1-.2-.3-.2-.3 0v.2h-6.5v-.2c-.1-.1-.2-.1-.3 0v.2H14.2c.1-.2-.8.7-.6.7-.2-.2 8.1-.2 9.8-.2zM12.1 26.4h14.3c.6-1 2-1 2.5 0h14.4l-.3-.9h4.1s-.1-.4-.1-.8c-.1-.4-.1-.7-.1-.7H8.5s-.1.4-.1.8-.1.7-.1.8h4l-.2.8zm.8-3h-.6l.1.4H43l.2-.4h-.7l-.2-.8h4.3l-.4-1.4h-4.4l-32.6.1-.4 1.3h4.4z"/><path fill="none" d="M20.7 16.9l-.1.9h-.4l.2.7h14.7l.2-.7h-.4l-.1-.9h9.5l-.6-.9h-9.8s-.1-.6-.1-.9c0-.3-.3-.3-.3 0v1h-1.3L22 16l.1-.8c0-.3-.3-.3-.3 0s-.1 1-.2.9h-9.8l-.6.9c0-.1 9.5-.1 9.5-.1zM10.6 31.6h5.6l.5-2.5H8.3l.2 1.2.2 1h2zm19.1-19.2v.7l-1.4-.8v-.2h-.5v-.4h.7v-.3h-.7v-.5h10.5c-.2-.2-.6-.4-.6-.4H17.6s-.4.1-.6.4h10.5v.5h-.7v.3h.7v.4H27v.2l-1.4.8v-.7c-.1-.2-.2-.2-.3 0 0 0 0 .5-.1.8h4.7v.1l.1-.9c-.1-.1-.3-.2-.3 0zM16.8 31.2h1.6l.3-2.1h-1.4zm2.1-3.4c.1-1-.9-1-1.4-.1l-.1.6h1.4l.1-.5zm7.2 1.3h-7.2l-.4 2.5h7.6v-2.5zm.1 2.1h3v-2h-3v2z"/><path fill="none" d="M11.3 29h5.4l.3-1.4c.5-1.4 2.2-1.2 2 .2l-.1 1.2h7.2c0-.9 0-1.8.1-2.2 0-.1.1-.2.1-.3H8.2v1.8h3.3l-.2.7zm16.4-2.5c-.5 0-1.4.3-1.5 1.8h2.9c0-1.5-1-1.8-1.4-1.8zm13.8-5.7c-.1-.5-.3-1.1-.3-1.1h4.5s-.4-1.1-.5-1.1h-4.3c.1-.4-.5-.4-.5 0h-1.8c.1-.4-.5-.5-.5 0H17.3c.1-.5-.6-.4-.5 0H15c.1-.4-.6-.4-.5 0h-4.3l-.5 1.1h4.6s-.2.6-.3 1.1h-.3v.3h28v.1l.1-.5c0 .1-.3.1-.3.1zm-25.9-.6h-.8v-.4h1l-.2.4zm.9 0h-.2v-.5h.5l-.3.5zm1.9.1H18l-.1.3h-.7v-.8h1.4l-.2.5zm1.5-.2c-.3.2-.7.1-.7.1l-.1-.6h1.1l-.3.5zm16.4.1s-.6.1-.8-.1l-.2-.4h1.1l-.1.5zm1.9.3h-.6l-.1-.3h-.4l-.1-.6h1.3c-.1.1-.1 1-.1.9zm1-.4h-.3l-.1-.5h.5l-.1.5zm.7 0l-.1-.5h.8v.5h-.7zM8.8 31.7c.1.6.4 1.6.7 2.4h.6l-.1.2h35.3l-.1-.2h.5c.2-.5.7-1.9.8-2.4H8.8zm35.4 5.7c.1-.1.2-.3.3-.4H44l.2.4zm-4.4 2.2h-1.3c.2 1.2.3 2.3.4 2.6h.9c.1-.1.2-.2.4-.3v-.1l-.4-2.2zm2 1.1l.1.6c.3.9.6 1.2 1.6 1.3l-.7-2.9c-.3.2-.6.6-1 1zm1-1.4l-.5-2.3h-1.2l.5 2.5h1l.2-.2zm-1.2.3l.2.8c.2-.3.5-.5.7-.8h-.9z"/><path fill="none" d="M45.5 34.4H35.4c.5.1.9.4 1 .6v-.6h1.4s.1 1.1.3 2.4h1.2l-.1-.8h-.7l.2-1.7h1.8l.5 2.4h1.2l-.5-2.4h1.6l.7 2.4h.5c.5-.8.9-1.6 1.2-2.5h-.2v.2zm-6.8-5.3l.6 2.5h5.6c0-.2-.1-.4-.1-.4h2l.2-1 .1-1.1h-8.4zM37 31.6l-.4-2.5h-7.3v2.5H37zm-5.5 10.8h-2.6c.5 1 1.9 1.1 2.6 0zm11.9-15.9H29c0 .1.1.2.1.3.1.4.1 1.3.1 2.2h7.3l-.2-1.3c-.2-1.3 1.5-1.6 2-.2l.3 1.4H44l-.2-.7h3.3v-1.8h-3.7zm-4.8 4.7l-.4-2.1h-1.5l.3 2.1z"/><path fill="none" d="M36.5 27.8l.1.6H38l-.1-.7c-.4-1-1.5-.8-1.4.1zm-12 8.9c.1-.9-1.1-1-1.7-.1-.1.1-.1.2-.2.4h1.9v-.3zm0 .3h-2c-.4.7-.7 1.6-.9 2.5h2.7l.2-2.5zm-3 3.2c0 .7.1 1.5.5 2.1h2v-.1l.2-2.6h-2.7v.6zm4.7-3.2c-.1.8-.2 1.7-.2 2.5h.7c.1-.8.2-1.7.5-2.5h-1zm-.3 2.6c-.1.9-.1 1.6-.2 1.9 0 .3 0 .6.1.8H27c-.2-.9-.3-1.8-.3-2.7h-.8zm13.2 3.2c.2-.1.3-.2.5-.4h-.7c.1.2.1.3.2.4zm-20.2-3.2l-.5 2.7h1.5c-.1-.4-.1-.7-.1-1.2s.1-1 .1-1.5h-1zm18.4 2.8h-2.6c.6.7 1.6.9 2.4.5 0 0-.2.7-.3 1.3.3-.2.6-.3.9-.5-.1-.3-.2-.7-.3-1.1l-.1-.2zm-4.6-5.1c0-.1.1-.2.1-.3h-3.9c-.3.8-.4 1.7-.5 2.5h4.1c0-.6 0-1.3.2-2.2zm1.2 7c-.3-.4-.7-1-1.1-1.9h-1l1 1.4c-1.2 2.3-3.7 2.3-4.9.5-.4-.6-.7-1.2-.9-1.9h-1.1c.1.4.4.6.9.7l-1 2.5s-.2-.3-.8-.8c-.6-.4-1-1.1-.9-2.4h-2c.4.5.9.8 1.7.6l-1.1 2.4c-1-.1-2.4-1.2-2.8-3h-1.5c-.1.5.3 1 1 1.1l-.5.9c2.7 1.4 5.7 2.2 8.9 2.2 2.6 0 5-.5 7.2-1.4-.7-.4-1.1-.8-1.1-.9zM20.6 37h-1.2l-.5 2.5h1c.1-1 .4-1.8.7-2.5zm18.7 0h-1.2c.1.8.2 1.7.3 2.5h1.3l-.4-2.5z"/><path fill="#FFF" d="M35.4 20c.3.2.8.1.8.1l.1-.5h-1.1l.2.4zm1.6.3h.4l.1.3h.6c0 .1.1-.9.1-.9h-1.3l.1.6zm2.7-.6l.2.4h.7v-.4zm-.9.4h.4l.1-.4h-.6z"/><path fill="#FFF" d="M27.7 7.6c-11 0-19.7 9-19.6 19.6 0 3.8 1.1 7.3 3.1 10.3l-2.8 7.8h1.9l2-6.1c.4.5.8.9 1.2 1.3L12 45.3h1.9l1-3.4c.5.4.9.8 1.4 1.1-.1.9.3 1.6.9 2l.9.6.6-1.1c2.7 1.4 5.7 2.2 9 2.2 2.6 0 5.1-.5 7.4-1.5.3.2.8.3 1.3.3 0 0 .1-.5.3-1 .3-.2.7-.4 1-.6.5 1.1 1.5 1.6 2.3 1.6l.2-2.4c-.3 0-.6 0-.9-.2.3-.2.7-.5 1-.7.7 2.6 2.8 3.3 6.1 3.1l-2.1-7.7c2-3.1 3.1-6.7 3.1-10.5 0-10.5-8.7-19.5-19.7-19.5zM14 13.3h10.1v-.2c.1-.1.2-.2.3 0v.2H30v-.1h-4.7c0-.3.1-.8.1-.8.1-.2.2-.2.3 0v.7l1.4-.8v-.2h.5v-.4h-.7v-.3h.7v-.5H17c.2-.2.6-.4.6-.4h20.1l.6.4H27.8v.5h.7v.3h-.7v.4h.5v.2l1.4.8v-.7c.1-.1.2-.1.3 0l.1.9h1v-.2c.1-.2.3-.2.3 0v.2h10.1c-.3-.2.7.7.5.7H31.8v.2l.3.1-.1 1 .1.5h-9l.1-.5-.1-1 .3-.1V14h-10c-.1.1.8-.8.6-.7zM11.8 16h9.8c0 .1.1-.6.2-.9 0-.3.3-.3.3 0 0 .1-.1.8-.1.8h11.5v-1c0-.3.2-.3.3 0 0 .3.1.9.1.9h9.8l.6.9h-9.5l.1.9h.4l-.2.7H20.4l-.2-.7h.4l.1-.9h-9.5c0 .2.4-.4.6-.7zm-2.6 5.3h32.6v-.1h-28v-.3h.3c.1-.5.3-1.1.3-1.1H9.8l.5-1.1h4.3c-.1-.4.6-.4.5 0h1.8c-.2-.4.6-.5.5 0h20.8c-.1-.5.6-.4.5 0h1.8c-.1-.4.5-.4.5 0h4.3l.5 1.1h-4.5s.2.6.3 1.1h.3l-.1.5h4.5l.4 1.3h-4.4l.2.8h.7l-.2.3H12.4l-.1-.4h.7l.2-.8H8.8l.4-1.3zm-.8 3.4c0-.4.1-.8.1-.8h38.4s.1.3.1.7c.1.4.1.8.1.8H43l.3.9H28.9c-.6-1-2-1-2.5 0H12.1l.2-.9h-4c0 .1.1-.3.1-.7zm17.9 3.7c.1-1.6 1-1.8 1.4-1.8h.1c.4 0 1.3.3 1.4 1.8h-2.9zm2.9.7v2h-3v-2h3zm-21-1.5v-1.1h18.1c0 .1-.1.2-.1.3-.1.4-.1 1.3-.1 2.2h-7.2l.2-1.2c.2-1.4-1.5-1.5-2-.2l-.3 1.4h-5.4l.2-.7H8.3l-.1-.7zm9.8 1.5h.7l-.3 2.1h-1.6l.4-2.1h.8zm-.6-.8l.1-.6c.4-.9 1.5-.9 1.4.1l-.1.5h-1.4zm1.5.8h7.2v2.5h-7.6l.4-2.5zM8.5 30.3l-.2-1.2h8.4l-.6 2.5h-5.6l.1-.4h-2l-.1-.9zm2.7 7c-.1-.1-.2-.2-.2-.3h.3l-.1.3zm2.4 3.1c-.2-.3-.5-.5-.7-.8h.9l-.2.8zm.8-2.8l-.6 1.9h-1.1c-.1-.1-.2-.3-.3-.5l.7-2h1.5c-.1.2-.1.4-.2.6zm-1.3-.7l.3-.9c.7.1 1.1.3 1.1.9h-1.4zm3.2 5.9c-.2-.1-.4-.2-.6-.4h.7l-.1.4zm.2-.5h-.9l-.6-.6.6-2.1h1.6l-.7 2.7zm1.2-5l-.5 2.2h-1.6l.7-2.5h1.4v.3zm-1.3-.4l.3-.9c.5.1 1.1.3 1.1.9h-1.4zm1.2-2.5h-5.4l-.9 2.4h-.5c-.5-.8-.9-1.6-1.2-2.5h19.8c-.7.2-1.7.8-2.3 2.5h-1c.1-1.3.2-2.4.2-2.4h-1.7l.1.6c-.4-.9-2-.8-3.1.5-.3.3-.6.8-.8 1.3h-1.3v-.2c.2-.9-.5-2.2-1.9-2.2zm13.4 0h3.7c-.8.3-1.6 1-2 2.4h-3.9c.8-1.9 2.7-1.2 2.6-.1l1-1.3c-.2-.6-.8-.9-1.4-1zm5.9 5.1h-2.8c0-.8.1-1.7.2-2.5h2.2l.4 2.5zm0 .1l.4 2.7h-2.7c-.1-.1-.1-.2-.2-.3-.2-.6-.4-1.4-.4-2.4h2.9zm-2.5-2.7c.4-1.7 1.9-.9 2.2 0h-2.2zm-5.6 5.4c-.3-.6-.4-1.6-.4-2.7h4.1c0 1.1.1 2 .3 2.7h-1l-.1-.2c0 .1-.1.1-.1.2h-2.8zm2.7.1c-.6 1.1-2.1 1-2.6 0h2.6zm-3.1-2.9c0-.8.2-1.7.5-2.5h3.9c0 .1-.1.2-.1.3-.2.8-.2 1.5-.2 2.2h-4.1zM27 42.3h-1.1c-.1-.2-.1-.5-.1-.8 0-.3.1-1 .2-1.9h.7c-.1.9 0 1.8.3 2.7zm-.3-2.8H26c.1-.8.2-1.7.2-2.5h1c-.3.8-.4 1.7-.5 2.5zm-5.1 0c.1-.9.5-1.8.9-2.5h2l-.2 2.5h-2.7zm2.7.1l-.3 2.6v.1h-2c-.4-.6-.5-1.4-.5-2.1 0-.2 0-.4.1-.5h2.7zm-1.8-2.7c.1-.1.1-.2.2-.4.6-.8 1.8-.7 1.7.1v.2h-1.9zm-2.7 5.4h-1.5l.5-2.7h1c-.1.5-.1 1-.1 1.5s.1.8.1 1.2zm-.9-2.8l.5-2.5h1.2c-.3.7-.6 1.5-.8 2.5h-.9zm8.8 7.1c-3.2 0-6.3-.8-8.9-2.2l.5-.9c-.7-.1-1-.6-1-1.1h1.5c.4 1.8 1.8 2.9 2.8 3l1.1-2.4c-.8.2-1.4-.1-1.7-.6h2c-.1 1.3.4 2 .9 2.4.6.5.8.8.8.8l1-2.5c-.4-.1-.7-.3-.9-.7H27c.2.7.5 1.3.9 1.9 1.3 1.8 3.7 1.7 4.9-.5l-1-1.4h1c.3.9.8 1.6 1.1 1.9 0 .1.4.5 1 .8-2.2 1-4.6 1.5-7.2 1.5zm9.1-2.3c.2-.7.3-1.3.3-1.3-.8.3-1.8.2-2.4-.5h2.6v.3c.1.4.2.8.3 1.1-.2.1-.5.2-.8.4zm1.3-7.3h1.2l.4 2.5h-1.3c-.1-.8-.2-1.7-.3-2.5zm1 5.8c-.1-.1-.2-.2-.2-.4h.7c-.1.2-.3.3-.5.4zm.7-.5h-.9c-.1-.3-.2-1.4-.4-2.6h1.3l.4 2.2v.1c-.2.1-.3.2-.4.3zm1.3-5.3h1.2l.5 2.3-.2.2h-1l-.5-2.5zm.5 2.6h.9c-.2.3-.5.5-.7.8l-.2-.8zm.4 1.6l-.1-.6c.4-.4.7-.7 1-1.1l.7 2.9c-1 0-1.3-.2-1.6-1.2zm2.2-3.8L44 37h.4c-.1.1-.2.3-.2.4zm.3-.5H44l-.7-2.4h-1.6l.5 2.4H41l-.5-2.4h-1.8l-.2 1.7h.7l.1.8h-1.2c-.2-1.4-.3-2.4-.3-2.4h-1.4v.6c0-.2-.5-.5-1-.6h10.3c-.3.7-.7 1.5-1.2 2.3zm1.4-2.8h-.5l.1.2H10.1l.1-.2h-.6c-.3-.8-.6-1.7-.7-2.4h37.8c-.2.5-.7 1.9-.8 2.4zm-16.6-5h7.3l.4 2.5h-7.7v-2.5zm7.3-.8l-.1-.6c-.1-.9 1-1 1.4-.1l.1.7h-1.4zm1.6.8l.4 2.1H37l-.3-2.1h1.5zm8.7 1.2l-.2 1h-2s.1.2.1.4h-5.6l-.6-2.5h8.3v1.1zm.3-2h-3.3l.2.7h-5.4l-.3-1.4c-.5-1.4-2.2-1.1-2 .2l.2 1.3h-7.3c0-.9-.1-1.8-.1-2.2 0-.1-.1-.2-.1-.3h18.2v1.1l-.1.6z"/><path fill="#FFF" d="M19.2 20.3s.5.1.7-.1l.2-.5H19l.2.6zm-2 .3h.7l.1-.3h.4l.2-.6h-1.4v.9zm-2.4-.4h.8l.2-.5h-1zm1.5 0h.2l.2-.5h-.5z"/></svg>