<svg version="1.2" baseProfile="tiny" xmlns="http://www.w3.org/2000/svg" viewBox="0 0 74.3 74.3"><path fill="#FFF" d="M74.3 68.6c0 1.5-.6 2.9-1.7 4s-2.5 1.7-4 1.7c-1.6 0-2.9-.6-4-1.7L49.2 57.3C43.9 61 38 62.9 31.4 62.9c-4.3 0-8.3-.8-12.2-2.5s-7.2-3.9-10-6.7c-2.8-2.8-5-6.2-6.7-10S0 35.7 0 31.4c0-4.3.8-8.3 2.5-12.2 1.7-3.9 3.9-7.2 6.7-10 2.8-2.8 6.2-5 10-6.7S27.2 0 31.4 0c4.3 0 8.3.8 12.2 2.5s7.2 3.9 10 6.7c2.8 2.8 5 6.2 6.7 10 1.7 3.9 2.5 8 2.5 12.2 0 6.5-1.8 12.5-5.5 17.8l15.3 15.3c1.1 1.2 1.7 2.5 1.7 4.1zM51.4 31.4c0-5.5-2-10.2-5.9-14.1s-8.6-5.9-14.1-5.9-10.2 2-14.1 5.9-5.9 8.6-5.9 14.1 2 10.2 5.9 14.1 8.6 5.9 14.1 5.9 10.2-2 14.1-5.9 5.9-8.6 5.9-14.1z"/></svg>