<?xml version="1.0" standalone="no"?>
<!DOCTYPE svg PUBLIC "-//W3C//DTD SVG 1.1//EN" "http://www.w3.org/Graphics/SVG/1.1/DTD/svg11.dtd" >
<svg>
<metadata>
Created by FontForge 20090914 at Wed Oct 26 11:44:26 2016
 By www-data
Copyright (c) 2014 by Jonas Hecksher, Playtype, e-Types AS. All rights reserved.
</metadata>
<defs>
<font id="BerlingskeSerifSt-Md" horiz-adv-x="1167" >
  <font-face 
    font-family="BerlingskeSerifSt-Md"
    font-weight="500"
    font-stretch="normal"
    units-per-em="2048"
    panose-1="2 0 6 3 8 0 0 2 0 4"
    ascent="1638"
    descent="-410"
    x-height="1044"
    cap-height="1413"
    bbox="-737 -588.001 3768 2222"
    underline-thickness="102"
    underline-position="-102"
    unicode-range="U+0020-U+FB06"
  />
<missing-glyph horiz-adv-x="1341" 
d="M1227 0h-1116v1413h1116v-1413zM971 721v298.999h100v51h-100v117h-8c-44 -57.333 -94 -103.666 -150 -138.999l-35 -21v-8h45v-289c0 -95.333 41.667 -143 125 -143c53.333 0 98.333 25.333 135 76l-4 8c-15.333 -8 -31 -12.333 -47 -13c-40.667 0 -61 20.667 -61 62z
M489 902.999h-34v299h43c64 0 96 -50 96 -150s-35 -149.667 -105 -149zM522 595.999l0.000976562 7.99805c-27.333 9.33301 -45.333 22.333 -54 39s-13 43.334 -13 80.001v145h65c75.333 0 132.666 16.667 171.999 50s59.333 81 60 143c0 118.667 -74.667 178 -224 178h-280
v-8c20.667 -8 34 -19.667 40 -35s9 -42.666 9 -81.999v-395c0 -42 -2.33301 -69.667 -7 -83s-18.667 -24 -42 -32v-8h274z" />
    <glyph glyph-name="f_f" unicode="ff" horiz-adv-x="1296" 
d="M799 1378c0 -36 -10.6689 -64.668 -32.002 -86.001s-47.666 -32 -78.999 -32s-58 10 -80 30s-33 45.333 -33 76c0 52 25.333 90.333 76 115c-6.66699 16.667 -19 30.334 -37 41.001c54.667 -4 99.334 -20 134.001 -48s51.667 -60 51 -96zM1442 1378
c0 -36 -10.668 -64.668 -32.001 -86.001s-47.666 -32 -78.999 -32s-58 10 -80 30s-32.667 45.333 -32 76c-0.666992 52 24.333 90.333 75 115c-6.66699 16.667 -19 30.334 -37 41.001c54 -4 98.333 -20 133 -48s52 -60 52 -96zM853.997 269.998l0.00390625 717h-444v-717
c0 -84.667 10.667 -144.667 32 -180s66.666 -65.333 135.999 -90h-512c57.333 23.333 96 53.333 116 90s29.667 96.667 29 180v717h-191v57h191v89c0 118.667 29.667 210.667 89 276s134.666 103 225.999 113c-78 -39.333 -116.667 -155.333 -116 -348v-130h444v89
c0 118.667 29.667 210.667 89 276s134.666 103 225.999 113c-78 -39.333 -116.667 -155.333 -116 -348v-130h229v-57h-229v-717c0 -84.667 10.667 -144.667 32 -180s66.666 -65.333 135.999 -90h-512c56.667 23.333 95 53.333 115 90s30 96.667 30 180z" />
    <glyph glyph-name="f_f_i" unicode="ffi" horiz-adv-x="1890" 
d="M799 1378c0 -36 -10.6689 -64.668 -32.002 -86.001s-47.666 -32 -78.999 -32s-58 10 -80 30s-33 45.333 -33 76c0 52 25.333 90.333 76 115c-6.66699 16.667 -19 30.334 -37 41.001c54.667 -4 99.334 -20 134.001 -48s51.667 -60 51 -96zM1576 1231
c-32 0 -59.668 10.333 -83.001 31s-35 47.667 -35 81c0 46.667 28 85 84 115c-18 26 -44.667 45.333 -80 58c70.667 -6.66699 127.334 -24.667 170.001 -54s64 -64 64 -104c0 -39.333 -12 -70.333 -36 -93s-52 -34 -84 -34zM210.997 269.999l0.00195312 717h-191v57h191v89
c0 118.667 29.667 210.667 89 276s134.666 103 225.999 113c-78 -39.333 -116.667 -155.333 -116 -348v-904c0 -84.667 10.667 -144.667 32 -180s66.666 -65.333 135.999 -90h-512c57.333 23.333 96 53.333 116 90s29.667 96.667 29 180zM1501 720.999
c0 98 -10.666 167.001 -31.999 207.001s-67.333 59.667 -138 59h-276v-717c-0.666992 -84.667 9.66602 -144.667 30.999 -180s66.333 -65.333 135 -90h-510c59.333 23.333 98.333 53 117 89s28 96.333 28 181v717h-373v57h373v89c0 65.333 12.333 123.333 37 174
c24.667 51.333 57.667 91.666 99 120.999c82 58.667 178 90.667 288 96c-150 -34 -225 -150.667 -225 -350v-130h399c113.333 0 193.333 8.33301 240 25v-811c0 -83.333 9.33301 -141.333 28 -174s57.667 -60.667 117 -84h-483c60 23.333 99.333 51.333 118 84
s27.667 90.667 27 174v463z" />
    <glyph glyph-name="f_f_l" unicode="ffl" horiz-adv-x="1896" 
d="M799 1378c0 -36 -10.6689 -64.668 -32.002 -86.001s-47.666 -32 -78.999 -32s-58 10 -80 30s-33 45.333 -33 76c0 52 25.333 90.333 76 115c-6.66699 16.667 -19 30.334 -37 41.001c54.667 -4 99.334 -20 134.001 -48s51.667 -60 51 -96zM210.998 269.999l0.00195312 717
h-191v57h191v89c0 118.667 29.667 210.667 89 276s134.666 103 225.999 113c-78 -39.333 -116.667 -155.333 -116 -348v-904c0 -84.667 10.667 -144.667 32 -180s66.666 -65.333 135.999 -90h-512c57.333 23.333 96 53.333 116 90s29.667 96.667 29 180zM856 269.999
v716.999h-373v57h373v76c0 198.667 87.667 324.667 263 378c46 14.667 95.667 23.334 149 26.001c-143.333 -31.333 -215 -155 -215 -371v-109h227v-57h-227v-717c0 -84.667 10.667 -145 32 -181s66 -65.667 134 -89h-508c59.333 23.333 98.333 53 117 89s28 96.333 28 181z
M1493 261.998l-0.00195312 977.001h-4c-31.333 2.66699 -56.666 13 -75.999 31s-29 42.333 -29 73c0 49.333 24.667 86.333 74 111c-18 30 -46 52.667 -84 68c87.333 -8 152.333 -28.667 195 -62c31.333 13.333 73 36.666 125 69.999v-1268c0 -86 9.33301 -145.667 28 -179
s57.667 -61 117 -83h-489c58.667 23.333 97.334 52 116.001 86s27.667 92.667 27 176z" />
    <glyph glyph-name="f_b" unicode="fb" horiz-adv-x="1910" 
d="M1290 963c-49.333 0 -96.332 -9.00195 -140.999 -27.002c91.333 88.667 182.666 133 273.999 133c124.667 0 229 -44 313 -132c84 -87.333 126 -207.666 126 -360.999s-42.667 -280.666 -128 -381.999s-190.333 -168.666 -315 -201.999c74 44 131.333 112.667 172 206
s61 204.666 61 333.999s-34.667 233.333 -104 312c-69.333 79.333 -155.333 119 -258 119zM856.001 1239l-4.00098 -0.00195312c-31.333 2.66699 -57 13.334 -77 32.001s-30 42.667 -30 72c0 48 24.667 85 74 111c-15.333 28.667 -42.666 51.334 -81.999 68.001
c87.333 -8 152.333 -28.667 195 -62c45.333 20.667 87 44 125 70v-1464c44 -38 93.667 -65.333 149 -82c-168 8 -284.667 23.667 -350 47v1208zM219 269.996l-0.000976562 717h-188v57h188v76c0 72.667 12 136 36 190c58 130.667 184 202 378 214
c-144.667 -31.333 -217 -155 -217 -371v-109h229v-57h-229v-717c0 -84.667 10.667 -145 32 -181s66.666 -65.667 135.999 -89h-510c58.667 23.333 97.334 53 116.001 89s28.334 96.333 29.001 181z" />
    <glyph glyph-name="f_h" unicode="fh" horiz-adv-x="1933" 
d="M1532 262l-0.000976562 459.001c0 75.333 -20.667 133.666 -62 174.999s-91.666 62 -150.999 62c-60 0 -121.333 -8.66699 -184 -26c96.667 91.333 190.667 137 282 137s165.333 -28.333 222 -85s85 -147 85 -271v-416c0 -102.667 8.66699 -172 26 -208
s57.333 -65.667 120 -89h-484c60 23.333 99.333 52 118 86s28 92.667 28 176zM216.999 270.001l-0.000976562 717h-188v57h188v76c0 72.667 12 136 36 190c58 130.667 184 202 378 214c-144.667 -31.333 -217 -155 -217 -371v-109h229v-57h-229v-717
c0 -84.667 11 -145 33 -181s67 -65.667 135 -89h-508c57.333 23.333 95.333 53.333 114 90s28.334 96.667 29.001 180zM853.998 262.001l-0.00292969 977.001h-4c-31.333 2.66699 -56.666 13 -75.999 31s-29 42.333 -29 73c0 49.333 24.667 86.333 74 111
c-18 30 -46 52.667 -84 68c87.333 -8 152.333 -28.667 195 -62c31.333 13.333 73 36.666 125 69.999v-1268c0.666992 -86 10.334 -145.667 29.001 -179s57.334 -61 116.001 -83h-489c58 23.333 96.333 52 115 86s28 92.667 28 176z" />
    <glyph glyph-name="f_i" unicode="fi" horiz-adv-x="1249" 
d="M935 1231c-32 0 -59.667 10.333 -83 31s-35 47.667 -35 81c0 46.667 28 85 84 115c-18 26 -44.667 45.333 -80 58c70 -6.66699 126.333 -24.667 169 -54s64 -64 64 -104c0 -39.333 -11.667 -70.333 -35 -93c-24 -22.667 -52 -34 -84 -34zM860 721
c0 98 -10.6689 167.001 -32.002 207.001s-67.333 59.667 -138 59h-276v-717c0 -84.667 10.667 -144.667 32 -180s66 -65.333 134 -90h-510c58.667 23.333 97.334 53 116.001 89s28.334 96.333 29.001 181v717h-188v57h188v89c0 65.333 12.333 123.333 37 174
c24.667 51.333 57.667 91.666 99 120.999c82 58.667 178 90.667 288 96c-150 -34 -225 -150.667 -225 -350v-130h399c113.333 0 193.333 8.33301 240 25v-811c-0.666992 -83.333 8.33301 -141.333 27 -174s58 -60.667 118 -84h-483c60 23.333 99.333 51.333 118 84
s27.667 90.667 27 174v463z" />
    <glyph glyph-name="f_j" unicode="fj" horiz-adv-x="1245" 
d="M935 1231c-32 0 -59.667 10.333 -83 31s-35 47.667 -35 81c0 46.667 28 85 84 115c-18 26 -44.667 45.333 -80 58c70 -6.66699 126.333 -24.667 169 -54s64 -64 64 -104c0 -39.333 -11.667 -70.333 -35 -93c-24 -22.667 -52 -34 -84 -34zM856 -80l-0.00195312 801.002
c0 100 -10.333 169.333 -31 208s-65.667 58 -135 58h-276v-717c0 -84.667 10.667 -144.667 32 -180s66 -65.333 134 -90h-510c58.667 23.333 97.334 53 116.001 89s28.334 96.333 29.001 181v717h-188v57h188v89c0 65.333 12.333 123.333 37 174
c24.667 51.333 57.667 91.666 99 120.999c82 58.667 178 90.667 288 96c-150 -34 -225 -150.667 -225 -350v-130h399c113.333 0 193.333 8.33301 240 25v-1057c0 -240.667 -118.333 -408.667 -355 -504c48 36.667 86.333 91.667 115 165s43 155.666 43 246.999z" />
    <glyph glyph-name="f_k" unicode="fk" horiz-adv-x="1847" 
d="M1288 1044h547c-125.333 -26 -284.333 -117.333 -477 -274c49.333 52 74 101.333 74 148c-0.666992 58 -48.667 100 -144 126zM1720 0c-101.333 0 -166.666 8.33105 -195.999 24.998s-77.333 68.334 -144 155.001c-10.667 16.667 -19.334 29 -26.001 37l-238 313l135 129
l346 -428c62 -78 114.333 -131.667 157 -161s88.667 -52.666 138 -69.999h-172zM217 269.998l-0.000976562 717h-188v57h188v76c0 72.667 12 136 36 190c58 130.667 184 202 378 214c-144.667 -31.333 -217 -155 -217 -371v-109h229v-57h-229v-717
c0 -84.667 11 -145 33 -181s67 -65.667 135 -89h-508c57.333 23.333 95.333 53.333 114 90s28.334 96.667 29.001 180zM853.999 257.998l-0.000976562 981.002h-4c-31.333 2.66699 -56.666 13 -75.999 31s-29 42.333 -29 73c0 49.333 24.667 86.333 74 111
c-18 30 -46 52.667 -84 68c87.333 -8 152.333 -28.667 195 -62c31.333 13.333 73 36.666 125 69.999v-1272c-0.666992 -83.333 8.33301 -141.333 27 -174s58 -60.667 118 -84h-489c58 23.333 96.333 51.666 115 84.999s28 91 28 173z" />
    <glyph glyph-name="f_l" unicode="fl" horiz-adv-x="1259" 
d="M217 270l-0.000976562 717h-188v57h188v74c0 200 88.667 326.667 266 380c46.667 14.667 96 22.667 148 24c-144.667 -31.333 -217 -155 -217 -371v-107h229v-57h-229v-717c0 -84.667 11 -145 33 -181s67 -65.667 135 -89h-508c57.333 23.333 95.333 53.333 114 90
s28.334 96.667 29.001 180zM853.999 258l-0.000976562 979.002h-4c-31.333 2.66699 -56.666 13 -75.999 31s-29 42.333 -29 73c0 49.333 24.667 86.333 74 111c-18 30 -46 52.667 -84 68c87.333 -8 152.333 -28.667 195 -62c31.333 13.333 73 36.666 125 69.999v-1270
c-0.666992 -83.333 8.33301 -141.333 27 -174s58 -60.667 118 -84h-489c58 23.333 96.333 51.666 115 84.999s28 91 28 173z" />
    <glyph glyph-name="f_t" unicode="ft" horiz-adv-x="1349" 
d="M799 1378c0 -36 -10.6689 -64.668 -32.002 -86.001s-47.666 -32 -78.999 -32s-58 10 -80 30s-33 45.333 -33 76c0 52 25.333 90.333 76 115c-6.66699 16.667 -19 30.334 -37 41.001c54.667 -4 99.334 -20 134.001 -48s51.667 -60 51 -96zM210.998 269.999l0.00195312 717
h-191v57h191v89c0 118.667 29.667 210.667 89 276s134.666 103 225.999 113c-78 -39.333 -116.667 -155.333 -116 -348v-130h344c83.333 56 162.333 139.333 237 250v-250h279v-57h-279v-698c0 -63.333 15 -111 45 -143s72 -48 126 -48s106.333 11.667 157 35
c-24.667 -38 -61.667 -72.333 -111 -103s-110 -46 -182 -46c-153.333 0 -230.333 108.333 -231 325v678h-385v-717c0 -84.667 10.667 -144.667 32 -180s66.666 -65.333 135.999 -90h-512c57.333 23.333 96 53.333 116 90s29.667 96.667 29 180z" />
    <glyph glyph-name="f_f_b" unicode="ffb" horiz-adv-x="2547" 
d="M799 1378c0 -36 -10.6689 -64.668 -32.002 -86.001s-47.666 -32 -78.999 -32s-58 10 -80 30s-33 45.333 -33 76c0 52 25.333 90.333 76 115c-6.66699 16.667 -19 30.334 -37 41.001c54.667 -4 99.334 -20 134.001 -48s51.667 -60 51 -96zM210.998 269.999l0.00195312 717
h-191v57h191v89c0 118.667 29.667 210.667 89 276s134.666 103 225.999 113c-78 -39.333 -116.667 -155.333 -116 -348v-904c0 -84.667 10.667 -144.667 32 -180s66.666 -65.333 135.999 -90h-512c57.333 23.333 96 53.333 116 90s29.667 96.667 29 180zM1925 962.999
c-46.667 0 -93.668 -9.00195 -141.001 -27.002c91.333 88.667 182.666 133 273.999 133c125.333 0 230 -44 314 -132c84 -87.333 126.333 -207.666 127 -360.999s-42.333 -280.666 -129 -381.999s-191.334 -168.666 -314 -201.999c72.667 44 129.334 112.667 170.001 206
c41.333 93.333 62 204.666 62 333.999s-34.667 233.333 -104 312c-69.333 79.333 -155.666 119 -258.999 119zM1493 1239l-6 -0.000976562c-30 2.66699 -55 13.334 -75 32.001s-30 42.667 -30 72c0 49.333 24.667 86.333 74 111c-18 30 -45.333 52.667 -82 68
c87.333 -8 152.333 -28.667 195 -62c34 16.667 75 40 123 70v-1464c44 -38 94.333 -65.333 151 -82c-168 8 -284.667 23.667 -350 47v1208zM855.999 269.996v716.999h-373v57h373v76c0 198.667 87.667 324.667 263 378c46 14.667 95.667 23.334 149 26.001
c-143.333 -31.333 -215 -155 -215 -371v-109h227v-57h-227v-717c0 -84.667 10.667 -145 32 -181s66 -65.667 134 -89h-508c59.333 23.333 98.333 53 117 89s28 96.333 28 181z" />
    <glyph glyph-name="f_f_f" unicode="fff" horiz-adv-x="1939" 
d="M799 1378c0 -36 -10.6689 -64.668 -32.002 -86.001s-47.666 -32 -78.999 -32s-58 10 -80 30s-33 45.333 -33 76c0 52 25.333 90.333 76 115c-6.66699 16.667 -19 30.334 -37 41.001c54.667 -4 99.334 -20 134.001 -48s51.667 -60 51 -96zM2085 1378
c0 -36 -10.668 -64.668 -32.001 -86.001s-47.666 -32 -78.999 -32s-58 10 -80 30s-32.667 45.333 -32 76c-0.666992 52 24.333 90.333 75 115c-6.66699 16.667 -18.667 30.334 -36 41.001c54.667 -4 99 -20 133 -48s51 -60 51 -96zM1442 1378
c0 -36 -10.668 -64.668 -32.001 -86.001s-47.666 -32 -78.999 -32s-58 10 -80 30s-32.667 45.333 -32 76c-0.666992 52 24.333 90.333 75 115c-6.66699 16.667 -19 30.334 -37 41.001c54 -4 98.333 -20 133 -48s52 -60 52 -96zM1497 269.997l0.00585938 717h-444v-717
c-0.666992 -84.667 9.66602 -144.667 30.999 -180s67 -65.333 137 -90h-512c56.667 23.333 95 53.333 115 90s30 96.667 30 180v717h-444v-717c0 -84.667 10.667 -144.667 32 -180s66.666 -65.333 135.999 -90h-512c57.333 23.333 96 53.333 116 90s29.667 96.667 29 180
v717h-191v57h191v89c0 118.667 29.667 210.667 89 276s134.666 103 225.999 113c-78 -39.333 -116.667 -155.333 -116 -348v-130h444v89c0 118.667 29.667 210.667 89 276s134.666 103 225.999 113c-78 -39.333 -116.667 -155.333 -116 -348v-130h444v89
c0 118.667 29.667 210.667 89 276s134.666 103 225.999 113c-78 -39.333 -116.667 -155.333 -116 -348v-130h229v-57h-229v-717c0 -84.667 10.667 -144.667 32 -180s66.666 -65.333 135.999 -90h-512c57.333 23.333 96 53.333 116 90s29.667 96.667 29 180z" />
    <glyph glyph-name="f_f_h" unicode="ffh" horiz-adv-x="2572" 
d="M799 1378c0 -36 -10.6689 -64.668 -32.002 -86.001s-47.666 -32 -78.999 -32s-58 10 -80 30s-33 45.333 -33 76c0 52 25.333 90.333 76 115c-6.66699 16.667 -19 30.334 -37 41.001c54.667 -4 99.334 -20 134.001 -48s51.667 -60 51 -96zM210.998 269.999l0.00195312 717
h-191v57h191v89c0 118.667 29.667 210.667 89 276s134.666 103 225.999 113c-78 -39.333 -116.667 -155.333 -116 -348v-904c0 -84.667 10.667 -144.667 32 -180s66.666 -65.333 135.999 -90h-512c57.333 23.333 96 53.333 116 90s29.667 96.667 29 180zM856 269.999
v716.999h-373v57h373v76c0 198.667 87.667 324.667 263 378c46 14.667 95.667 23.334 149 26.001c-143.333 -31.333 -215 -155 -215 -371v-109h227v-57h-227v-717c0 -84.667 10.667 -145 32 -181s66 -65.667 134 -89h-508c59.333 23.333 98.333 53 117 89s28 96.333 28 181z
M2171 261.998v459.001c0.666992 75.333 -19.666 133.666 -61 174.999c-41.333 41.333 -92 62 -152 62s-121.333 -8.66699 -184 -26c96.667 91.333 190.667 137 282 137s165.333 -28.333 222 -85s85 -147 85 -271v-416c0 -102.667 8.66699 -172 26 -208
s57.333 -65.667 120 -89h-484c60 23.333 99.333 52 118 86s28 92.667 28 176zM1493 261.999l-0.00195312 977.001h-4c-31.333 2.66699 -56.666 13 -75.999 31s-29 42.333 -29 73c0 49.333 24.667 86.333 74 111c-18 30 -46 52.667 -84 68c87.333 -8 152.333 -28.667 195 -62
c31.333 13.333 73 36.666 125 69.999v-1268c0 -86 9.33301 -145.667 28 -179s57.667 -61 117 -83h-489c58.667 23.333 97.334 52 116.001 86s27.667 92.667 27 176z" />
    <glyph glyph-name="f_f_j" unicode="ffj" horiz-adv-x="1886" 
d="M799 1378c0 -36 -10.6689 -64.668 -32.002 -86.001s-47.666 -32 -78.999 -32s-58 10 -80 30s-33 45.333 -33 76c0 52 25.333 90.333 76 115c-6.66699 16.667 -19 30.334 -37 41.001c54.667 -4 99.334 -20 134.001 -48s51.667 -60 51 -96zM1576 1231
c-32 0 -59.668 10.333 -83.001 31s-35 47.667 -35 81c0 46.667 28 85 84 115c-18 26 -44.667 45.333 -80 58c70.667 -6.66699 127.334 -24.667 170.001 -54s64 -64 64 -104c0 -39.333 -12 -70.333 -36 -93s-52 -34 -84 -34zM210.997 269.999l0.00195312 717h-191v57h191v89
c0 118.667 29.667 210.667 89 276s134.666 103 225.999 113c-78 -39.333 -116.667 -155.333 -116 -348v-904c0 -84.667 10.667 -144.667 32 -180s66.666 -65.333 135.999 -90h-512c57.333 23.333 96 53.333 116 90s29.667 96.667 29 180zM1495 -80.001l0.000976562 832.002
c0 91.333 -12 153.333 -36 186s-67.333 49 -130 49h-274v-717c-0.666992 -84.667 9.66602 -144.667 30.999 -180s66.333 -65.333 135 -90h-510c59.333 23.333 98.333 53 117 89s28 96.333 28 181v717h-373v57h373v89c0 65.333 12.333 123.333 37 174
c24.667 51.333 57.667 91.666 99 120.999c82 58.667 178 90.667 288 96c-150 -34 -225 -150.667 -225 -350v-130h405c116 0 193.333 8.33301 232 25v-1057c0 -240.667 -118.333 -408.667 -355 -504c48 36.667 86.333 91.667 115 165s43 155.666 43 246.999z" />
    <glyph glyph-name="f_f_k" unicode="ffk" horiz-adv-x="2486" 
d="M799 1378c0 -36 -10.6689 -64.668 -32.002 -86.001s-47.666 -32 -78.999 -32s-58 10 -80 30s-33 45.333 -33 76c0 52 25.333 90.333 76 115c-6.66699 16.667 -19 30.334 -37 41.001c54.667 -4 99.334 -20 134.001 -48s51.667 -60 51 -96zM210.998 269.999l0.00195312 717
h-191v57h191v89c0 118.667 29.667 210.667 89 276s134.666 103 225.999 113c-78 -39.333 -116.667 -155.333 -116 -348v-904c0 -84.667 10.667 -144.667 32 -180s66.666 -65.333 135.999 -90h-512c57.333 23.333 96 53.333 116 90s29.667 96.667 29 180zM856 269.999
v716.999h-373v57h373v76c0 198.667 87.667 324.667 263 378c46 14.667 95.667 23.334 149 26.001c-143.333 -31.333 -215 -155 -215 -371v-109h227v-57h-227v-717c0 -84.667 10.667 -145 32 -181s66 -65.667 134 -89h-508c59.333 23.333 98.333 53 117 89s28 96.333 28 181z
M1493 261.998l-0.00195312 977.001h-4c-31.333 2.66699 -56.666 13 -75.999 31s-29 42.333 -29 73c0 49.333 24.667 86.333 74 111c-18 30 -46 52.667 -84 68c87.333 -8 152.333 -28.667 195 -62c31.333 13.333 73 36.666 125 69.999v-1268c0 -86 9.33301 -145.667 28 -179
s57.667 -61 117 -83h-489c58.667 23.333 97.334 52 116.001 86s27.667 92.667 27 176zM1927 1044h547c-125.333 -26 -284.333 -117.333 -477 -274c49.333 52 74 101.333 74 148c-0.666992 58 -48.667 100 -144 126zM2359 -0.000976562
c-102 0 -167.666 8.33105 -196.999 24.998s-77 68.334 -143 155.001c-10.667 16.667 -19.334 29 -26.001 37l-238 313l135 129l346 -428c62.667 -78 115.334 -131.667 158 -161c42.667 -29.333 88.334 -52.666 137 -69.999h-172z" />
    <glyph glyph-name=".notdef" horiz-adv-x="1341" 
d="M1227 0h-1116v1413h1116v-1413zM971 721v298.999h100v51h-100v117h-8c-44 -57.333 -94 -103.666 -150 -138.999l-35 -21v-8h45v-289c0 -95.333 41.667 -143 125 -143c53.333 0 98.333 25.333 135 76l-4 8c-15.333 -8 -31 -12.333 -47 -13c-40.667 0 -61 20.667 -61 62z
M489 902.999h-34v299h43c64 0 96 -50 96 -150s-35 -149.667 -105 -149zM522 595.999l0.000976562 7.99805c-27.333 9.33301 -45.333 22.333 -54 39s-13 43.334 -13 80.001v145h65c75.333 0 132.666 16.667 171.999 50s59.333 81 60 143c0 118.667 -74.667 178 -224 178h-280
v-8c20.667 -8 34 -19.667 40 -35s9 -42.666 9 -81.999v-395c0 -42 -2.33301 -69.667 -7 -83s-18.667 -24 -42 -32v-8h274z" />
    <glyph glyph-name="space" unicode=" " horiz-adv-x="448" 
 />
    <glyph glyph-name="exclam" unicode="!" horiz-adv-x="524" 
d="M131 103c0 36.667 13 67.667 39 93s56.667 38 92 38s66 -12.667 92 -38s39 -56 39 -92s-13 -67.333 -39 -94c-26 -26 -56.667 -39 -92 -39s-66 13 -92 39s-39 57 -39 93zM261 1442c32 0 60.001 -10.667 84.001 -32s36 -52.666 36 -93.999
c-0.666992 -41.333 -18.334 -178.333 -53.001 -411c-34.667 -233.333 -56.667 -408 -66 -524c-9.33301 116 -31.333 290.667 -66 524c-34.667 232.667 -52 369.667 -52 411s11.333 72.666 34 93.999c23.333 21.333 51 32 83 32z" />
    <glyph glyph-name="quotedbl" unicode="&#x22;" horiz-adv-x="806" 
d="M475 1345c0 24.667 10.001 47 30.001 67s44 30 72 30c28.667 0 53 -10 73 -30s30 -42.333 30 -67s-16.333 -84.334 -49 -179.001s-50.334 -169.334 -53.001 -224.001c-2.66699 54.667 -20.667 129.334 -54 224.001c-32.667 94.667 -49 154.334 -49 179.001zM127.001 1345
c0 24.667 10.001 47 30.001 67c19.333 20 43 30 71 30s52.333 -10 73 -30s31 -42.333 31 -67s-16.667 -84.334 -50 -179.001s-51 -169.334 -53 -224.001c-2.66699 54.667 -20.334 129.334 -53.001 224.001s-49 154.334 -49 179.001z" />
    <glyph glyph-name="numbersign" unicode="#" 
d="M123 475v78h229l56 301h-285v78h299l86 481h78l-252 -1419h-80l86 481h-217zM1063 932v-78h-234l-55 -301h289v-78h-301l-86 -481h-78l84 481h-213l14 78h211l56 301h-211l14 78h211l86 481h80l-86 -481h219z" />
    <glyph glyph-name="dollar" unicode="$" 
d="M610 -172l-61.002 -0.00195312v780l-116 66c-22 13.333 -55 36 -99 68s-76 60.667 -96 86c-54.667 70.667 -81.667 146.667 -81 228c0.666992 82.667 31.334 155.334 92.001 218.001s137.334 103.667 230.001 123c-102.667 -65.333 -153.667 -155 -153 -269
c0 -57.333 19 -106.666 57 -147.999s93.333 -84 166 -128v692h61v-729c134 -76.667 225 -136 273 -178c86 -79.333 129 -169.666 129 -270.999s-30.667 -186.333 -92 -255c-61.333 -68 -140 -112.667 -236 -134c50.667 30 89.667 71.667 117 125s41 111.333 41 174
s-20 116.667 -60 162s-97.333 89.666 -172 132.999v-743zM155.998 52.998l0.000976562 352.999c45.333 -113.333 92.666 -203.666 141.999 -270.999c50 -66.667 109.667 -120.667 179 -162c-122.667 8 -229.667 34.667 -321 80zM947.999 1329v-295
c-74 164 -162.667 286.333 -266 367c79.333 -8.66699 168 -32.667 266 -72z" />
    <glyph glyph-name="percent" unicode="%" horiz-adv-x="1691" 
d="M905 324c0 105.333 40.001 207.334 120.001 306.001s180.667 147.334 302 146.001c-75.333 -18.667 -135 -79.334 -179 -182.001s-65.667 -214.667 -65 -336c0 -56 9.66699 -111.333 29 -166s45.333 -90.667 78 -108c-84.667 2.66699 -153.334 33.667 -206.001 93
s-79 141.666 -79 246.999zM1495 483.001c0 132.667 -27.9971 224.333 -83.9971 275c52 -15.333 92.667 -50.333 122 -105c29.333 -54 44 -122.333 44 -205c-0.666992 -82.667 -24.334 -172 -71.001 -268s-112.334 -156.667 -197.001 -182
c57.333 40 102.666 106.667 135.999 200s50 188.333 50 285zM115.004 985c0 105.333 39.665 207.335 118.998 306.002c80 98.667 181 147.667 303 147c-75.333 -19.333 -135 -80.333 -179 -183s-65.667 -214.334 -65 -335.001c0.666992 -56 10.334 -111.667 29.001 -167
s44.334 -91.333 77.001 -108c-84.667 2.66699 -153 33.667 -205 93s-78.333 141.666 -79 246.999zM932.002 1225c-58.667 0 -113.332 10.667 -163.999 32c12 -31.333 18 -76 18 -134c0 -133.333 -41 -253.333 -123 -360c-43.333 -55.333 -93.666 -91.333 -150.999 -108
c58.667 36.667 105.334 103 140.001 199s52 201.333 52 316s-27 197.667 -81 249c15.333 -8 40.333 -24.667 75 -50c73.333 -54 146.666 -81 219.999 -81c125.333 0 250.666 70.333 375.999 211h76l-993 -1595h-86l883 1411c-102.667 -60 -183.334 -90 -242.001 -90z" />
    <glyph glyph-name="ampersand" unicode="&#x26;" horiz-adv-x="1478" 
d="M1008 850h501c-38 -13.333 -77 -36 -117 -68s-72.667 -62.667 -98 -92c-25.333 -28.667 -62 -74.667 -110 -138c-49.333 -63.333 -87 -110 -113 -140c142 268.667 121 414.667 -63 438zM838 1180c0 66.667 -9.66699 123.334 -29 170.001s-44.666 76.667 -75.999 90
c79.333 -5.33301 143.666 -30 192.999 -74s73.666 -101.333 72.999 -172c0.666992 -131.333 -94.666 -241.333 -285.999 -330c83.333 77.333 125 182.666 125 315.999zM90 364c0 90.667 28 159.999 84 207.999s145.333 97.667 268 149c-60 -46.667 -101.333 -87 -124 -121
s-33.667 -75 -33 -123c0 -98 34.667 -186 104 -264s152 -117 248 -117c66.667 0 140.334 26 221.001 78c-49.333 -61.333 -106.333 -110.666 -171 -147.999s-131.334 -56.333 -200.001 -57c-115.333 0 -210.333 43.333 -285 130c-74.667 86 -112 174.333 -112 265z
M1513 -0.000976562l-419.001 -0.000976562c-23.333 18.667 -45 38 -65 58s-73.333 84 -160 192s-195 250.333 -325 427s-195.333 315.667 -196 417c0 79.333 23.667 151.333 71 216s113.666 106 198.999 124c-75.333 -32.667 -112.666 -112.667 -111.999 -240
c0 -83.333 38.667 -180.333 116 -291s155 -214.667 233 -312l145 -183c20 -25.333 58.333 -69.333 115 -132c56.667 -64 101.667 -109.667 135 -137c98.667 -81.333 186.334 -127.666 263.001 -138.999z" />
    <glyph glyph-name="quotesingle" unicode="'" horiz-adv-x="458" 
d="M127 1345c0 24.667 10.001 47 30.001 67c19.333 20 43 30 71 30s52.333 -10 73 -30s31 -42.333 31 -67s-16.667 -84.334 -50 -179.001s-51 -169.334 -53 -224.001c-2.66699 54.667 -20.334 129.334 -53.001 224.001s-49 154.334 -49 179.001z" />
    <glyph glyph-name="parenleft" unicode="(" horiz-adv-x="710" 
d="M389 620c0 -322.667 97.666 -624.999 292.999 -906.999c-105.333 79.333 -209.666 196 -312.999 350c-53.333 79.333 -97 171 -131 275c-122 374 -28.667 727 280 1059c53.333 57.333 108 107.666 164 150.999c-195.333 -296 -293 -605.333 -293 -928z" />
    <glyph glyph-name="parenright" unicode=")" horiz-adv-x="710" 
d="M322 630c0 320 -97.667 625.999 -293 917.999c128.667 -101.333 243 -232.666 343 -393.999s150 -334.333 150 -519c0 -278.667 -114.333 -539.667 -343 -783c-50.667 -56 -100.667 -102.333 -150 -139c195.333 291.333 293 597 293 917z" />
    <glyph glyph-name="asterisk" unicode="*" horiz-adv-x="798" 
d="M270 760l-131 94l242 193zM743 1106l-305 -25l256 179zM664 858l-134 -96l-108 285zM367 1085l-312 17l54 153zM401 1112l-77 301h161z" />
    <glyph glyph-name="plus" unicode="+" 
d="M649 133h-133v381h-358v127h358v381h133v-381h361v-127h-361v-381z" />
    <glyph glyph-name="comma" unicode="," horiz-adv-x="442" 
d="M164 -41c0 19.333 -10.6689 44 -32.002 74s-32 60.667 -32 92s11.333 58.333 34 81s51.334 34 86.001 34s63.334 -13 86.001 -39s34 -63.333 34 -112s-28 -111 -84 -187s-116.667 -135.333 -182 -178c60 92.667 90 171 90 235z" />
    <glyph glyph-name="hyphen" unicode="-" horiz-adv-x="591" 
d="M539 514h-486v154h486v-154z" />
    <glyph glyph-name="period" unicode="." horiz-adv-x="442" 
d="M356 106c0 -36.667 -13.333 -68 -40 -94s-58.334 -39 -95.001 -39s-68.334 13 -95.001 39s-40 57.333 -40 94c0 37.333 13.333 69.333 40 96s58.334 40 95.001 40s68.334 -13.333 95.001 -40s40 -58.667 40 -96z" />
    <glyph glyph-name="slash" unicode="/" horiz-adv-x="813" 
d="M100 -29h-90l703 1469h90z" />
    <glyph glyph-name="zero" unicode="0" 
d="M848 687c0 222.667 -27.001 410.665 -81.001 563.998c-33.333 96.667 -76 158.334 -128 185.001c88.667 -15.333 166 -63.666 232 -144.999c66 -80.667 115 -173.667 147 -279s47.667 -211.666 47 -318.999c0 -234 -60.333 -425.333 -181 -574
c-64 -78 -139.667 -126 -227 -144c49.333 28.667 89.333 89.667 120 183s50.334 182.666 59.001 267.999c8 84.667 12 171.667 12 261zM511.999 -25.002c-131.333 23.333 -232.332 105.999 -302.999 247.999s-106.334 298.333 -107.001 469
c0 244.667 64 444.334 192 599.001c66 81.333 143.333 129.666 232 144.999c-52 -25.333 -94.667 -86.666 -128 -183.999c-52.667 -152.667 -79.334 -336 -80.001 -550s23.333 -395 72 -543c30.667 -94 71.334 -155.333 122.001 -184z" />
    <glyph glyph-name="one" unicode="1" 
d="M725 279c0 -87.333 11.335 -149.666 34.002 -186.999s68 -68 136 -92h-571c87.333 23.333 143.666 52.666 168.999 87.999s37.666 99 36.999 191v890c-65.333 -30 -155.333 -50.333 -270 -61c160 54.667 315 164.667 465 330v-1159z" />
    <glyph glyph-name="two" unicode="2" 
d="M264 1229c44 0 79.333 -13 106 -39s40 -58.333 40 -97c0 -38 -12.667 -70.333 -38 -97s-58 -40 -98 -40s-73.667 13.667 -101 41c-28 27.333 -42 61.666 -42 102.999s12.333 82 37 122c24.667 41.333 56.667 76.333 96 105c-18 -27.333 -31 -60.666 -39 -99.999
c8 1.33301 21 2 39 2zM119 0v14l137 156h754l-9 -170h-882zM799 1084c0 93.333 -29 171.332 -87 233.999s-152.667 94.334 -284 95.001c74 19.333 128 29 162 29c121.333 0 221.666 -32.667 300.999 -98s119 -152.333 119 -261c0 -78 -30.667 -159.333 -92 -244
c-23.333 -32 -60.666 -71.333 -111.999 -118c-84 -76.667 -187.333 -158.667 -310 -246c114.667 139.333 193.667 252.333 237 339c44 86.667 66 176.667 66 270z" />
    <glyph glyph-name="three" unicode="3" 
d="M251 338c38.667 0 70.667 -11.999 96 -35.999s38 -54 38 -90s-11 -67.333 -33 -94s-48.667 -45 -80 -55c22 -36 49.333 -62.333 82 -79c-74.667 13.333 -134 40 -178 80s-66 83.333 -66 130c0 45.333 14 80.666 42 105.999c27.333 25.333 60.333 38 99 38zM139 1237v176
h819v-6l-151 -170h-668zM1022 458.001c0 -129.333 -46.333 -238.67 -139 -328.003s-206 -141.666 -340 -156.999c79.333 23.333 144.333 71.333 195 144s76.334 162.334 77.001 269.001c0 106.667 -40.333 191 -121 253c-80.667 62.667 -180.334 96 -299.001 100l131 172
c136 -1.33301 252.667 -45 350 -131c97.333 -85.333 146 -192.666 146 -321.999z" />
    <glyph glyph-name="four" unicode="4" 
d="M705 279v124.001h-642v11l74 106h568v815l65 95h127v-910h170v-117h-170v-124c0 -90 11 -153 33 -189s67.667 -66 137 -90h-567c86 23.333 141.667 52.666 167 87.999s38 99 38 191z" />
    <glyph glyph-name="five" unicode="5" 
d="M117 188c0 48 13.666 85.335 40.999 112.002s60.333 40 99 40s70.334 -12.667 95.001 -38s37 -56 37 -92s-9.33301 -66.333 -28 -91s-41.334 -42.334 -68.001 -53.001c18 -28.667 48 -58.334 90 -89.001c-79.333 9.33301 -143.666 35 -192.999 77
c-48.667 41.333 -73 86 -73 134zM935.999 1237h-629l23 176h606v-176zM810.999 422.002c0 113.333 -29.667 199.001 -89 257.001s-135.333 87 -228 87s-174.667 -23.333 -246 -70c53.333 68 109 116 167 144s123.667 41.667 197 41c114.667 0 211 -38.333 289 -115
c78 -77.333 117 -181.333 117 -312s-46.667 -239.334 -140 -326.001s-203 -138.334 -329 -155.001c86 32.667 151 87.334 195 164.001s66.333 171.667 67 285z" />
    <glyph glyph-name="six" unicode="6" 
d="M870 420c0 106.667 -30.3311 196.998 -90.998 270.998c-60.667 74.667 -140 112 -238 112c-28.667 0 -59.334 -5.66699 -92.001 -17c26 31.333 61 57 105 77s90 30 138 30c108 0 198.333 -38 271 -114s109 -177.667 109 -305c0 -128 -37.333 -239.333 -112 -334
s-166.667 -149.667 -276 -165c57.333 24.667 102.666 78.334 135.999 161.001s50 177.334 50 284.001zM547.002 -27.002c-130 12.667 -235.667 71.667 -317 177s-122 232 -122 380s39.333 289.333 118 424c78.667 135.333 182.667 246 312 332s265.333 135.333 408 148
c-131.333 -49.333 -245 -124.333 -341 -225c-187.333 -196.667 -280.333 -423 -279 -679c0 -302 73.667 -487.667 221 -557z" />
    <glyph glyph-name="seven" unicode="7" 
d="M508 0l-215 -0.000976562c30 105.333 98 251.333 204 438s221.667 371 347 553c-144.667 -323.333 -256.667 -653.666 -336 -990.999zM100 1233v180h959v-8c-38 -64 -70 -121.333 -96 -172h-863z" />
    <glyph glyph-name="eight" unicode="8" 
d="M829 1120c0 70.667 -16 136.001 -48 196.001s-78 101.333 -138 124c116.667 -9.33301 209.667 -45.333 279 -108s104 -133.334 104 -212.001c0 -78 -30 -140.333 -90 -187s-130.333 -79.667 -211 -99c69.333 74 104 169.333 104 286zM98 308.001
c0 96 30.668 171.999 92.001 227.999s137.333 95.667 228 119c-84.667 -82 -127 -190.333 -127 -325c0 -78.667 17.667 -150.667 53 -216s90.666 -111.666 165.999 -138.999c-114.667 6 -212 39 -292 99s-120 138 -120 234zM129.001 1088c0 88 33.332 163.667 99.999 227
c66.667 64 153.334 105 260.001 123c-58.667 -28.667 -102.667 -68.667 -132 -120s-44 -103 -44 -155c0 -80.667 27 -144.667 81 -192s156 -108.333 306 -183c6.66699 -2.66699 13.667 -6 21 -10c114.667 -58.667 202 -117.334 262 -176.001s90 -138.667 90 -240
c0.666992 -101.333 -35 -189 -107 -263c-72 -73.333 -166 -116 -282 -128c62.667 22 111.667 63 147 123s53 120 53 180s-8 108 -24 144c-16.667 35.333 -48.667 72 -96 110s-124.666 84.667 -231.999 140c-4 2.66699 -7.33301 4.33398 -10 5.00098s-5.66699 2 -9 4
s-6.33301 3.66699 -9 5c-128.667 65.333 -223.334 127.333 -284.001 186s-91 132 -91 220z" />
    <glyph glyph-name="nine" unicode="9" 
d="M492 543c-104 -0.666992 -197 35.666 -279 108.999s-123 172 -123 296s37 231.333 111 322s167.333 145.334 280 164.001c-57.333 -28.667 -103.333 -84 -138 -166s-52 -167.333 -52 -256c0 -120 30 -213.333 90 -280s144.667 -99.667 254 -99c35.333 0 66 2.66699 92 8
c-52.667 -65.333 -131 -98 -235 -98zM838 870c0 303.333 -71 492.001 -213 566.001c125.333 -18 228.666 -83 309.999 -195s122 -241.667 122 -389c-0.666992 -224 -79.667 -419.333 -237 -586s-351.333 -264.334 -582 -293.001c182.667 67.333 328.334 176.333 437.001 327
s163 340.667 163 570z" />
    <glyph glyph-name="colon" unicode=":" horiz-adv-x="442" 
d="M221 799c-36.667 0 -68.334 13.333 -95.001 40s-40 58 -40 94s13.333 67.667 40 95s58.334 41 95.001 41s68.334 -13.667 95.001 -41s40 -59 40 -95s-13.333 -67.333 -40 -94s-58.334 -40 -95.001 -40zM356 106c0 -36.667 -13.333 -68 -40 -94s-58.334 -39 -95.001 -39
s-68.334 13 -95.001 39s-40 57.333 -40 94c0 37.333 13.333 69.333 40 96s58.334 40 95.001 40s68.334 -13.333 95.001 -40s40 -58.667 40 -96z" />
    <glyph glyph-name="semicolon" unicode=";" horiz-adv-x="442" 
d="M221 799c-36.667 0 -68.334 13.333 -95.001 40s-40 58 -40 94s13.333 67.667 40 95s58.334 41 95.001 41s68.334 -13.667 95.001 -41s40 -59 40 -95s-13.333 -67.333 -40 -94s-58.334 -40 -95.001 -40zM164 -41c0 19.333 -10.6689 44 -32.002 74s-32 60.667 -32 92
s11.333 58.333 34 81s51.334 34 86.001 34s63.334 -13 86.001 -39s34 -63 34 -111s-27.333 -110 -82 -186s-114.667 -137 -180 -183c57.333 114.667 86 194 86 238z" />
    <glyph glyph-name="less" unicode="&#x3c;" horiz-adv-x="1234" 
d="M1008 156l-850 395v53l850 395v-47l-621 -374l621 -375v-47z" />
    <glyph glyph-name="equal" unicode="=" 
d="M1010 356h-852v127h852v-127zM1010 672h-852v127h852v-127z" />
    <glyph glyph-name="greater" unicode="&#x3e;" horiz-adv-x="1234" 
d="M1008 551l-850 -395v47l618 375l-618 374v47l850 -395v-53z" />
    <glyph glyph-name="question" unicode="?" horiz-adv-x="964" 
d="M612 106c0 -36.667 -13.333 -68 -40 -94s-58.334 -39 -95.001 -39s-68 13 -94 39s-39 57.333 -39 94c0 37.333 13 69.333 39 96s57.333 40 94 40s68.334 -13.333 95.001 -40s40 -58.667 40 -96zM377 1124c0 -37.333 -12.3311 -69 -36.998 -95
c-24.667 -25.333 -56.334 -38 -95.001 -38s-71.334 13 -98.001 39c-26 26 -38.667 61 -38 105c-0.666992 90 52.333 165 159 225c-27.333 -38 -44.333 -70.667 -51 -98c52 2.66699 91.667 -10.333 119 -39s41 -61.667 41 -99zM690.002 1114
c0 90 -26.999 162.335 -80.999 217.002s-126.667 82 -218 82c45.333 18 89.666 27 132.999 27c102.667 0 189 -31 259 -93s105 -146 105 -252s-46.333 -210.333 -139 -313l-117 -126c-96.667 -102 -147.667 -197 -153 -285c0 67.333 11 135.666 33 204.999
s46.333 128.333 73 177s50.667 105.667 72 171c22 65.333 33 128.666 33 189.999z" />
    <glyph glyph-name="at" unicode="@" horiz-adv-x="1572" 
d="M1407 592c0 125.333 -31.332 244.332 -93.999 356.999s-150 192.334 -262 239.001c139.333 -34 252.666 -104 339.999 -210s131 -227.667 131 -365s-34.667 -250 -104 -338s-147.333 -148.333 -234 -181c56 32.667 107 92.667 153 180c46.667 86.667 70 192.667 70 318z
M988.001 40.999c-38.667 0 -64.002 9.66602 -76.002 28.999c-11.333 18.667 -13 54 -5 106s27 159 57 321l70 396c-1.33301 22 -6 40.333 -14 55c36 -7.33301 64.667 -12 86 -14c28.667 2.66699 61.334 9.33398 98.001 20.001c-99.333 -524 -146.666 -808.667 -141.999 -854
c2 -20 12.667 -30 32 -30c8 0 14.667 0.666992 20 2c-45.333 -20.667 -87.333 -31 -126 -31zM423.999 347.998c0 158.667 52 299.666 156 422.999s227.333 185 370 185c-102.667 -30 -186.667 -101.667 -252 -215s-98 -233.333 -98 -360c0 -68.667 9.33301 -123.667 28 -165
s42.667 -62 72 -62c44 -0.666992 99.333 40 166 122c-74 -157.333 -152.333 -235.666 -235 -234.999c-60 0 -109.667 27 -149 81c-38.667 54 -58 129.333 -58 226zM781.999 -227.003c-87.333 0 -174.334 16.002 -261.001 48.002c-183.333 68 -315 186.667 -395 356
c-41.333 89.333 -62.333 186 -63 290c0 198 68.333 368.667 205 512s308.667 221 516 233c-165.333 -31.333 -298.666 -120 -399.999 -266c-101.333 -146.667 -151.666 -311.334 -150.999 -494.001c-0.666992 -182.667 57 -331 173 -445s260 -171 432 -171
c140 0 263.333 28.667 370 86c-46.667 -45.333 -107.334 -81.333 -182.001 -108s-156 -40.334 -244 -41.001z" />
    <glyph glyph-name="A" unicode="A" horiz-adv-x="1439" 
d="M301 186c-0.666992 -53.333 9 -93.333 29 -120s56 -48.667 108 -66h-438c45.333 18.667 82 38 110 58s62.333 58.667 103 116s81.667 134.666 123 231.999c-23.333 -93.333 -35 -166.666 -35 -219.999zM1438 0h-520.001c42 12 72.333 27.667 91 47s27.667 46 27 80
c0 57.333 -34.667 185 -104 383h-565l24 65h516l-266 766l25 82h151l342 -958c60.667 -173.333 108.334 -288 143.001 -344s80 -96.333 136 -121z" />
    <glyph glyph-name="B" unicode="B" horiz-adv-x="1294" 
d="M926 1079c0 91.333 -26 165.67 -78 223.003s-121 93.666 -207 108.999c328 0 492 -111.333 492 -334c0.666992 -88.667 -31 -161.334 -95 -218.001s-141 -94.667 -231 -114c117.333 -16.667 216 -54.334 296 -113.001s120 -138.334 120 -239.001
c0 -128.667 -50 -225.667 -150 -291s-226.333 -99.333 -379 -102c206 40.667 309.333 164.334 310 371.001c0 95.333 -31.333 175 -94 239s-142 102.333 -238 115c84 15.333 147.333 55.333 190 120s64 142.667 64 234zM455 0.00390625l-381 0.000976562
c69.333 22 115.666 51.667 138.999 89s35 100.666 35 189.999v856c0 87.333 -11.667 150 -35 188s-69.666 68 -138.999 90h381v-1413z" />
    <glyph glyph-name="C" unicode="C" horiz-adv-x="1437" 
d="M1354 381l-29 -326.001c-66.667 -35.333 -171 -61.333 -313 -78c109.333 38.667 223.333 173.334 342 404.001zM1305 1360l1.99902 -311c-114.667 216 -226 343.667 -334 383c140.667 -14 251.334 -38 332.001 -72zM93.999 680.999
c0 192.667 61.999 356.331 185.999 490.998s273 218.334 447 251.001c-117.333 -46 -213.666 -135 -288.999 -267c-74.667 -132 -112 -284 -112 -456s42.667 -326 128 -462c85.333 -136.667 193.333 -222.667 324 -258c-200 20.667 -364 94.334 -492 221.001
s-192 286.667 -192 480z" />
    <glyph glyph-name="D" unicode="D" horiz-adv-x="1591" 
d="M1284 718c0 178.667 -46.668 331.998 -140.001 459.998c-93.333 126.667 -227 203.667 -401 231c220 -21.333 399.667 -80.333 539 -177c74 -51.333 131.333 -119.666 172 -204.999s61.334 -184 62.001 -296c0 -221.333 -71.333 -393.666 -214 -516.999
s-331 -194 -565 -212c176 46.667 311.333 133 406 259c94 126 141 278.333 141 457zM445.999 -0.00195312h-376c70.667 23.333 117 53 139 89s33 99.333 33 190v856c0 90 -11 152.667 -33 188s-68.333 65.333 -139 90h376v-1413z" />
    <glyph glyph-name="E" unicode="E" horiz-adv-x="1183" 
d="M1016 1413l-0.000976562 -302.999c-57.333 83.333 -109.666 148.666 -156.999 195.999s-103 83 -167 107h324zM923.999 891.001v-330c-86 82 -188.667 138 -308 168c127.333 28.667 230 82.667 308 162zM1075 0.000976562l-354 0.000976562
c80.667 31.333 147 69.666 199 114.999s117.333 118.333 196 219zM448.999 0.00195312l-377 -0.000976562c69.333 23.333 115 53 137 89s33 99.333 33 190v856c0 87.333 -11 149.333 -33 186s-67.667 67.334 -137 92.001h377v-1413z" />
    <glyph glyph-name="F" unicode="F" horiz-adv-x="1146" 
d="M969 887v-330c-87.333 82 -190.666 137.333 -309.999 166c127.333 27.333 230.666 82 309.999 164zM1051 1413v-302.999c-62.667 90 -120 156.667 -172 200s-115.667 77.666 -191 102.999h363zM238 279.001v856c0 87.333 -11.333 149.333 -34 186s-68 67.334 -136 92.001
h376v-1134c0 -84.667 14.667 -146.334 44 -185.001s83 -70 161 -94h-581c69.333 23.333 115 53 137 89s33 99.333 33 190z" />
    <glyph glyph-name="G" unicode="G" horiz-adv-x="1540" 
d="M1335 1364v-296.999c-125.333 210 -241.333 333.667 -348 371c138 -12.667 254 -37.334 348 -74.001zM1180 428.001c0 82 -11.333 141.667 -34 179s-67.334 68.333 -134.001 93h495c-52.667 -26 -87.667 -55.333 -105 -88s-26 -94 -26 -184v-375
c-126.667 -36.667 -233.667 -59.667 -321 -69c54.667 26 96.334 58.667 125.001 98v346zM94 688.001c0 202 64.666 368.001 193.999 498.001s283.333 210.333 462 241c-120 -42 -220.667 -129.333 -302 -262s-122 -288.334 -122 -467.001s46.333 -336.667 139 -474
s209.334 -220.333 350.001 -249c-208.667 6.66699 -381 76.667 -517 210s-204 301 -204 503z" />
    <glyph glyph-name="H" unicode="H" horiz-adv-x="1654" 
d="M1139 690h-617v68h617v-68zM1208 1141c0 87.333 -10.668 148.333 -32.001 183c-22 34.667 -68.667 64.334 -140 89.001h547c-69.333 -24.667 -115 -54.334 -137 -89.001s-33 -95.667 -33 -183v-871c0 -86 11 -146.667 33 -182s67.667 -64.666 137 -87.999h-547
c70.667 23.333 117.334 52.666 140.001 87.999c22 35.333 32.667 96 32 182v871zM241.999 270l0.000976562 870.999c0 87.333 -11 148.333 -33 183s-67.667 64.334 -137 89.001h546c-69.333 -24.667 -115 -54.334 -137 -89.001s-32.667 -95.667 -32 -183v-871
c0.666992 -86 11.667 -146.667 33 -182s66.666 -64.666 135.999 -87.999h-546c69.333 23.333 115 52.333 137 87s33 95.667 33 183z" />
    <glyph glyph-name="I" unicode="I" horiz-adv-x="692" 
d="M242 270l0.000976562 871c0 87.333 -11 148.333 -33 183s-67.667 64.334 -137 89.001h546c-69.333 -24.667 -115 -54.334 -137 -89.001s-32.667 -95.667 -32 -183v-871c0.666992 -87.333 11.667 -148.333 33 -183s66.666 -63.667 135.999 -87h-546
c69.333 23.333 115 52.333 137 87s33 95.667 33 183z" />
    <glyph glyph-name="J" unicode="J" horiz-adv-x="686" 
d="M242 -20v1155c0 91.333 -10.667 154.333 -32 189s-67.333 64.334 -138 89.001h546c-69.333 -24.667 -115 -54.667 -137 -90s-32.667 -98 -32 -188v-1074c0 -146.667 -44.667 -258.334 -134 -335.001c-70.667 -61.333 -153 -111.333 -247 -150c116 79.333 174 214 174 404
z" />
    <glyph glyph-name="K" unicode="K" horiz-adv-x="1476" 
d="M895 1413h539c-81.333 -30 -155.333 -65.333 -222 -106s-149 -109 -247 -205l-25 -22c-10.667 -9.33301 -19 -17 -25 -23c67.333 90 101 166.667 101 230s-40.333 105.333 -121 126zM1063 98c0 35.333 -44.332 118.001 -132.999 248.001l-285 412l137 147l375 -536
c95.333 -136.667 163.666 -225.667 204.999 -267s94 -75.333 158 -102h-572c32 9.33301 53.333 16.666 64 21.999c34.667 16 51.667 41.333 51 76zM238.001 270.001v871.003c0 83.333 -12 143.666 -36 180.999s-68.667 67.666 -134 90.999h546
c-69.333 -24.667 -115 -54.334 -137 -89.001s-33 -95.667 -33 -183v-871c0 -83.333 12 -143.333 36 -180s68.667 -66.667 134 -90h-546c69.333 23.333 115 52.333 137 87s33 95.667 33 183z" />
    <glyph glyph-name="L" unicode="L" horiz-adv-x="1130" 
d="M1049 0h-349c72.667 27.333 137.667 65 195 113s122.333 121.667 195 221zM444 0h-376c68 23.333 113.333 53 136 89s34 96.333 34 181v871c0 84.667 -11.333 145 -34 181s-68 66.333 -136 91h546c-68 -24.667 -113.333 -55 -136 -91s-34 -96.333 -34 -181v-1141z" />
    <glyph glyph-name="M" unicode="M" horiz-adv-x="1935" 
d="M266 360c0 -89.333 12.332 -165.334 36.999 -228.001s73.334 -106.667 146.001 -132h-424c72.667 26 123.667 77.333 153 154c30 76.667 61.333 227.334 94 452.001c-4 -74.667 -6 -156.667 -6 -246zM1522 209.999c0 56 -2 118.331 -6 186.998l-60 883l37 133h330
c-58.667 -27.333 -98.667 -56.666 -120 -87.999s-32 -76.666 -32 -135.999s1.33301 -105.333 4 -138l43 -629c10.667 -164 24.667 -268 42 -312s61.333 -80.667 132 -110h-520c60 23.333 100 50 120 80c20 30.667 30 74 30 130zM1012 -6.00293l-76 -0.000976562l-549 1128
c-45.333 92 -85.333 155.333 -120 190s-86 68.334 -154 101.001h385l581 -1225z" />
    <glyph glyph-name="N" unicode="N" horiz-adv-x="1628" 
d="M1180 1413l405 -0.00195312c-65.333 -30 -112.333 -87.667 -141 -173s-48 -225.666 -58 -420.999c-10.667 198 -30 340.333 -58 427s-77.333 142.334 -148 167.001zM494 -0.00195312h-433c46.667 20.667 82 46.667 106 78c50 65.333 83.667 238 101 518
c12 -275.333 49.333 -448 112 -518c26.667 -30 64.667 -56 114 -78zM1395 -16.002h-62l-966 1163c-60 72.667 -115 130 -165 172s-107 73.333 -171 94h381l983 -1171v-258z" />
    <glyph glyph-name="O" unicode="O" horiz-adv-x="1671" 
d="M86 698c0 184 60.667 343.332 182 477.999s266 217.667 434 249c-121.333 -42 -215.333 -129 -282 -261s-100 -284.667 -100 -458s35.667 -328.666 107 -465.999c72 -138 164.667 -224 278 -258c-172 30 -318.333 110.667 -439 242c-120 132 -180 290 -180 474z
M1585 697.999c0 -184.667 -60.3311 -342.669 -180.998 -474.002s-266.334 -212 -437.001 -242c120 42 213.667 129.667 281 263c68 133.333 102 287 102 461c0 174.667 -33.333 327.334 -100 458.001s-160.334 217.667 -281.001 261c166.667 -32.667 311 -115.667 433 -249
s183 -292.666 183 -477.999z" />
    <glyph glyph-name="P" unicode="P" horiz-adv-x="1245" 
d="M588 655c116 0 207.667 36 275 108s101.333 162.333 102 271c0 220 -109.333 345.667 -328 377c178.667 0 312.667 -29.333 402 -88s134.333 -152.334 135 -281.001c0 -77.333 -17.333 -144 -52 -200c-60 -97.333 -167.667 -158.666 -323 -183.999
c-66.667 -10 -137 -11 -211 -3zM238 279v856.001c0 90 -11 152.667 -33 188s-67.667 65.333 -137 90h376v-1134c0 -84.667 14.667 -146.334 44 -185.001s83 -70 161 -94h-581c69.333 23.333 115 53 137 89s33 99.333 33 190z" />
    <glyph glyph-name="Q" unicode="Q" horiz-adv-x="1671" 
d="M2036 -494c-90 0 -230.333 35.333 -421 106s-421 189.667 -691 357c42 8 84.333 23 127 45c260.667 -120 478 -207 652 -261s331.333 -81 472 -81s245.667 12.333 315 37c-98 -76.667 -175.667 -129.667 -233 -159s-131 -44 -221 -44zM1585 724
c0.666992 -175.333 -47.001 -323.001 -143.001 -443.001s-216.333 -204 -361 -252c178.667 118.667 268.334 344 269.001 676c0 166 -37.333 318.333 -112 457s-170 228 -286 268c170.667 -28.667 318.667 -109.667 444 -243s188.333 -287.666 189 -462.999zM85.999 697.999
c0 189.333 62.666 351.333 187.999 486c125.333 135.333 273 217.333 443 246c-117.333 -38.667 -213 -128 -287 -268s-111 -296.667 -111 -470c-0.666992 -173.333 32.333 -324 99 -452s168.334 -214.667 305.001 -260c-176 24.667 -326.333 103 -451 235
c-124 132.667 -186 293.667 -186 483z" />
    <glyph glyph-name="R" unicode="R" horiz-adv-x="1349" 
d="M1266 0c-117.333 0 -192.997 8.66602 -226.997 25.999c-33.333 17.333 -79.333 71.333 -138 162l-293 451c101.333 10 184.666 48.333 249.999 115s98 160.667 98 282c0 91.333 -25 172.333 -75 243c-50.667 70 -125.334 114 -224.001 132
c170.667 -8 299 -39.667 385 -95s129 -146.666 129 -273.999c0 -105.333 -33 -189.333 -99 -252s-151 -106.334 -255 -131.001l309 -430c60 -84.667 106.667 -139.667 140 -165s79.666 -46.666 138.999 -63.999h-139zM238.003 278.999v856c0 90 -11 152.667 -33 188
s-67.667 65.333 -137 90h376v-1134c0 -90 11 -153 33 -189s67.667 -66 137 -90h-546c69.333 23.333 115 53 137 89s33 99.333 33 190z" />
    <glyph glyph-name="S" unicode="S" horiz-adv-x="1050" 
d="M905 1358l0.000976562 -301c-84.667 221.333 -188.334 348.333 -311.001 381c86 -4 189.667 -30.667 311 -80zM121.001 55l0.000976562 359.001c45.333 -122.667 92.333 -219.334 141 -290.001c49.333 -70 113 -120.333 191 -151
c-136.667 10.667 -247.334 38 -332.001 82zM805.002 266.001c0 62.667 -23.666 121.334 -70.999 176.001s-104.333 102 -171 142l-199 124c-66 41.333 -122.667 92.666 -170 153.999s-71 134.666 -71 219.999s31.667 160.666 95 225.999s144.333 106.666 243 123.999
c-52 -19.333 -94.667 -53.666 -128 -102.999c-33.333 -50 -50 -103.667 -50 -161s23.333 -112.666 70 -165.999c47.333 -52.667 104.666 -98.667 171.999 -138l203 -122c68 -42.667 125.333 -95.667 172 -159c47.333 -63.333 71 -139.333 71 -228s-32 -167.667 -96 -237
s-148 -114.666 -252 -135.999c56 22.667 100.333 60 133 112s49 109.333 49 172z" />
    <glyph glyph-name="T" unicode="T" horiz-adv-x="1339" 
d="M1231 1413l39 -319c-65.333 94 -124 164.333 -176 211s-111.667 82.667 -179 108h316zM72 1094l37 319h315c-66.667 -26 -126 -63 -178 -111s-110 -117.333 -174 -208zM567 1413h205v-1134c0 -90 11 -153 33 -189s68.333 -66 139 -90h-547
c69.333 23.333 115.333 53 138 89c22 36 32.667 99.333 32 190v1134z" />
    <glyph glyph-name="U" unicode="U" horiz-adv-x="1585" 
d="M1268 389v589.999c0 192 -21.667 313.333 -65 364c-22.667 27.333 -57 50.666 -103 69.999h420c-48 -19.333 -83 -41.666 -105 -66.999c-42 -49.333 -63 -171.666 -63 -366.999v-596c0 -88.667 -24 -165.667 -72 -231s-115.667 -114 -203 -146
c127.333 74 191 201.667 191 383zM242 382.999v758c0 84.667 -11.333 145 -34 181s-68.667 66.333 -138 91h546c-68 -24.667 -113.333 -55 -136 -91s-34 -96.333 -34 -181v-787c0 -94 34 -178.667 102 -254s161 -118.333 279 -129h-18c-170 0.666992 -307 37 -411 109
s-156 173 -156 303z" />
    <glyph glyph-name="V" unicode="V" horiz-adv-x="1441" 
d="M999 1413h439.002c-66.667 -32.667 -125.334 -88.667 -176.001 -168s-118.334 -228.666 -203.001 -447.999c28 121.333 49 209.666 63 264.999s21 109 21 161c-0.666992 104.667 -48.667 168 -144 190zM401.002 1288c0 -61.333 38.333 -198.335 115 -411.002l291 -814
l-25 -73h-153l-330 903c-74 200.667 -128 331 -162 391s-79.667 103 -137 129h520c-44 -13.333 -74.667 -28.666 -92 -45.999s-26.333 -43.666 -27 -78.999z" />
    <glyph glyph-name="W" unicode="W" horiz-adv-x="2086" 
d="M1802 1234c0 40 -12.333 76.668 -37 110.001s-66.334 56.333 -125.001 69h449c-40.667 -20.667 -77 -49.667 -109 -87c-68 -78 -157.333 -266.667 -268 -566c6.66699 31.333 17.334 75.666 32.001 132.999s25 100.333 31 129s12 61 18 97c6 36.667 9 75 9 115z
M1503 74.001c-8 -24 -16 -51.999 -24 -83.999h-140l-321 1128c-26 90.667 -51.667 156.667 -77 198s-66 73.666 -122 96.999h490c-44 -18 -75.333 -36.333 -94 -55c-38.667 -39.333 -34 -141 14 -305zM705 57.002l-21 -66.998h-152l-251 872c-44 148 -79 256.667 -105 326
s-51 119.666 -75 150.999s-56.333 56 -97 74h516c-38 -16.667 -66 -34.334 -84 -53.001c-17.333 -18.667 -26 -51.334 -26 -98.001c0 -45.333 29.333 -180.666 88 -405.999z" />
    <glyph glyph-name="X" unicode="X" horiz-adv-x="1417" 
d="M1022 1282c0 70.667 -37.667 114.333 -113 131h459c-68 -23.333 -132 -61.333 -192 -114s-147.667 -154.667 -263 -306c72.667 122 109 218.333 109 289zM356 136.999c0 -60 41 -105.667 123 -137h-477c46.667 22 80 38.667 100 50c20 10.667 49.667 32 89 64
c70 56 166 166 288 330c-82 -144.667 -123 -247 -123 -307zM967 126.999c0 30 -15.665 69.0029 -46.998 117.003l-623 919c-44 63.333 -86 113.666 -126 150.999s-89.333 70.333 -148 99h571c-84.667 -32.667 -127 -71 -127 -115c0 -38 16.333 -81 49 -129l623 -919
c49.333 -72.667 90.666 -125.334 123.999 -158.001s80.666 -63.334 141.999 -92.001h-569c46.667 20 80 38.667 100 56s30.333 41 31 71z" />
    <glyph glyph-name="Y" unicode="Y" horiz-adv-x="1314" 
d="M881 1413h421.999c-59.333 -18 -119.666 -59.333 -180.999 -124s-134.333 -179.667 -219 -345c62.667 172 94 283.333 94 334c0.666992 70.667 -38 115.667 -116 135zM558.999 279l0.000976562 338.999l-209 383c-80.667 148.667 -144.334 249.334 -191.001 302.001
c-47.333 52 -97 88.667 -149 110h514c-35.333 -15.333 -61 -29.333 -77 -42s-23.667 -30.667 -23 -54c0 -53.333 43 -157 129 -311l213 -381v-346c0 -86 11 -147.667 33 -185s67.667 -68.666 137 -93.999h-547c68 26 113.333 57.667 136 95s34 98.666 34 183.999z" />
    <glyph glyph-name="Z" unicode="Z" horiz-adv-x="1171" 
d="M82 1110l39.002 303h379c-82.667 -24.667 -155.334 -59.667 -218.001 -105s-129.334 -111.333 -200.001 -198zM1081 0h-399c88.667 28.667 166.667 68 234 118s135.333 122.667 204 218zM59.002 0v23l832 1390h205v-16l-830 -1397h-207z" />
    <glyph glyph-name="bracketleft" unicode="[" horiz-adv-x="776" 
d="M627 -287h-424v1835h424v-57h-244v-1722h244v-56z" />
    <glyph glyph-name="backslash" unicode="\" horiz-adv-x="813" 
d="M803 -29h-90l-703 1469h90z" />
    <glyph glyph-name="bracketright" unicode="]" horiz-adv-x="776" 
d="M571 -287h-421v56h243v1722h-243v57h421v-1835z" />
    <glyph glyph-name="asciicircum" unicode="^" horiz-adv-x="874" 
d="M725 928l-289 356l-286 -356l219 485h131z" />
    <glyph glyph-name="underscore" unicode="_" horiz-adv-x="942" 
d="M866 -309h-790v141h790v-141z" />
    <glyph glyph-name="grave" unicode="`" horiz-adv-x="520" 
d="M57 1413h209c27.333 -91.333 75.333 -174.666 144 -249.999c-153.333 57.333 -271 140.666 -353 249.999z" />
    <glyph glyph-name="a" unicode="a" horiz-adv-x="1060" 
d="M293 1022c-27.333 -23.333 -48.668 -55.334 -64.001 -96.001c65.333 -18 98.333 -54.333 99 -109c0 -31.333 -10.667 -56.666 -32 -75.999s-46.666 -29 -75.999 -29s-55 10 -77 30s-33 47.667 -33 83s17.333 71 52 107c34 36 77.667 66 131 90zM79.998 229.999
c0 76 29.3311 142.334 87.998 199.001s153 98.667 283 126c-53.333 -24.667 -95.666 -60.334 -126.999 -107.001c-32 -46.667 -48 -101 -48 -163c0 -63.333 20 -113 60 -149s91 -54 153 -54c34.667 0 72.334 9.66699 113.001 29c-82 -90 -163.667 -135 -245 -135
c-80.667 0 -147 23 -199 69c-52 47.333 -78 109 -78 185zM671.996 158l-0.000976562 374c-10.667 12 -38.667 26.333 -84 43l84 15v174c0 84.667 -20 152.667 -60 204s-98 82.333 -174 93c46.667 5.33301 80.334 8 101.001 8c103.333 0 183.666 -26 240.999 -78
s86 -127.667 86 -227v-516c0 -78.667 17.667 -129.667 53 -153c20.667 -12.667 39 -21 55 -25s41.667 -9 77 -15c-27.333 -18 -63.666 -35 -108.999 -51c-107.333 -37.333 -184 -30 -230 22c-26.667 29.333 -40 73.333 -40 132z" />
    <glyph glyph-name="b" unicode="b" horiz-adv-x="1261" 
d="M608 963c-49.333 0 -96.333 -9.00195 -141 -27.002c91.333 88.667 182.666 133 273.999 133c124.667 0 229 -44 313 -132c84 -87.333 126 -207.666 126 -360.999s-42.667 -280.666 -128 -381.999s-190.333 -168.666 -315 -201.999c72.667 44 129.334 112.667 170.001 206
s61 204.666 61 333.999s-34 233.333 -102 312c-69.333 79.333 -155.333 119 -258 119zM174 1176c0 90 -10.667 150.334 -32 181.001s-66.666 57 -135.999 79c126.667 13.333 249 44.666 367 93.999v-1464c45.333 -38 95.666 -66 150.999 -84
c-173.333 12 -290 28.333 -350 49v1145z" />
    <glyph glyph-name="c" unicode="c" horiz-adv-x="952" 
d="M780 760c-35.333 0 -65.002 11.667 -89.002 35s-36 52 -36 86c0 52.667 24 92.667 72 120c-15.333 26 -34.333 47.333 -57 64c66.667 -8 122.334 -27.333 167.001 -58c44.667 -31.333 67 -68.333 67 -111s-12 -76 -36 -100c-23.333 -24 -52.666 -36 -87.999 -36z
M542.998 -25c-130 0.666992 -238.332 48.333 -324.999 143s-130 221.334 -130 380.001s39 288 117 388s180.333 160.333 307 181c-70.667 -34 -124.667 -93.333 -162 -178s-56.333 -181.667 -57 -291c-0.666992 -152.667 35.666 -269.334 108.999 -350.001
s162 -121 266 -121s194.667 32.667 272 98c-26 -58.667 -73 -115 -141 -169s-153.333 -81 -256 -81z" />
    <glyph glyph-name="d" unicode="d" horiz-adv-x="1257" 
d="M82 484c0 157.333 48.667 288.333 146 393c97.333 105.333 218.666 167.333 363.999 186c-91.333 -30 -165.333 -92.333 -222 -187s-85 -207.667 -85 -339s34.667 -238 104 -320s159.333 -123 270 -123c34.667 0.666992 72.334 7.66699 113.001 21
c-74 -92.667 -161.333 -139.334 -262 -140.001c-117.333 0.666992 -218 46.334 -302 137.001s-126 214.667 -126 372zM883 1176c0 90 -11 150.333 -33 181s-70.333 57 -145 79c132.667 13.333 258.667 44.666 378 93.999v-1163c0 -114 9 -187 27 -219s65 -59.333 141 -82
c-114 -15.333 -236 -45.666 -366 -90.999l-2 973c-30 48 -72.333 85.667 -127 113c52 -4 94.333 -8.66699 127 -14v129z" />
    <glyph glyph-name="e" unicode="e" horiz-adv-x="1069" 
d="M969 596h-568c217.333 34 344.333 56 381 66c0 221.333 -46.333 354.333 -139 399c217.333 -18 326 -152.667 326 -404v-61zM557 -25c-136.667 -0.666992 -248.665 46.335 -335.998 141.002s-131 218.667 -131 372s39 281.333 117 384s175 165 291 187
c-60 -36.667 -108.667 -98.334 -146 -185.001s-56.333 -194 -57 -322c0 -128 34 -231.333 102 -310c67.333 -78.667 155.666 -118.334 264.999 -119.001c109.333 0 211 37.667 305 113c-27.333 -61.333 -76.333 -120 -147 -176s-158.334 -84.333 -263.001 -85z" />
    <glyph glyph-name="f" unicode="f" horiz-adv-x="647" 
d="M799 1382c0 -36 -10.6689 -64.668 -32.002 -86.001s-47.666 -32 -78.999 -32s-58 10 -80 30s-33 45.333 -33 76c0 52 25.333 90.333 76 115c-6.66699 16.667 -19 30.334 -37 41.001c54.667 -4 99.334 -20 134.001 -48s51.667 -60 51 -96zM210.998 269.999l0.00195312 717
h-191v57h191v93c0 118.667 29.667 210.667 89 276s134.666 103 225.999 113c-78 -39.333 -116.667 -155.333 -116 -348v-134h229v-57h-229v-717c0 -84.667 10.667 -144.667 32 -180s66.666 -65.333 135.999 -90h-512c57.333 23.333 96 53.333 116 90s29.667 96.667 29 180z
" />
    <glyph glyph-name="g" unicode="g" horiz-adv-x="1056" 
d="M1057 963l-336 84l336 94v-178zM25 -260c0 52 21.332 94.334 63.999 127.001c43.333 32.667 102.333 51.667 177 57c-48 -31.333 -72 -81 -72 -149s33 -127.333 99 -178c65.333 -50.667 150 -76.667 254 -78c-31.333 -6.66699 -60.666 -10.334 -87.999 -11.001
c-114.667 0 -215.667 20.667 -303 62s-131 98 -131 170zM714.999 700.001c0 74 -12 145.33 -36 213.997s-56.333 117.667 -97 147c92.667 -16.667 172 -56.667 238 -120c66.667 -63.333 100 -141.666 100 -234.999s-32.667 -173.666 -98 -240.999
s-148.333 -107.666 -249 -120.999c45.333 26 80.333 73.333 105 142s37 140 37 214zM304.999 704.998c0 -75.333 12.333 -147.668 37 -217.001s61 -117.333 109 -144c-98 10.667 -181 48 -249 112s-102 146 -102 246s32 182.333 96 247s146 103.334 246 116.001
c-44 -27.333 -78 -75.333 -102 -144s-35.667 -140.667 -35 -216zM261.999 255.996c0 -58.667 48 -88.667 144 -90l299 -10c228 -8 342 -92.667 342 -254c0.666992 -80.667 -30.333 -151 -93 -211s-141.667 -105.667 -237 -137c122.667 54.667 184 142 184 262
c0 52 -17.333 90.667 -52 116s-91 39.666 -169 42.999l-301 11c-155.333 6.66699 -233.333 57 -234 151c0 70.667 42.333 130.667 127 180c-6.66699 -19.333 -10 -39.666 -10 -60.999z" />
    <glyph glyph-name="h" unicode="h" horiz-adv-x="1290" 
d="M889 262l-0.000976562 459.001c0.666992 75.333 -19.666 133.666 -60.999 174.999s-92 62 -152 62s-121.333 -8.66699 -184 -26c96.667 91.333 190.667 137 282 137s165.333 -28.333 222 -85s85 -147 85 -271v-416c0 -102.667 8.66699 -172 26 -208
s57.333 -65.667 120 -89h-484c60 23.333 99.333 52 118 86s28 92.667 28 176zM210.999 262.001l-0.00195312 905c0 90 -9.66699 151 -29 183s-65.666 60.667 -138.999 86c96.667 8 219.667 39.333 369 94v-1268c0 -86 9.33301 -145.667 28 -179s57.667 -61 117 -83h-489
c58.667 23.333 97.334 52 116.001 86s27.667 92.667 27 176z" />
    <glyph glyph-name="i" unicode="i" horiz-adv-x="618" 
d="M219 258v463c0 88.667 -10.333 148 -31 178s-67 57.333 -139 82c118.667 12 239.667 41.333 363 88v-811c0 -83.333 9.33301 -141.333 28 -174s57.667 -60.667 117 -84h-483c60 23.333 99.333 51.333 118 84s27.667 90.667 27 174zM432 1330
c0 -33.333 -12 -61.666 -36 -84.999s-52.667 -35 -86 -35s-61.666 11.667 -84.999 35s-35 51.666 -35 84.999s11.667 62 35 86s51.666 36 84.999 36s62 -12 86 -36s36 -52.667 36 -86z" />
    <glyph glyph-name="j" unicode="j" horiz-adv-x="604" 
d="M213 -80v801.001c0 88.667 -10 148 -30 178s-66 57.333 -138 82c121.333 12 244.333 41.333 369 88v-1057c0 -240.667 -118.333 -408.667 -355 -504c46.667 36.667 84 91.667 112 165s42 155.666 42 246.999zM432 1330c0 -33.333 -12 -61.666 -36 -84.999
s-52.667 -35 -86 -35s-61.666 11.667 -84.999 35s-35 51.666 -35 84.999s11.667 62 35 86s51.666 36 84.999 36s62 -12 86 -36s36 -52.667 36 -86z" />
    <glyph glyph-name="k" unicode="k" horiz-adv-x="1202" 
d="M645 1044h547.001c-125.333 -26 -284.333 -117.333 -477 -274c49.333 52 73.666 101.333 72.999 148c0 58 -47.667 100 -143 126zM1073 0c-54.667 0 -94.6689 1 -120.002 3s-52.666 12.667 -81.999 32c-30 19.333 -53 39 -69 59s-47 61 -93 123l-238 313l135 129
l346 -428c61.333 -75.333 113.333 -128.333 156 -159s88.334 -54.667 137.001 -72h-172zM208.999 258v918c0 90 -10 150 -30 180s-66 56.667 -138 80c124 13.333 247 44.666 369 93.999v-1272c0 -82 9.33301 -139.667 28 -173s57 -61.666 115 -84.999h-490
c60 23.333 99.333 51.333 118 84s28 90.667 28 174z" />
    <glyph glyph-name="l" unicode="l" horiz-adv-x="612" 
d="M209 258v918c0 90 -10 150 -30 180s-66 56.667 -138 80c124 13.333 247 44.666 369 93.999v-1272c0 -82 9.33301 -139.667 28 -173s57 -61.666 115 -84.999h-490c60 23.333 99.333 51.333 118 84s28 90.667 28 174z" />
    <glyph glyph-name="m" unicode="m" horiz-adv-x="1888" 
d="M860 721c0 76.667 -18.334 134.667 -55.001 174s-87.334 59 -152.001 59c-36.667 0 -93.334 -9.33301 -170.001 -28c100.667 95.333 198.334 143 293.001 143s164.667 -34.333 210 -103s68.333 -155 69 -259v-445c-0.666992 -83.333 8.33301 -142 27 -176
s57.334 -62.667 116.001 -86h-481c58.667 23.333 97.334 52 116.001 86s27.667 92.667 27 176v459zM214.999 258l0.000976562 463c0 88.667 -10 147.667 -30 177s-66 55 -138 77c121.333 18 241.666 49.333 360.999 94v-811c0 -83.333 9.33301 -141.333 28 -174
s57.667 -60.667 117 -84h-483c60 23.333 99.333 51.333 118 84s27.667 90.667 27 174zM1499 262l-0.000976562 459.001c0 76.667 -18 134.667 -54 174s-87.667 59 -155 59c-40.667 0 -102.667 -10 -186 -30c40.667 33.333 73 58.666 97 75.999
c66 46.667 132.667 69.667 200 69c88.667 0 159.334 -29.333 212.001 -88s79 -150 79 -274v-445c0 -83.333 9.33301 -142 28 -176s57.667 -62.667 117 -86h-483c60 23.333 99.333 52 118 86s27.667 92.667 27 176z" />
    <glyph glyph-name="n" unicode="n" horiz-adv-x="1269" 
d="M215 258l0.00195312 428c0 106.667 -9.33301 176 -28 208s-65.334 61 -140.001 87c117.333 12 237.666 41.333 360.999 88v-811c0 -83.333 9.33301 -141.333 28 -174s57.667 -60.667 117 -84h-483c60 23.333 99.333 51.333 118 84s27.667 90.667 27 174zM885.002 262
l-0.00292969 459.002c-0.666992 75.333 -21 132.666 -61 171.999s-90 59 -150 59s-124.333 -10.667 -193 -32c100 100 196.333 150 289 150s167.334 -28.667 224.001 -86c56.667 -56.667 85 -146.334 85 -269.001v-453c0 -83.333 9.33301 -142 28 -176
s57.334 -62.667 116.001 -86h-482c58.667 23.333 97.334 52 116.001 86s28 92.667 28 176z" />
    <glyph glyph-name="o" unicode="o" horiz-adv-x="1253" 
d="M88 524c0 132.667 40.668 247.999 122.001 345.999s182.666 160.333 303.999 187c-64 -40.667 -114 -111 -150 -211s-54 -207.333 -54 -322s16.667 -222.667 50 -324c34.667 -101.333 84.667 -171.333 150 -210c-121.333 26 -222 88.333 -302 187
s-120 214.334 -120 347.001zM942.001 523.999c0 113.333 -18.3311 220.332 -54.998 320.999s-87.334 171.334 -152.001 212.001c124 -27.333 226.333 -87.666 307 -180.999s121 -208 121 -344s-40.333 -254 -121 -354c-80.667 -99.333 -181.667 -162 -303 -188
c65.333 39.333 115.666 110 150.999 212c34.667 101.333 52 208.666 52 321.999z" />
    <glyph glyph-name="p" unicode="p" horiz-adv-x="1304" 
d="M985 530c0 130 -35 234.667 -105 314s-153.667 119 -251 119c-50.667 0 -101.334 -9.66699 -152.001 -29c84.667 90 177.667 135 279 135c126.667 0 231.334 -46 314.001 -138s124 -211.333 124 -358c0 -84.667 -15 -163 -45 -235
c-52.667 -127.333 -142.667 -225 -270 -293c-54.667 -28.667 -110 -47.667 -166 -57c76.667 36.667 141 103.667 193 201c52.667 97.333 79 211 79 341zM188 682c0 109.333 -9.33398 180 -28.001 212c-19.333 32 -66.666 61.667 -141.999 89
c132.667 13.333 255.667 42 369 86v-993c35.333 -39.333 83 -70.666 143 -93.999c-78 2.66699 -125.667 5.33398 -143 8.00098v-172c-0.666992 -100 9 -167 29 -201s66.333 -63.333 139 -88h-512c60 23.333 99.333 51.666 118 84.999s27.667 91.666 27 174.999v893z" />
    <glyph glyph-name="q" unicode="q" horiz-adv-x="1273" 
d="M497 -25c-110 0.666992 -206.668 45.001 -290.001 133.001s-125 210 -125 366s45.667 286.667 137 392c91.333 106.667 208 173 350 199c-83.333 -34 -151.666 -98.333 -204.999 -193s-80.333 -207.334 -81 -338.001c0 -130.667 34 -233.667 102 -309
s155.333 -112.666 262 -111.999c41.333 -0.666992 81 6.66602 119 21.999c-69.333 -106.667 -159 -160 -269 -160zM1081 -192.999c0 -87.333 9.66895 -149.669 29.002 -187.002s58.333 -67.666 117 -90.999h-512c69.333 23.333 114.666 53.333 135.999 90
s32 99.334 32 188.001v1137c-28.667 58.667 -72.334 97.667 -131.001 117c70.667 -6.66699 132.667 -15.667 186 -27c34 0 81.667 11.667 143 35v-1262z" />
    <glyph glyph-name="r" unicode="r" horiz-adv-x="782" 
d="M215 262l-0.00195312 443.002c0 90 -9.66699 151 -29 183s-65.666 61 -138.999 87c86 5.33301 207 36.666 363 93.999v-807c0 -86 10.667 -145.667 32 -179s67.333 -61 138 -83h-508c58.667 23.333 97.334 51.666 116.001 84.999s27.667 92.333 27 177zM646.998 815.002
c-35.333 0 -65.335 12.333 -90.002 37s-37 54.667 -37 90s12.333 65.333 37 90s54.334 37 89.001 37s64.334 -12.333 89.001 -37s37 -54.667 37 -90s-12 -65.333 -36 -90s-53.667 -37 -89 -37z" />
    <glyph glyph-name="s" unicode="s" horiz-adv-x="888" 
d="M729 1010l-0.000976562 -280.999c-15.333 72.667 -47.333 142 -96 208c-49.333 66 -98.666 108 -147.999 126c84.667 -6.66699 166 -24.334 244 -53.001zM97.999 55.001c-1.33301 64 -2 160.333 -2 289c69.333 -192.667 163 -312.667 281 -360
c-112 9.33301 -205 33 -279 71zM654.999 188.001c0 80.667 -64.998 152.336 -194.998 215.003l-162 82c-54 28.667 -100 67.667 -138 117c-38.667 49.333 -58 108.666 -58 177.999s23.667 128.666 71 177.999s108.333 82.333 183 99c-36.667 -18 -66 -43.667 -88 -77
c-21.333 -33.333 -32 -71.333 -32 -114c0.666992 -74 67 -143 199 -207c55.333 -26 110.666 -53.667 165.999 -83s102.333 -68.333 141 -117c38.667 -50 58 -111 58 -183s-26 -135 -78 -189c-52.667 -54 -121.334 -87.667 -206.001 -101
c92.667 39.333 139 106.666 139 201.999z" />
    <glyph glyph-name="t" unicode="t" horiz-adv-x="702" 
d="M195 309l0.000976562 678h-158c90 50 160 97 210 141s98 99.333 144 166v-250h279v-57h-279v-698c0 -63.333 15 -111 45 -143s71.667 -48 125 -48s106.666 11.667 159.999 35c-27.333 -38 -65.333 -72.333 -114 -103s-109 -46 -181 -46
c-153.333 0 -230.333 108.333 -231 325z" />
    <glyph glyph-name="u" unicode="u" horiz-adv-x="1216" 
d="M842 721c0 88.667 -10 148 -30 178s-66 58 -138 84c116 9.33301 236 38 360 86v-709c0 -109.333 9.66699 -180 29 -212s66.333 -59.333 141 -82c-125.333 -16.667 -246 -47 -362 -91v746zM199 309l0.000976562 375c0 108 -9.33301 178 -28 210
s-65.334 61.667 -140.001 89c113.333 9.33301 234 38 362 86v-762c0.666992 -66.667 21 -118 61 -154c40 -36.667 89 -55 147 -55s107.667 9 149 27c-82 -100 -169 -150 -261 -150c-193.333 0 -290 111.333 -290 334z" />
    <glyph glyph-name="v" unicode="v" horiz-adv-x="1171" 
d="M868 860c0 98 -45.667 159.332 -137 183.999h426c-128.667 -52 -242 -211 -340 -477c34 152.667 51 250.334 51 293.001zM616 -12.001l-129.001 -0.000976562l-247 680c-50.667 138.667 -89.667 230 -117 274s-65.666 78 -114.999 102h488
c-44 -17.333 -75 -34.666 -93 -51.999s-27 -46 -27 -86s19.333 -116 58 -228l213 -608z" />
    <glyph glyph-name="w" unicode="w" horiz-adv-x="1798" 
d="M1491 868c-0.666992 42.667 -11 78.667 -31 108s-55.333 52 -106 68h426c-126.667 -52 -240 -211 -340 -477c34 158 51 258.333 51 301zM608 -10l-129.001 -0.000976562l-133 377l-130 373c-29.333 82.667 -58.666 147.667 -87.999 195s-69.333 83.666 -120 108.999h488
c-44 -17.333 -74.667 -34.666 -92 -51.999s-26 -40.666 -26 -69.999s5.33301 -65.333 16 -108c10 -42.667 26.667 -98.667 50 -168l60 -175l74 -207c32.667 -90 53.667 -149.333 63 -178zM1243 -10.001l-127.001 -0.000976562l-227 643
c-53.333 150 -93.666 249.667 -120.999 299s-66.333 86.666 -117 111.999h467c-39.333 -17.333 -67 -34.666 -83 -51.999c-15.333 -17.333 -23 -45.666 -23 -84.999s19.667 -116.333 59 -231l203 -592z" />
    <glyph glyph-name="x" unicode="x" horiz-adv-x="1210" 
d="M844 928c0 47.333 -36.333 86.002 -109 116.002h451c-88.667 -38 -153 -71.333 -193 -100c-66.667 -50.667 -143.667 -130.334 -231 -239.001c54.667 87.333 82 161.666 82 222.999zM500 0.00195312l-488 0.000976562c50.667 22.667 92 42.667 124 60
s77 50.666 135 99.999s115 109.333 171 180c-50.667 -94.667 -76 -161.334 -76 -200.001s10.667 -68 32 -88c21.333 -19.333 55.333 -36.666 102 -51.999zM793 112.003c0 26.667 -28.001 76.667 -84.001 150l-242 330c-109.333 150 -189.333 253 -240 309
s-110 103.667 -178 143h541c-48 -22.667 -81.667 -41.334 -101 -56.001s-29 -34.667 -29 -60s20 -65 60 -119l449 -606c39.333 -53.333 76 -94.333 110 -123s77 -55.334 129 -80.001h-540c45.333 18.667 77.333 35.334 96 50.001s28.334 35.334 29.001 62.001z" />
    <glyph glyph-name="y" unicode="y" horiz-adv-x="1142" 
d="M733 1044l406 -0.000976562c-40.667 -19.333 -74 -39.666 -100 -60.999c-26 -22 -60.333 -73 -103 -153s-91 -192.667 -145 -338c54 188 81 311.333 81 370s-10.667 101 -32 127c-22 26 -57.667 44.333 -107 55zM365 -381.001l-0.000976562 -12c20.667 4 39 10 55 18
c16 8.66699 36.667 29 62 61s49 74 71 126c-61.333 -202 -148.666 -303.333 -261.999 -304c-48 0 -85.333 12.333 -112 37s-40 53.667 -40 87s10.333 61.333 31 84s49 34 85 34s63.333 -12.333 82 -37s28 -56 28 -94zM382.999 909.999
c0 -38.667 11.666 -91.999 34.999 -159.999l223 -680l-25 -70h-139l-274 776c-34 93.333 -62.667 156.666 -86 189.999s-57.666 59.333 -102.999 78h488c-44 -16 -74.667 -32.667 -92 -50s-26.333 -45.333 -27 -84z" />
    <glyph glyph-name="z" unicode="z" horiz-adv-x="997" 
d="M94 758l37 286h311c-95.333 -32 -211.333 -127.333 -348 -286zM911 0h-316.999c62.667 26 119.667 59.667 171 101s113.666 105.333 186.999 192zM55.001 0v2l656 1042h209v-4l-650 -1040h-215z" />
    <glyph glyph-name="braceleft" unicode="{" horiz-adv-x="647" 
d="M428 1169l-0.000976562 -158.999c0 -158.667 -82.667 -275.667 -248 -351c27.333 19.333 45 47 53 83s12.333 85 13 147v274c0 135.333 29.333 230 88 284s150 86.333 274 97c-65.333 -18 -111.666 -56.333 -138.999 -115s-41 -145.334 -41 -260.001zM427.999 240.001
l0.000976562 -159.999c0 -114.667 13.667 -201.334 41 -260.001s73.666 -97 138.999 -115c-124 10.667 -215.333 43 -274 97s-88 148 -88 282v172l2 113c0 114.667 -22.667 187.667 -68 219c165.333 -72 248 -188 248 -348z" />
    <glyph glyph-name="bar" unicode="|" horiz-adv-x="417" 
d="M248 -236h-78v1780h78v-1780z" />
    <glyph glyph-name="braceright" unicode="}" horiz-adv-x="647" 
d="M389 1163l-0.000976562 -274c0 -62 4 -111 12 -147s26 -63.667 54 -83c-165.333 75.333 -248 192.333 -248 351v159c0 115.333 -13.667 202.333 -41 261s-73.666 96.667 -138.999 114c124 -10.667 215.333 -43 274 -97s88 -148.667 88 -284zM388.999 84
c0 -134 -29.332 -228.001 -87.999 -282.001s-150 -86.333 -274 -97c65.333 18 111.666 56.333 138.999 115s41 145.334 41 260.001v160c0 160 82.667 276 248 348c-45.333 -31.333 -68 -104.333 -68 -219l2 -113v-172z" />
    <glyph glyph-name="asciitilde" unicode="~" 
d="M774 479c-45.333 -0.666992 -118.666 18.333 -219.999 57s-171.333 58 -210 58c-66.667 0 -136.334 -23.333 -209.001 -70c66.667 128.667 153.334 193 260.001 193c49.333 0.666992 126.666 -18.333 231.999 -57s177 -58 215 -58c61.333 0 123.333 25.333 186 76
c-69.333 -132.667 -154 -199 -254 -199z" />
    <glyph glyph-name="exclamdown" unicode="&#xa1;" horiz-adv-x="524" 
d="M131 937c0 36 13 67 39 93s56.667 39 92 39s66 -13 92 -39s39 -57 39 -93s-13 -66.667 -39 -92s-56.667 -38 -92 -38s-66 12.667 -92 38s-39 56 -39 92zM381 -276c0 -41.333 -12.001 -72.666 -36.001 -93.999s-52 -32 -84 -32s-59.667 10.667 -83 32
s-35 52.666 -35 93.999s17.667 178.333 53 411c34.667 233.333 56.667 408 66 524c9.33301 -116 31.333 -290.667 66 -524c34.667 -232.667 52.334 -369.667 53.001 -411z" />
    <glyph glyph-name="cent" unicode="&#xa2;" horiz-adv-x="1030" 
d="M934 1058c0 -42.667 -11.6699 -75.998 -35.0029 -99.998s-52.666 -36 -87.999 -36s-65 11.333 -89 34s-36 51.334 -36 86.001c0 53.333 24 93.666 72 120.999c-15.333 26 -34.666 47.333 -57.999 64c66.667 -8.66699 122.334 -28.334 167.001 -59.001
s67 -67.334 67 -110.001zM615.997 -171.998l-51.001 -0.000976562v309c-128.667 2 -235 50.333 -319 145s-126.333 221 -127 379c0 158 39 287 117 387s180.333 160.333 307 181c-71.333 -34 -125.666 -93.333 -162.999 -178s-56 -183.667 -56 -297s22 -207.666 66 -282.999
s102.333 -128 175 -158v1231h51v-1247c23.333 -5.33301 50 -8 80 -8c105.333 0 197 32.667 275 98c-23.333 -53.333 -65.333 -106 -126 -158s-137 -82 -229 -90v-311z" />
    <glyph glyph-name="sterling" unicode="&#xa3;" horiz-adv-x="1110" 
d="M850 1118c-35.333 0 -64.333 11 -87 33s-34 49 -34 81c0.666992 32 9.66699 59 27 81s39 35 65 39c-18 34 -46.667 61.333 -86 82c75.333 -12 134 -34.667 176 -68s63 -71.333 63 -114c0 -44 -11.667 -77.333 -35 -100c-24 -22.667 -53.667 -34 -89 -34zM782 0
l-686 0.000976562v8c64 49.333 116 103.333 156 162h534c70.667 0 118 6.66699 142 20c23.333 13.333 42.333 41.333 57 84c1.33301 -10.667 2 -32.334 2 -65.001c0 -139.333 -68.333 -209 -205 -209zM426 1108c0 -82 22.666 -197.332 67.999 -345.999h354v-60h-342
c10.667 -50.667 16 -99 16 -145c0 -98 -78.333 -212 -235 -342c43.333 70 65 137.667 65 203s-18.333 160 -55 284h-184v60h163c-27.333 96.667 -40.666 180 -39.999 250c0 117.333 38 213.333 114 288s162 118.667 258 132c-57.333 -16.667 -102 -54.334 -134 -113.001
s-48 -129 -48 -211z" />
    <glyph glyph-name="currency" unicode="&#xa4;" 
d="M585 307c110 0 203 40.332 279 120.999s113.667 176.334 113 287.001c0 111.333 -38 207 -114 287c-76.667 80 -169.667 120 -279 120s-202.333 -40 -279 -120s-115 -176 -115 -288s38.333 -207.667 115 -287c76.667 -80 170 -120 280 -120zM584 206.999
c-124 0 -225 34.667 -303 104l-113 -116l-105 104l115 117c-68 80 -102 182 -102 306s34 222.667 102 296l-115 110l105 107l113 -113c82 66.667 182.667 100 302 100s222 -33.333 308 -100l110 113l103 -107l-111 -110c66 -74 99 -173.333 99 -298s-33 -226 -99 -304
l111 -117l-103 -104l-110 116c-80.667 -69.333 -183 -104 -307 -104z" />
    <glyph glyph-name="yen" unicode="&#xa5;" 
d="M766 1413l412 0.00195312c-57.333 -16.667 -116 -57.334 -176 -122.001s-132.667 -180.334 -218 -347.001c66.667 160 100 271.667 100 335s-39.333 108 -118 134zM956 610.002h-267.998v-170h268v-63h-268v-98c0 -86 11.333 -148.333 34 -187s68 -69.334 136 -92.001
h-539c68 23.333 113.667 54.333 137 93c22.667 38.667 33.667 100.667 33 186v98h-280v63h280v170h-280v64h254c-158.667 319.333 -261.334 516.666 -308.001 591.999c-47.333 75.333 -102.333 124.333 -165 147h491c-35.333 -12.667 -60.333 -25.667 -75 -39
s-22.334 -35.666 -23.001 -66.999c0 -31.333 39.667 -131.666 119 -300.999l155 -330l299 -2v-64z" />
    <glyph glyph-name="brokenbar" unicode="&#xa6;" horiz-adv-x="417" 
d="M248 788h-78v756h78v-756zM248 -238h-78v756h78v-756z" />
    <glyph glyph-name="section" unicode="&#xa7;" horiz-adv-x="1052" 
d="M708 1106c-36 0 -66.332 11 -90.999 33c-23.333 22 -35 49 -35 81s10.333 60 31 84c21.333 23.333 47.666 36.333 78.999 39c-30 40.667 -58 68.667 -84 84c69.333 -13.333 124 -37.333 164 -72c40 -34 60.667 -71.667 62 -113c0 -41.333 -12 -74.333 -36 -99
s-54 -37 -90 -37zM147.001 49c0 44.667 13.668 79.668 41.001 105.001c28 25.333 60.667 38.333 98 39c37.333 0 68.666 -12.333 93.999 -37s38 -54.667 38 -90c-0.666992 -70 -35 -116 -103 -138c20.667 -32.667 55 -64.667 103 -96
c-80.667 13.333 -146 41.666 -196 84.999s-75 87.333 -75 132zM223.002 764.001c0 -64 36.334 -115.999 109.001 -155.999l375 -202c118.667 -64 178 -151 178 -261c0 -74 -31 -142.333 -93 -205s-133.333 -100 -214 -112c49.333 16.667 88.666 46 117.999 88
c29.333 42.667 43.666 86.667 42.999 132c0 45.333 -10.667 81 -32 107c-22 24.667 -56.333 50 -103 76l-373 213c-101.333 57.333 -151.666 134.666 -150.999 231.999c0 48 15.667 90 47 126s73 62.333 125 79c-19.333 -38 -29 -77 -29 -117zM160.003 1164
c0 64 29.334 122.666 88.001 175.999s131 85.333 217 96c-46.667 -18 -84.667 -46.333 -114 -85s-44 -80 -44 -124c0 -75.333 57.333 -140.333 172 -195l320 -160c113.333 -56 170 -133 170 -231c-0.666992 -49.333 -18.334 -92.666 -53.001 -129.999
s-78.667 -64.333 -132 -81c23.333 31.333 35 70.333 35 117c0.666992 62.667 -36 113 -110 151l-355 183c-73.333 38 -124 78.333 -152 121c-28 44 -42 98 -42 162z" />
    <glyph glyph-name="dieresis" unicode="&#xa8;" horiz-adv-x="608" 
d="M150 1210c-30 0 -56 11 -78 33s-33 48 -33 78s11 55.667 33 77s48 32 78 32c29.333 0 54.666 -10.667 75.999 -32s32 -47 32 -77s-10.667 -56 -32 -78s-46.666 -33 -75.999 -33zM459 1210c-30 0 -56 11 -78 33s-33 48 -33 78s11 55.667 33 77s48 32 78 32
s55.667 -10.667 77 -32s32 -47 32 -77s-10.667 -56 -32 -78s-47 -33 -77 -33z" />
    <glyph glyph-name="copyright" unicode="&#xa9;" horiz-adv-x="1630" 
d="M1141 510l-4 -174c-56 -36.667 -120.333 -62.667 -193 -78c28.667 12.667 52 29.667 70 51c18.667 22 34.667 43 48 63l28 45c12 20 29 51 51 93zM1112 907l-31 58c-50.667 94 -110.667 155.333 -180 184c70.667 -5.33301 141 -22.333 211 -51v-191zM397 689
c0 126 40.332 230.333 120.999 313s175 131 283 145c-64.667 -22 -117.667 -75 -159 -159s-62 -181.333 -62 -292s22 -206.334 66 -287.001c44 -81.333 108.667 -133.666 194 -156.999c-121.333 2.66699 -225.666 44.667 -312.999 126c-86.667 81.333 -130 185 -130 311z
M814.999 45c170.667 0 314.665 65.668 431.998 197.001s176 285.666 176 462.999c0 178 -58.667 331.667 -176 461s-261.666 194 -432.999 194s-315.666 -65 -432.999 -195s-176 -283.667 -176 -461s59 -331.333 177 -462c118 -131.333 262.333 -197 433 -197z
M814.997 -24.999c-199.333 0 -367.333 71 -504 213c-136.667 141.333 -205 313.333 -205 516s68.333 375 205 517s304.667 213 504 213s367 -71 503 -213s204 -314 204 -516s-68 -374.333 -204 -517s-303.667 -213.667 -503 -213z" />
    <glyph glyph-name="ordfeminine" unicode="&#xaa;" horiz-adv-x="751" 
d="M162 1178c-24 0 -43.333 6.66699 -58 20s-22 33 -22 59s13.333 51 40 75s61.667 43 105 57c-18 -18 -32.333 -36 -43 -54c39.333 -15.333 59.333 -43.333 60 -84c0 -22 -7.66699 -39.667 -23 -53s-35 -20 -59 -20zM684 528h-618v76h618v-76zM236 715
c-48 0 -88.668 15 -122.001 45s-50 70.333 -50 121s16.667 94 50 130c34.667 36 104 63 208 81c-68 -31.333 -102.333 -86 -103 -164c0 -44 11 -77 33 -99c34 -34 81 -42 141 -24c-39.333 -60 -91.666 -90 -156.999 -90zM429.999 834l0.00195312 242.998
c-8 8 -21.667 15.667 -41 23l41 4v86c0 56 -11 103.333 -33 142s-52.667 64.334 -92 77.001c24.667 2.66699 43.667 4 57 4c75.333 0 130.666 -18.333 165.999 -55s53.333 -94.667 54 -174v-293c0 -43.333 8.66699 -72.333 26 -87s46.666 -24.667 87.999 -30
c-6.66699 -9.33301 -27.667 -20.666 -63 -33.999s-68.333 -20.333 -99 -21c-30.667 0 -56 10.333 -76 31c-18.667 20.667 -28 48.667 -28 84z" />
    <glyph glyph-name="guillemotleft" unicode="&#xab;" horiz-adv-x="946" 
d="M555 195l-489 348l489 350l-266 -350zM676 543l192 -281l-385 281l385 282z" />
    <glyph glyph-name="logicalnot" unicode="&#xac;" 
d="M1010 174h-133v381h-719v127h852v-508z" />
    <glyph glyph-name="registered" unicode="&#xae;" horiz-adv-x="1630" 
d="M993 907c0 132.667 -53 212.666 -159 239.999c100 -0.666992 176 -21.667 228 -63s78.333 -101 79 -179c0 -117.333 -65.667 -195.666 -197 -234.999l186 -299l74 -109h-176l-237 412c64 6.66699 113.667 30 149 70s53 94.333 53 163zM567 513.999v379
c0 83.333 -3.33301 139.333 -10 168s-27.667 58 -63 88h217v-629c0 -96.667 3 -156 9 -178s27.333 -48.667 64 -80h-290c35.333 27.333 56.333 53 63 77s10 82.333 10 175zM815 48.999c170.667 0 314.333 64.998 431 194.998s175 283.667 175 461
c0 176.667 -58.333 329.667 -175 459s-260.667 194 -432 194s-315.333 -64.667 -432 -194s-175 -282.666 -175 -459.999s58.667 -330.666 176 -459.999c117.333 -130 261.333 -195 432 -195zM814.999 -25.0029c-199.333 0 -367 71 -503 213
c-136 141.333 -204 313.333 -204 516s68 375 204 517s303.667 213 503 213s367 -71 503 -213s204 -314 204 -516s-68 -374.333 -204 -517s-303.667 -213.667 -503 -213z" />
    <glyph glyph-name="macron" unicode="&#xaf;" horiz-adv-x="606" 
d="M551 1241h-496v98h496v-98z" />
    <glyph glyph-name="degree" unicode="&#xb0;" horiz-adv-x="837" 
d="M74 1106c0 78 26.667 147.331 80 207.998s118.666 98.334 195.999 113.001c-48 -22 -85.333 -62.333 -112 -121s-39.667 -126.667 -39 -204c-0.666992 -76.667 12.333 -143.667 39 -201s64 -97 112 -119c-77.333 16.667 -142.666 55.334 -195.999 116.001
s-80 130 -80 208zM637 1102c0 78 -14 146.667 -42 206s-66.667 100 -116 122c80.667 -15.333 148.334 -53.333 203.001 -114s82 -130.667 82 -210s-27.333 -149.333 -82 -210s-121.667 -98.667 -201 -114c49.333 20.667 87.666 59.667 114.999 117s41 125 41 203z" />
    <glyph glyph-name="plusminus" unicode="&#xb1;" 
d="M1010 0h-852v127h852v-127zM649 172h-131v373h-360v127h360v372h131v-372h361v-127h-361v-373z" />
    <glyph glyph-name="twosuperior" unicode="&#xb2;" horiz-adv-x="806" 
d="M330 1213c0 -28.667 -10.001 -53.666 -30.001 -74.999s-46.667 -32 -80 -32s-61 11 -83 33s-33 49.667 -33 83s15.333 66.666 46 99.999s71.334 59 122.001 77c-22.667 -19.333 -42.334 -43.333 -59.001 -72c32.667 -1.33301 60.334 -13.333 83.001 -36
s34 -48.667 34 -78zM701.999 532.001h-598v39l84 97h514v-136zM409.999 1425c88.667 0 160.667 -20.666 216 -61.999s83 -97 83 -167c0 -44 -22 -90 -66 -138c-44.667 -48 -89.667 -88 -135 -120c-45.333 -30.667 -85 -56 -119 -76s-52.667 -31.333 -56 -34
s-9.33301 -6.33398 -18 -11.001l50 55c105.333 118.667 158.333 232 159 340c0 53.333 -14 99.333 -42 138s-72.667 61.667 -134 69c19.333 4 40 6 62 6z" />
    <glyph glyph-name="threesuperior" unicode="&#xb3;" horiz-adv-x="806" 
d="M214 766c30.667 0 56.001 -9.66797 76.001 -29.001s29.667 -42.333 29 -69c0 -48 -20.333 -83 -61 -105c4 -9.33301 19 -23.666 45 -42.999c-62.667 4 -111.334 18.667 -146.001 44c-35.333 25.333 -53 55.333 -53 90s10.667 62 32 82s47.333 30 78 30zM119.001 1270v143
h547v-10l-111 -133h-436zM719.001 833.999c-0.666992 -81.333 -35 -151.668 -103 -211.001c-68 -58.667 -145.667 -93 -233 -103c46.667 16 85 47.333 115 94s45 103.334 45 170.001s-24 117 -72 151c-48 34.667 -100 52 -156 52l115 133c83.333 -8 152.333 -37.333 207 -88
s82 -116.667 82 -198z" />
    <glyph glyph-name="acute" unicode="&#xb4;" horiz-adv-x="608" 
d="M326 1413h209c-82 -109.333 -199.667 -192.666 -353 -249.999c68.667 75.333 116.667 158.666 144 249.999z" />
    <glyph glyph-name="mu" unicode="&#xb5;" horiz-adv-x="1216" 
d="M199 -381v1102c0 88.667 -10 148 -30 178s-66 58 -138 84c113.333 9.33301 234 38 362 86v-766c0 -68.667 17.667 -122.334 53 -161.001c34.667 -38.667 80.667 -58 138 -58s118.666 15 183.999 45c-74 -102.667 -171 -154 -291 -154c-87.333 0 -153.333 25.333 -198 76
c2.66699 -69.333 24.334 -155.333 65.001 -258c41.333 -102 62 -165 62 -189s-9.33301 -46 -28 -66s-38.667 -30 -60 -30s-39.333 2 -54 6s-29 14.667 -43 32c-14.667 18.667 -22 43 -22 73zM842 721.001c0 88.667 -10 148.001 -30 178.001s-66 58 -138 84
c116 9.33301 236 38 360 86v-745c0 -88 10.333 -147.333 31 -178s67 -57.334 139 -80.001c-124 -20 -244.667 -50.333 -362 -91v746z" />
    <glyph glyph-name="paragraph" unicode="&#xb6;" horiz-adv-x="1077" 
d="M885 -471h-92v1796h-289v88h471c-60 -34 -90 -81.667 -90 -143v-1741zM453 -471h-93v1276c-108 0 -189.333 29.333 -244 88s-81.667 128.667 -81 210c0 81.333 26.333 153.333 79 216s126.667 94 222 94h117v-1884z" />
    <glyph glyph-name="periodcentered" unicode="&#xb7;" horiz-adv-x="466" 
d="M98 729c0 36.667 13.3301 68 39.9971 94s58.334 39 95.001 39s68.334 -13 95.001 -39s40.334 -57.333 41.001 -94c0 -36.667 -13.333 -68.334 -40 -95.001c-26 -26.667 -57.667 -40 -95 -40s-69.333 13.333 -96 40s-40 58.334 -40 95.001z" />
    <glyph glyph-name="cedilla" unicode="&#xb8;" horiz-adv-x="499" 
d="M241 -492c-59.333 0 -113 22.6699 -161 68.0029c48 -13.333 90.333 -20 127 -20c70.667 0 106 30 106 90c0 37.333 -17.667 65.333 -53 84s-75 28.667 -119 30l191 211l-53 -135c46 -6.66699 87 -24.334 123 -53.001s54 -69.334 54 -122.001
s-20.667 -91.334 -62 -116.001c-42.667 -24.667 -93.667 -37 -153 -37z" />
    <glyph glyph-name="onesuperior" unicode="&#xb9;" horiz-adv-x="806" 
d="M326 784l0.000976562 452.999c-57.333 -15.333 -119 -25 -185 -29c68.667 16.667 146.667 58.334 234 125.001l121 101v-650c0 -83.333 8 -140.666 24 -171.999s51 -58 105 -80h-437c57.333 22 94.666 48.667 111.999 80s26 88.666 26 171.999z" />
    <glyph glyph-name="ordmasculine" unicode="&#xba;" horiz-adv-x="821" 
d="M735 535h-651v69h651v-69zM61 1068c0 88 27 163 81 225s122.667 100 206 114c-76.667 -48 -115 -162 -115 -342s37 -294.667 111 -344c-83.333 15.333 -151.333 55 -204 119s-79 140 -79 228zM760 1068c0 -88 -27 -164.332 -81 -228.999s-122 -104.667 -204 -120
c71.333 49.333 107 164.333 107 345s-38.333 295 -115 343c83.333 -12.667 153 -50.334 209 -113.001s84 -138 84 -226z" />
    <glyph glyph-name="guillemotright" unicode="&#xbb;" horiz-adv-x="946" 
d="M883 543l-490 -348l264 348l-264 350zM465 543l-387 -281l194 281l-194 282z" />
    <glyph glyph-name="onequarter" unicode="&#xbc;" horiz-adv-x="1986" 
d="M1151 238v10.001l57 78h365v473l76 98h88v-571h127v-88h-127c0 -83.333 6.33301 -138.333 19 -165s45.667 -51 99 -73h-411c58.667 19.333 94.667 42.666 108 69.999s20.333 83.333 21 168h-422zM489 784.001c0.666992 -83.333 9.00098 -140.668 25.001 -172.001
s50.667 -58 104 -80h-436c57.333 22 94.666 48.667 111.999 80s25.666 88.666 24.999 171.999v453c-57.333 -15.333 -118.666 -25 -183.999 -29c68.667 16.667 146.667 58.334 234 125.001c26 20.667 66 54.334 120 101.001v-650zM551.001 -96.001h-100l985 1595h100z" />
    <glyph glyph-name="onehalf" unicode="&#xbd;" horiz-adv-x="1986" 
d="M1501 681c0 -29.333 -10.002 -54.665 -30.002 -75.998c-19.333 -21.333 -45.666 -32 -78.999 -32s-61 11 -83 33s-33 49.667 -33 83c0 34 15 67.667 45 101s71 58.666 123 75.999c-23.333 -18.667 -43.333 -42.334 -60 -71.001
c32.667 -1.33301 60.334 -13.333 83.001 -36s34 -48.667 34 -78zM1874 0.000976562h-598v39l84 96h514v-135zM1581 893.001c88.667 -0.666992 160.669 -21.667 216.002 -63s83 -96.666 83 -165.999c0 -44 -22 -90.333 -66 -139s-88.667 -88.334 -134 -119.001l-164 -105
c-14 -6.66699 -23.667 -12 -29 -16l49 55c105.333 118.667 158.666 232 159.999 340c0 53.333 -14 99.333 -42 138s-72.667 61.667 -134 69c19.333 4 39.666 6 60.999 6zM489 784.001c0.666992 -83.333 9.00098 -140.668 25.001 -172.001s50.667 -58 104 -80h-436
c57.333 22 94.666 48.667 111.999 80s25.666 88.666 24.999 171.999v453c-57.333 -15.333 -118.666 -25 -183.999 -29c68.667 16.667 146.667 58.334 234 125.001c26 20.667 66 54.334 120 101.001v-650zM551.001 -96.001h-100l985 1595h100z" />
    <glyph glyph-name="threequarters" unicode="&#xbe;" horiz-adv-x="1988" 
d="M214 766c30.667 0 56.001 -9.66797 76.001 -29.001s29.667 -42.333 29 -69c0 -48 -20.333 -83 -61 -105c4 -9.33301 19 -23.666 45 -42.999c-62.667 4 -111.334 18.667 -146.001 44c-35.333 25.333 -53 55.333 -53 90s10.667 62 32 82s47.333 30 78 30zM119.001 1270v143
h547v-10l-111 -133h-436zM719.001 833.999c-0.666992 -81.333 -35 -151.668 -103 -211.001c-68 -58.667 -145.667 -93 -233 -103c46.667 16 85 47.333 115 94s45 103.334 45 170.001s-24 117 -72 151c-48 34.667 -100 52 -156 52l115 133c83.333 -8 152.333 -37.333 207 -88
s82 -116.667 82 -198zM1577 237.997l-421.998 0.000976562v10l57 78h365v473l76 98h88v-571h127v-88h-127c-0.666992 -83.333 5.66602 -138.333 18.999 -165s46.666 -51 99.999 -73h-412c60 19.333 96.667 42.666 110 69.999c12.667 27.333 19 83.333 19 168z
M555.003 -96.002h-100l985 1595h100z" />
    <glyph glyph-name="questiondown" unicode="&#xbf;" horiz-adv-x="964" 
d="M395 932c0 36.667 13.332 68 39.999 94s58.334 39 95.001 39c36 0 67.333 -13 94 -39s40 -57.333 40 -94s-13 -68.334 -39 -95.001s-57.667 -40 -95 -40s-69 13.333 -95 40c-26.667 26.667 -40 58.334 -40 95.001zM630.999 -85c0 37.333 12.333 68.667 37 94
s56.334 38 95.001 38s71 -13 97 -39s39 -60.667 39 -104c0 -90.667 -53.333 -166 -160 -226c27.333 38 44.666 71 51.999 99c-52 -2.66699 -91.667 10.333 -119 39s-41 61.667 -41 99zM223.999 -307.999c-70 62 -105.002 146 -105.002 252s46.667 210 140 312l117 126
c96 100.667 146.667 196 152 286c0 -68 -10.667 -136.667 -32 -206s-45.666 -128 -72.999 -176c-70.667 -128.667 -106 -243.667 -106 -345s27 -179.333 81 -234s126.667 -82 218 -82c-45.333 -18 -89.666 -26.667 -132.999 -26c-102.667 0 -189 31 -259 93z" />
    <glyph glyph-name="Agrave" unicode="&#xc0;" horiz-adv-x="1439" 
d="M537 1772h208c27.333 -91.333 75.333 -174.666 144 -249.999c-152.667 57.333 -270 140.666 -352 249.999zM301 186c-0.666992 -53.333 9 -93.333 29 -120s56 -48.667 108 -66h-438c45.333 18.667 82 38 110 58s62.333 58.667 103 116s81.667 134.666 123 231.999
c-23.333 -93.333 -35 -166.666 -35 -219.999zM1438 0h-520.001c42 12 72.333 27.667 91 47s27.667 46 27 80c0 57.333 -34.667 185 -104 383h-565l24 65h516l-266 766l25 82h151l342 -958c60.667 -173.333 108.334 -288 143.001 -344s80 -96.333 136 -121z" />
    <glyph glyph-name="Aacute" unicode="&#xc1;" horiz-adv-x="1439" 
d="M786 1790h209c-82 -109.333 -199.333 -192.666 -352 -249.999c68 75.333 115.667 158.666 143 249.999zM301 186c-0.666992 -53.333 9 -93.333 29 -120s56 -48.667 108 -66h-438c45.333 18.667 82 38 110 58s62.333 58.667 103 116s81.667 134.666 123 231.999
c-23.333 -93.333 -35 -166.666 -35 -219.999zM1438 0h-520.001c42 12 72.333 27.667 91 47s27.667 46 27 80c0 57.333 -34.667 185 -104 383h-565l24 65h516l-266 766l25 82h151l342 -958c60.667 -173.333 108.334 -288 143.001 -344s80 -96.333 136 -121z" />
    <glyph glyph-name="Acircumflex" unicode="&#xc2;" horiz-adv-x="1439" 
d="M985 1540l-244 125l-239 -125l180 250h119zM301 186c-0.666992 -53.333 9 -93.333 29 -120s56 -48.667 108 -66h-438c45.333 18.667 82 38 110 58s62.333 58.667 103 116s81.667 134.666 123 231.999c-23.333 -93.333 -35 -166.666 -35 -219.999zM1438 0h-520.001
c42 12 72.333 27.667 91 47s27.667 46 27 80c0 57.333 -34.667 185 -104 383h-565l24 65h516l-266 766l25 82h151l342 -958c60.667 -173.333 108.334 -288 143.001 -344s80 -96.333 136 -121z" />
    <glyph glyph-name="Atilde" unicode="&#xc3;" horiz-adv-x="1439" 
d="M592 1681c-53.333 0 -92.333 -25 -117 -75c0 34.667 15.333 74 46 118s72.667 66 126 66c32.667 0 79 -10 139 -30s100.333 -29.667 121 -29c53.333 0 92.333 23 117 69c-2.66699 -37.333 -19 -77.333 -49 -120s-66.333 -64 -109 -64s-94 10.667 -154 32
c-59.333 21.333 -99.333 32.333 -120 33zM301 186c-0.666992 -53.333 9 -93.333 29 -120s56 -48.667 108 -66h-438c45.333 18.667 82 38 110 58s62.333 58.667 103 116s81.667 134.666 123 231.999c-23.333 -93.333 -35 -166.666 -35 -219.999zM1438 0h-520.001
c42 12 72.333 27.667 91 47s27.667 46 27 80c0 57.333 -34.667 185 -104 383h-565l24 65h516l-266 766l25 82h151l342 -958c60.667 -173.333 108.334 -288 143.001 -344s80 -96.333 136 -121z" />
    <glyph glyph-name="Adieresis" unicode="&#xc4;" horiz-adv-x="1439" 
d="M594 1569c-30 0 -56.001 11.001 -78.001 33.001c-22 22.667 -33 48.667 -33 78s11 54.666 33 75.999s48 32 78 32s55.667 -10.667 77 -32c20.667 -21.333 31 -47 31 -77s-10.667 -55.667 -32 -77s-46.666 -32.333 -75.999 -33zM902.999 1569c-30 0 -56 11.001 -78 33.001
c-22 22.667 -33 48.667 -33 78s11 54.666 33 75.999s48 32 78 32s55.667 -10.667 77 -32s32 -47 32 -77s-10.667 -55.667 -32 -77s-47 -32.333 -77 -33zM300.999 186.002c-0.666992 -53.333 9 -93.333 29 -120s56 -48.667 108 -66h-438c45.333 18.667 82 38 110 58
s62.333 58.667 103 116s81.667 134.666 123 231.999c-23.333 -93.333 -35 -166.666 -35 -219.999zM1438 0.00195312h-520.001c42 12 72.333 27.667 91 47s27.667 46 27 80c0 57.333 -34.667 185 -104 383h-565l24 65h516l-266 766l25 82h151l342 -958
c60.667 -173.333 108.334 -288 143.001 -344s80 -96.333 136 -121z" />
    <glyph glyph-name="Aring" unicode="&#xc5;" horiz-adv-x="1439" 
d="M609 1738c0 -102.667 32 -169.33 96 -199.997c-50.667 9.33301 -92.667 32.666 -126 69.999c-34 37.333 -51 80.666 -51 129.999c0 50 17.333 93.667 52 131s77 60.666 127 69.999c-65.333 -31.333 -98 -98.333 -98 -201zM958 1738c0 -49.333 -17 -92.6689 -51 -130.002
s-75.667 -60.666 -125 -69.999c64 32.667 96.333 99.667 97 201c0 101.333 -33 168 -99 200c50.667 -9.33301 93 -32.666 127 -69.999s51 -81 51 -131zM301 186.001c-0.666992 -53.333 9 -93.333 29 -120s56 -48.667 108 -66h-438c45.333 18.667 82 38 110 58
s62.333 58.667 103 116s81.667 134.666 123 231.999c-23.333 -93.333 -35 -166.666 -35 -219.999zM1438 0.000976562h-520.001c42 12 72.333 27.667 91 47s27.667 46 27 80c0 57.333 -34.667 185 -104 383h-565l24 65h516l-266 766l25 82h151l342 -958
c60.667 -173.333 108.334 -288 143.001 -344s80 -96.333 136 -121z" />
    <glyph glyph-name="AE" unicode="&#xc6;" horiz-adv-x="1959" 
d="M1772 1413l0.000976562 -303c-54.667 79.333 -106.334 143.333 -155.001 192s-105 85.667 -169 111h324zM453.001 0h-446.999c69.333 31.333 136 76 200 134c63.333 58 130.666 148.667 201.999 272c-58.667 -132 -88 -220.667 -88 -266s9.33301 -76 28 -92
c19.333 -16 54.333 -32 105 -48zM1679 891l0.000976562 -330c-90 80.667 -192.333 136.667 -307 168c129.333 28.667 231.666 82.667 306.999 162zM801.003 1174c0 73.333 -17.333 128 -52 164s-91.667 61 -171 75h391l-176 -299c5.33301 30 8 50 8 60zM1831 0
l-354 0.000976562c82 31.333 149 69.666 201 114.999s116.667 118.333 194 219zM1204 0.000976562h-377.001c70.667 23.333 117.334 53 140.001 89c22 36 32.667 99.333 32 190v231h-534l41 65h493v838h205v-1413z" />
    <glyph glyph-name="Ccedilla" unicode="&#xc7;" horiz-adv-x="1437" 
d="M1069 -339c0 -52.667 -21.001 -91.3311 -63.001 -115.998c-41.333 -24.667 -92 -37 -152 -37s-114 22.667 -162 68c48 -13.333 90.333 -20 127 -20c70.667 0 106.334 30 107.001 90c0 37.333 -17.667 65.333 -53 84s-75 28.667 -119 30l190 211l-53 -135
c46.667 -6.66699 88 -24.334 124 -53.001s54 -69.334 54 -122.001zM1354 381.003l-29 -326.001c-66.667 -35.333 -171 -61.333 -313 -78c109.333 38.667 223.333 173.334 342 404.001zM1305 1360l1.99902 -311c-114.667 216 -226 343.667 -334 383
c140.667 -14 251.334 -38 332.001 -72zM93.998 681.002c0 192.667 61.999 356.331 185.999 490.998s273 218.334 447 251.001c-117.333 -46 -213.666 -135 -288.999 -267c-74.667 -132 -112 -284 -112 -456s42.667 -326 128 -462c85.333 -136.667 193.333 -222.667 324 -258
c-200 20.667 -364 94.334 -492 221.001s-192 286.667 -192 480z" />
    <glyph glyph-name="Egrave" unicode="&#xc8;" horiz-adv-x="1183" 
d="M408 1772h208c27.333 -91.333 75.333 -174.666 144 -249.999c-152.667 57.333 -270 140.666 -352 249.999zM1016 1413l-0.000976562 -302.999c-57.333 83.333 -109.666 148.666 -156.999 195.999s-103 83 -167 107h324zM923.999 891.001v-330
c-86 82 -188.667 138 -308 168c127.333 28.667 230 82.667 308 162zM1075 0.000976562l-354 0.000976562c80.667 31.333 147 69.666 199 114.999s117.333 118.333 196 219zM448.999 0.00195312l-377 -0.000976562c69.333 23.333 115 53 137 89s33 99.333 33 190v856
c0 87.333 -11 149.333 -33 186s-67.667 67.334 -137 92.001h377v-1413z" />
    <glyph glyph-name="Eacute" unicode="&#xc9;" horiz-adv-x="1183" 
d="M627 1790h209c-82 -109.333 -199.667 -192.666 -353 -249.999c68.667 75.333 116.667 158.666 144 249.999zM1016 1413l-0.000976562 -302.999c-57.333 83.333 -109.666 148.666 -156.999 195.999s-103 83 -167 107h324zM923.999 891.001v-330
c-86 82 -188.667 138 -308 168c127.333 28.667 230 82.667 308 162zM1075 0.000976562l-354 0.000976562c80.667 31.333 147 69.666 199 114.999s117.333 118.333 196 219zM448.999 0.00195312l-377 -0.000976562c69.333 23.333 115 53 137 89s33 99.333 33 190v856
c0 87.333 -11 149.333 -33 186s-67.667 67.334 -137 92.001h377v-1413z" />
    <glyph glyph-name="Ecircumflex" unicode="&#xca;" horiz-adv-x="1183" 
d="M825 1540l-243 125l-240 -125l180 250h119zM1016 1413l-0.000976562 -302.999c-57.333 83.333 -109.666 148.666 -156.999 195.999s-103 83 -167 107h324zM923.999 891.001v-330c-86 82 -188.667 138 -308 168c127.333 28.667 230 82.667 308 162zM1075 0.000976562
l-354 0.000976562c80.667 31.333 147 69.666 199 114.999s117.333 118.333 196 219zM448.999 0.00195312l-377 -0.000976562c69.333 23.333 115 53 137 89s33 99.333 33 190v856c0 87.333 -11 149.333 -33 186s-67.667 67.334 -137 92.001h377v-1413z" />
    <glyph glyph-name="Edieresis" unicode="&#xcb;" horiz-adv-x="1183" 
d="M440 1569c-30 0 -56 11.001 -78 33.001c-21.333 22.667 -32 48.667 -32 78s10.667 54.666 32 75.999c22 21.333 48 32 78 32s55.667 -10.667 77 -32s32 -47 32 -77s-10.667 -55.667 -32 -77s-47 -32.333 -77 -33zM750 1569c-30 0 -56 11.001 -78 33.001
c-22 22.667 -33 48.667 -33 78s11 54.666 33 75.999s48 32 78 32c29.333 0 54.666 -10.667 75.999 -32s32 -47 32 -77s-10.667 -55.667 -32 -77s-46.666 -32.333 -75.999 -33zM1016 1413l-0.000976562 -302.999c-57.333 83.333 -109.666 148.666 -156.999 195.999
s-103 83 -167 107h324zM923.999 891.003v-330c-86 82 -188.667 138 -308 168c127.333 28.667 230 82.667 308 162zM1075 0.00292969l-354 0.000976562c80.667 31.333 147 69.666 199 114.999s117.333 118.333 196 219zM448.999 0.00390625l-377 -0.000976562
c69.333 23.333 115 53 137 89s33 99.333 33 190v856c0 87.333 -11 149.333 -33 186s-67.667 67.334 -137 92.001h377v-1413z" />
    <glyph glyph-name="Igrave" unicode="&#xcc;" horiz-adv-x="692" 
d="M154 1772h208c27.333 -91.333 75.333 -174.666 144 -249.999c-152.667 57.333 -270 140.666 -352 249.999zM242 270l0.000976562 871c0 87.333 -11 148.333 -33 183s-67.667 64.334 -137 89.001h546c-69.333 -24.667 -115 -54.334 -137 -89.001s-32.667 -95.667 -32 -183
v-871c0.666992 -87.333 11.667 -148.333 33 -183s66.666 -63.667 135.999 -87h-546c69.333 23.333 115 52.333 137 87s33 95.667 33 183z" />
    <glyph glyph-name="Iacute" unicode="&#xcd;" horiz-adv-x="692" 
d="M340 1790h209c-82 -109.333 -199.333 -192.666 -352 -249.999c68 75.333 115.667 158.666 143 249.999zM242 270l0.000976562 871c0 87.333 -11 148.333 -33 183s-67.667 64.334 -137 89.001h546c-69.333 -24.667 -115 -54.334 -137 -89.001s-32.667 -95.667 -32 -183
v-871c0.666992 -87.333 11.667 -148.333 33 -183s66.666 -63.667 135.999 -87h-546c69.333 23.333 115 52.333 137 87s33 95.667 33 183z" />
    <glyph glyph-name="Icircumflex" unicode="&#xce;" horiz-adv-x="692" 
d="M588 1540l-244 125l-240 -125l181 250h118zM242 270l0.000976562 871c0 87.333 -11 148.333 -33 183s-67.667 64.334 -137 89.001h546c-69.333 -24.667 -115 -54.334 -137 -89.001s-32.667 -95.667 -32 -183v-871c0.666992 -87.333 11.667 -148.333 33 -183
s66.666 -63.667 135.999 -87h-546c69.333 23.333 115 52.333 137 87s33 95.667 33 183z" />
    <glyph glyph-name="Idieresis" unicode="&#xcf;" horiz-adv-x="692" 
d="M188 1569c-30.667 0 -56.667 11.001 -78 33.001c-21.333 22.667 -32 48.667 -32 78s11 54.666 33 75.999s47.667 32 77 32s55 -10.667 77 -32c21.333 -21.333 32 -47 32 -77s-10.667 -55.667 -32 -77s-47 -32.333 -77 -33zM498 1569c-30 0 -56 11.001 -78 33.001
c-22 22.667 -33 48.667 -33 78s11 54.666 33 75.999s48 32 78 32c29.333 0 54.666 -10.667 75.999 -32s32 -47 32 -77s-10.667 -55.667 -32 -77s-46.666 -32.333 -75.999 -33zM242 270.002l0.000976562 871c0 87.333 -11 148.333 -33 183s-67.667 64.334 -137 89.001h546
c-69.333 -24.667 -115 -54.334 -137 -89.001s-32.667 -95.667 -32 -183v-871c0.666992 -87.333 11.667 -148.333 33 -183s66.666 -63.667 135.999 -87h-546c69.333 23.333 115 52.333 137 87s33 95.667 33 183z" />
    <glyph glyph-name="Eth" unicode="&#xd0;" horiz-adv-x="1591" 
d="M1284 718c0 178.667 -46.668 331.998 -140.001 459.998c-93.333 126.667 -227 203.667 -401 231c220 -21.333 399.667 -80.333 539 -177c74 -51.333 131.333 -119.666 172 -204.999s61.334 -184 62.001 -296c0 -221.333 -71.333 -393.666 -214 -516.999
s-331 -194 -565 -212c176 46.667 311.333 133 406 259c94 126 141 278.333 141 457zM445.999 -0.00195312h-376c70.667 23.333 117 53 139 89s33 99.333 33 190v411h-156v68h156v377c0 90 -11 152.667 -33 188s-68.333 65.333 -139 90h376v-655h289v-68h-289v-690z" />
    <glyph glyph-name="Ntilde" unicode="&#xd1;" horiz-adv-x="1628" 
d="M698 1681c-53.333 0 -92 -25 -116 -75c0 34.667 15.333 74 46 118s72.667 66 126 66c32.667 0 78.667 -10 138 -30s100 -29.667 122 -29c53.333 0 92 23 116 69c-2.66699 -37.333 -19 -77.333 -49 -120s-66.333 -64 -109 -64s-94 10.667 -154 32s-100 32.333 -120 33z
M1180 1413l405 -0.00195312c-65.333 -30 -112.333 -87.667 -141 -173s-48 -225.666 -58 -420.999c-10.667 198 -30 340.333 -58 427s-77.333 142.334 -148 167.001zM494 -0.00195312h-433c46.667 20.667 82 46.667 106 78c50 65.333 83.667 238 101 518
c12 -275.333 49.333 -448 112 -518c26.667 -30 64.667 -56 114 -78zM1395 -16.002h-62l-966 1163c-60 72.667 -115 130 -165 172s-107 73.333 -171 94h381l983 -1171v-258z" />
    <glyph glyph-name="Ograve" unicode="&#xd2;" horiz-adv-x="1671" 
d="M643 1772h209c27.333 -91.333 75 -174.666 143 -249.999c-152.667 57.333 -270 140.666 -352 249.999zM86 698c0 184 60.667 343.332 182 477.999s266 217.667 434 249c-121.333 -42 -215.333 -129 -282 -261s-100 -284.667 -100 -458s35.667 -328.666 107 -465.999
c72 -138 164.667 -224 278 -258c-172 30 -318.333 110.667 -439 242c-120 132 -180 290 -180 474zM1585 697.999c0 -184.667 -60.3311 -342.669 -180.998 -474.002s-266.334 -212 -437.001 -242c120 42 213.667 129.667 281 263c68 133.333 102 287 102 461
c0 174.667 -33.333 327.334 -100 458.001s-160.334 217.667 -281.001 261c166.667 -32.667 311 -115.667 433 -249s183 -292.666 183 -477.999z" />
    <glyph glyph-name="Oacute" unicode="&#xd3;" horiz-adv-x="1671" 
d="M883 1790h209c-82 -109.333 -199.667 -192.666 -353 -249.999c68.667 75.333 116.667 158.666 144 249.999zM86 698c0 184 60.667 343.332 182 477.999s266 217.667 434 249c-121.333 -42 -215.333 -129 -282 -261s-100 -284.667 -100 -458s35.667 -328.666 107 -465.999
c72 -138 164.667 -224 278 -258c-172 30 -318.333 110.667 -439 242c-120 132 -180 290 -180 474zM1585 697.999c0 -184.667 -60.3311 -342.669 -180.998 -474.002s-266.334 -212 -437.001 -242c120 42 213.667 129.667 281 263c68 133.333 102 287 102 461
c0 174.667 -33.333 327.334 -100 458.001s-160.334 217.667 -281.001 261c166.667 -32.667 311 -115.667 433 -249s183 -292.666 183 -477.999z" />
    <glyph glyph-name="Ocircumflex" unicode="&#xd4;" horiz-adv-x="1671" 
d="M1083 1540l-243 125l-240 -125l180 250h119zM86 698c0 184 60.667 343.332 182 477.999s266 217.667 434 249c-121.333 -42 -215.333 -129 -282 -261s-100 -284.667 -100 -458s35.667 -328.666 107 -465.999c72 -138 164.667 -224 278 -258
c-172 30 -318.333 110.667 -439 242c-120 132 -180 290 -180 474zM1585 697.999c0 -184.667 -60.3311 -342.669 -180.998 -474.002s-266.334 -212 -437.001 -242c120 42 213.667 129.667 281 263c68 133.333 102 287 102 461c0 174.667 -33.333 327.334 -100 458.001
s-160.334 217.667 -281.001 261c166.667 -32.667 311 -115.667 433 -249s183 -292.666 183 -477.999z" />
    <glyph glyph-name="Otilde" unicode="&#xd5;" horiz-adv-x="1671" 
d="M690 1681c-53.333 0 -92.335 -25 -117.002 -75c0.666992 34.667 16.334 74 47.001 118s72.334 66 125.001 66c32.667 0 79 -10 139 -30s100.667 -29.667 122 -29c53.333 0 92 23 116 69c-2.66699 -37.333 -19 -77.333 -49 -120s-66.333 -64 -109 -64s-94 10.667 -154 32
c-59.333 21.333 -99.333 32.333 -120 33zM85.998 698c0 184 60.667 343.332 182 477.999s266 217.667 434 249c-121.333 -42 -215.333 -129 -282 -261s-100 -284.667 -100 -458s35.667 -328.666 107 -465.999c72 -138 164.667 -224 278 -258
c-172 30 -318.333 110.667 -439 242c-120 132 -180 290 -180 474zM1585 697.999c0 -184.667 -60.3311 -342.669 -180.998 -474.002s-266.334 -212 -437.001 -242c120 42 213.667 129.667 281 263c68 133.333 102 287 102 461c0 174.667 -33.333 327.334 -100 458.001
s-160.334 217.667 -281.001 261c166.667 -32.667 311 -115.667 433 -249s183 -292.666 183 -477.999z" />
    <glyph glyph-name="Odieresis" unicode="&#xd6;" horiz-adv-x="1671" 
d="M676 1569c-30 0 -56.001 11.001 -78.001 33.001c-22 22.667 -33 48.667 -33 78s11 54.666 33 75.999s48 32 78 32s55.667 -10.667 77 -32c20.667 -21.333 31 -47 31 -77s-10.667 -55.667 -32 -77s-46.666 -32.333 -75.999 -33zM984.999 1569c-30 0 -56 11.001 -78 33.001
c-22 22.667 -33 48.667 -33 78s11 54.666 33 75.999s48 32 78 32s55.667 -10.667 77 -32s32 -47 32 -77s-10.667 -55.667 -32 -77s-47 -32.333 -77 -33zM85.999 698.002c0 184 60.667 343.332 182 477.999s266 217.667 434 249c-121.333 -42 -215.333 -129 -282 -261
s-100 -284.667 -100 -458s35.667 -328.666 107 -465.999c72 -138 164.667 -224 278 -258c-172 30 -318.333 110.667 -439 242c-120 132 -180 290 -180 474zM1585 698.001c0 -184.667 -60.3311 -342.669 -180.998 -474.002s-266.334 -212 -437.001 -242
c120 42 213.667 129.667 281 263c68 133.333 102 287 102 461c0 174.667 -33.333 327.334 -100 458.001s-160.334 217.667 -281.001 261c166.667 -32.667 311 -115.667 433 -249s183 -292.666 183 -477.999z" />
    <glyph glyph-name="multiply" unicode="&#xd7;" 
d="M874 195l-290 292l-295 -292l-90 90l295 293l-295 290l90 90l295 -290l290 290l91 -90l-291 -290l291 -293z" />
    <glyph glyph-name="Oslash" unicode="&#xd8;" horiz-adv-x="1671" 
d="M86 700c0 182.667 60.6699 341.332 182.003 475.999s266 217.667 434 249c-121.333 -42 -215.333 -129 -282 -261s-100 -290.667 -100 -476s43 -347.666 129 -486.999l710 1093c-54.667 61.333 -118 105 -190 131c75.333 -13.333 149 -40.666 221 -81.999l88 136l59 -35
l-88 -137c101.333 -66.667 182.666 -152.667 243.999 -258s92 -221.666 92 -348.999c0 -185.333 -60.333 -344 -181 -476s-266.334 -212.667 -437.001 -242c120 42 213.667 129.667 281 263s101.333 286.666 102 459.999c0 216 -48.667 393.333 -146 532l-712 -1100
c62.667 -80.667 133.667 -132.334 213 -155.001c-96.667 18 -181.334 48.667 -254.001 92l-93 -146l-59 39l92 144c-92.667 68 -166.667 152.667 -222 254s-83 213 -83 335z" />
    <glyph glyph-name="Ugrave" unicode="&#xd9;" horiz-adv-x="1585" 
d="M625 1772h209c27.333 -91.333 75 -174.666 143 -249.999c-152.667 57.333 -270 140.666 -352 249.999zM1268 389v589.999c0 192 -21.667 313.333 -65 364c-22.667 27.333 -57 50.666 -103 69.999h420c-48 -19.333 -83 -41.666 -105 -66.999
c-42 -49.333 -63 -171.666 -63 -366.999v-596c0 -88.667 -24 -165.667 -72 -231s-115.667 -114 -203 -146c127.333 74 191 201.667 191 383zM242 382.999v758c0 84.667 -11.333 145 -34 181s-68.667 66.333 -138 91h546c-68 -24.667 -113.333 -55 -136 -91
s-34 -96.333 -34 -181v-787c0 -94 34 -178.667 102 -254s161 -118.333 279 -129h-18c-170 0.666992 -307 37 -411 109s-156 173 -156 303z" />
    <glyph glyph-name="Uacute" unicode="&#xda;" horiz-adv-x="1585" 
d="M905 1790h209c-82 -109.333 -199.333 -192.666 -352 -249.999c68 75.333 115.667 158.666 143 249.999zM1268 389v589.999c0 192 -21.667 313.333 -65 364c-22.667 27.333 -57 50.666 -103 69.999h420c-48 -19.333 -83 -41.666 -105 -66.999
c-42 -49.333 -63 -171.666 -63 -366.999v-596c0 -88.667 -24 -165.667 -72 -231s-115.667 -114 -203 -146c127.333 74 191 201.667 191 383zM242 382.999v758c0 84.667 -11.333 145 -34 181s-68.667 66.333 -138 91h546c-68 -24.667 -113.333 -55 -136 -91
s-34 -96.333 -34 -181v-787c0 -94 34 -178.667 102 -254s161 -118.333 279 -129h-18c-170 0.666992 -307 37 -411 109s-156 173 -156 303z" />
    <glyph glyph-name="Ucircumflex" unicode="&#xdb;" horiz-adv-x="1585" 
d="M1104 1540l-244 125l-239 -125l180 250h119zM1268 389v589.999c0 192 -21.667 313.333 -65 364c-22.667 27.333 -57 50.666 -103 69.999h420c-48 -19.333 -83 -41.666 -105 -66.999c-42 -49.333 -63 -171.666 -63 -366.999v-596c0 -88.667 -24 -165.667 -72 -231
s-115.667 -114 -203 -146c127.333 74 191 201.667 191 383zM242 382.999v758c0 84.667 -11.333 145 -34 181s-68.667 66.333 -138 91h546c-68 -24.667 -113.333 -55 -136 -91s-34 -96.333 -34 -181v-787c0 -94 34 -178.667 102 -254s161 -118.333 279 -129h-18
c-170 0.666992 -307 37 -411 109s-156 173 -156 303z" />
    <glyph glyph-name="Udieresis" unicode="&#xdc;" horiz-adv-x="1585" 
d="M696 1569c-30 0 -56 11.001 -78 33.001c-21.333 22.667 -32 48.667 -32 78s10.667 54.666 32 75.999c22 21.333 48 32 78 32s55.667 -10.667 77 -32s32 -47 32 -77s-10.667 -55.667 -32 -77s-47 -32.333 -77 -33zM1006 1569c-30 0 -56 11.001 -78 33.001
c-22 22.667 -33 48.667 -33 78s11 54.666 33 75.999s48 32 78 32c29.333 0 54.666 -10.667 75.999 -32s32 -47 32 -77s-10.667 -55.667 -32 -77s-46.666 -32.333 -75.999 -33zM1268 389.002v589.999c0 192 -21.667 313.333 -65 364c-22.667 27.333 -57 50.666 -103 69.999
h420c-48 -19.333 -83 -41.666 -105 -66.999c-42 -49.333 -63 -171.666 -63 -366.999v-596c0 -88.667 -24 -165.667 -72 -231s-115.667 -114 -203 -146c127.333 74 191 201.667 191 383zM242 383.001v758c0 84.667 -11.333 145 -34 181s-68.667 66.333 -138 91h546
c-68 -24.667 -113.333 -55 -136 -91s-34 -96.333 -34 -181v-787c0 -94 34 -178.667 102 -254s161 -118.333 279 -129h-18c-170 0.666992 -307 37 -411 109s-156 173 -156 303z" />
    <glyph glyph-name="Yacute" unicode="&#xdd;" horiz-adv-x="1314" 
d="M750 1790h208c-82 -109.333 -199.333 -192.666 -352 -249.999c68.667 75.333 116.667 158.666 144 249.999zM881 1413h421.999c-59.333 -18 -119.666 -59.333 -180.999 -124s-134.333 -179.667 -219 -345c62.667 172 94 283.333 94 334
c0.666992 70.667 -38 115.667 -116 135zM558.999 279l0.000976562 338.999l-209 383c-80.667 148.667 -144.334 249.334 -191.001 302.001c-47.333 52 -97 88.667 -149 110h514c-35.333 -15.333 -61 -29.333 -77 -42s-23.667 -30.667 -23 -54c0 -53.333 43 -157 129 -311
l213 -381v-346c0 -86 11 -147.667 33 -185s67.667 -68.666 137 -93.999h-547c68 26 113.333 57.667 136 95s34 98.666 34 183.999z" />
    <glyph glyph-name="Thorn" unicode="&#xde;" horiz-adv-x="1265" 
d="M965 722c0 206.667 -91.667 331.333 -275 374c161.333 -1.33301 282.333 -31 363 -89s121 -148.667 121 -272c0 -263.333 -170 -397 -510 -401c200.667 52 301 181.333 301 388zM238 278.999v862c0 87.333 -11 148.333 -33 183s-67.667 64.334 -137 89.001h546
c-69.333 -24.667 -115 -54.334 -137 -89.001s-33 -95.667 -33 -183v-862c0 -90 13.333 -153 40 -189s81.667 -66 165 -90h-581c69.333 23.333 115 53 137 89s33 99.333 33 190z" />
    <glyph glyph-name="germandbls" unicode="&#xdf;" horiz-adv-x="1241" 
d="M850 1231c0 75.333 -13.6689 140.333 -41.002 195s-63.666 90.667 -108.999 108c102.667 -6.66699 183.334 -38 242.001 -94s88 -125 88 -207s-33.667 -151.667 -101 -209s-140 -95.666 -218 -114.999c92.667 91.333 139 198.666 139 321.999zM984.998 344
c0 182.667 -147.331 327.999 -441.998 435.999c57.333 35.333 107.666 73 150.999 113c103.333 -28 206.666 -80.667 309.999 -158c53.333 -39.333 97 -88 131 -146s51 -119 51 -183c0 -137.333 -52.667 -244.666 -158 -321.999s-233 -112 -383 -104
c105.333 6.66699 188.333 43 249 109s91 151 91 255zM197 278.999l-0.000976562 411c0 98.667 -9.66699 164.667 -29 198s-67.666 63 -144.999 89l182 35c0 128.667 29.333 242 88 340s150.667 157.333 276 178c-118.667 -49.333 -178 -218.666 -178 -507.999v-743
c0 -88.667 10 -151.667 30 -189s60 -67.333 120 -90h-494c60 22 100 51.667 120 89s30 100.666 30 189.999z" />
    <glyph glyph-name="agrave" unicode="&#xe0;" horiz-adv-x="1060" 
d="M307 1413h209c27.333 -91.333 75 -174.666 143 -249.999c-152.667 57.333 -270 140.666 -352 249.999zM293 1022c-27.333 -23.333 -48.668 -55.334 -64.001 -96.001c65.333 -18 98.333 -54.333 99 -109c0 -31.333 -10.667 -56.666 -32 -75.999s-46.666 -29 -75.999 -29
s-55 10 -77 30s-33 47.667 -33 83s17.333 71 52 107c34 36 77.667 66 131 90zM79.998 229.999c0 76 29.3311 142.334 87.998 199.001s153 98.667 283 126c-53.333 -24.667 -95.666 -60.334 -126.999 -107.001c-32 -46.667 -48 -101 -48 -163c0 -63.333 20 -113 60 -149
s91 -54 153 -54c34.667 0 72.334 9.66699 113.001 29c-82 -90 -163.667 -135 -245 -135c-80.667 0 -147 23 -199 69c-52 47.333 -78 109 -78 185zM671.996 158l-0.000976562 374c-10.667 12 -38.667 26.333 -84 43l84 15v174c0 84.667 -20 152.667 -60 204
s-98 82.333 -174 93c46.667 5.33301 80.334 8 101.001 8c103.333 0 183.666 -26 240.999 -78s86 -127.667 86 -227v-516c0 -78.667 17.667 -129.667 53 -153c20.667 -12.667 39 -21 55 -25s41.667 -9 77 -15c-27.333 -18 -63.666 -35 -108.999 -51
c-107.333 -37.333 -184 -30 -230 22c-26.667 29.333 -40 73.333 -40 132z" />
    <glyph glyph-name="aacute" unicode="&#xe1;" horiz-adv-x="1060" 
d="M496 1413h209c-82 -109.333 -199.667 -192.666 -353 -249.999c68.667 75.333 116.667 158.666 144 249.999zM293 1022c-27.333 -23.333 -48.668 -55.334 -64.001 -96.001c65.333 -18 98.333 -54.333 99 -109c0 -31.333 -10.667 -56.666 -32 -75.999
s-46.666 -29 -75.999 -29s-55 10 -77 30s-33 47.667 -33 83s17.333 71 52 107c34 36 77.667 66 131 90zM79.998 229.999c0 76 29.3311 142.334 87.998 199.001s153 98.667 283 126c-53.333 -24.667 -95.666 -60.334 -126.999 -107.001c-32 -46.667 -48 -101 -48 -163
c0 -63.333 20 -113 60 -149s91 -54 153 -54c34.667 0 72.334 9.66699 113.001 29c-82 -90 -163.667 -135 -245 -135c-80.667 0 -147 23 -199 69c-52 47.333 -78 109 -78 185zM671.996 158l-0.000976562 374c-10.667 12 -38.667 26.333 -84 43l84 15v174
c0 84.667 -20 152.667 -60 204s-98 82.333 -174 93c46.667 5.33301 80.334 8 101.001 8c103.333 0 183.666 -26 240.999 -78s86 -127.667 86 -227v-516c0 -78.667 17.667 -129.667 53 -153c20.667 -12.667 39 -21 55 -25s41.667 -9 77 -15
c-27.333 -18 -63.666 -35 -108.999 -51c-107.333 -37.333 -184 -30 -230 22c-26.667 29.333 -40 73.333 -40 132z" />
    <glyph glyph-name="acircumflex" unicode="&#xe2;" horiz-adv-x="1060" 
d="M756 1163l-244 125l-240 -125l181 250h118zM293 1022c-27.333 -23.333 -48.668 -55.334 -64.001 -96.001c65.333 -18 98.333 -54.333 99 -109c0 -31.333 -10.667 -56.666 -32 -75.999s-46.666 -29 -75.999 -29s-55 10 -77 30s-33 47.667 -33 83s17.333 71 52 107
c34 36 77.667 66 131 90zM79.998 229.999c0 76 29.3311 142.334 87.998 199.001s153 98.667 283 126c-53.333 -24.667 -95.666 -60.334 -126.999 -107.001c-32 -46.667 -48 -101 -48 -163c0 -63.333 20 -113 60 -149s91 -54 153 -54c34.667 0 72.334 9.66699 113.001 29
c-82 -90 -163.667 -135 -245 -135c-80.667 0 -147 23 -199 69c-52 47.333 -78 109 -78 185zM671.996 158l-0.000976562 374c-10.667 12 -38.667 26.333 -84 43l84 15v174c0 84.667 -20 152.667 -60 204s-98 82.333 -174 93c46.667 5.33301 80.334 8 101.001 8
c103.333 0 183.666 -26 240.999 -78s86 -127.667 86 -227v-516c0 -78.667 17.667 -129.667 53 -153c20.667 -12.667 39 -21 55 -25s41.667 -9 77 -15c-27.333 -18 -63.666 -35 -108.999 -51c-107.333 -37.333 -184 -30 -230 22c-26.667 29.333 -40 73.333 -40 132z" />
    <glyph glyph-name="atilde" unicode="&#xe3;" horiz-adv-x="1060" 
d="M377 1305c-52 0 -90.999 -25.333 -116.999 -76c0 34 15.333 73.333 46 118s72.667 66.667 126 66c34 0 80.333 -10 139 -30s99 -29.667 121 -29c53.333 0 92.333 23 117 69c-2.66699 -38 -19 -78 -49 -120c-30.667 -42 -67.334 -63 -110.001 -63s-93.667 10.667 -153 32
c-59.333 22 -99.333 33 -120 33zM293.001 1022c-27.333 -23.333 -48.668 -55.334 -64.001 -96.001c65.333 -18 98.333 -54.333 99 -109c0 -31.333 -10.667 -56.666 -32 -75.999s-46.666 -29 -75.999 -29s-55 10 -77 30s-33 47.667 -33 83s17.333 71 52 107
c34 36 77.667 66 131 90zM79.999 229.999c0 76 29.3311 142.334 87.998 199.001s153 98.667 283 126c-53.333 -24.667 -95.666 -60.334 -126.999 -107.001c-32 -46.667 -48 -101 -48 -163c0 -63.333 20 -113 60 -149s91 -54 153 -54c34.667 0 72.334 9.66699 113.001 29
c-82 -90 -163.667 -135 -245 -135c-80.667 0 -147 23 -199 69c-52 47.333 -78 109 -78 185zM671.997 158l-0.000976562 374c-10.667 12 -38.667 26.333 -84 43l84 15v174c0 84.667 -20 152.667 -60 204s-98 82.333 -174 93c46.667 5.33301 80.334 8 101.001 8
c103.333 0 183.666 -26 240.999 -78s86 -127.667 86 -227v-516c0 -78.667 17.667 -129.667 53 -153c20.667 -12.667 39 -21 55 -25s41.667 -9 77 -15c-27.333 -18 -63.666 -35 -108.999 -51c-107.333 -37.333 -184 -30 -230 22c-26.667 29.333 -40 73.333 -40 132z" />
    <glyph glyph-name="adieresis" unicode="&#xe4;" horiz-adv-x="1060" 
d="M348 1210c-30 0 -56 11 -78 33s-32.667 48 -32 78c0 30 10.667 55.667 32 77c22 21.333 48 32 78 32s55.667 -10.667 77 -32s32 -47 32 -77s-10.667 -56 -32 -78s-47 -33 -77 -33zM657 1210c-30 0 -55.666 11 -76.999 33s-32.333 48 -33 78c0 30 11 55.667 33 77
c22.667 21.333 48.667 32 78 32s54.666 -10.667 75.999 -32s32 -47 32 -77s-10.667 -56 -32 -78s-47 -33 -77 -33zM293.001 1022c-27.333 -23.333 -48.668 -55.334 -64.001 -96.001c65.333 -18 98.333 -54.333 99 -109c0 -31.333 -10.667 -56.666 -32 -75.999
s-46.666 -29 -75.999 -29s-55 10 -77 30s-33 47.667 -33 83s17.333 71 52 107c34 36 77.667 66 131 90zM79.999 229.999c0 76 29.3311 142.334 87.998 199.001s153 98.667 283 126c-53.333 -24.667 -95.666 -60.334 -126.999 -107.001c-32 -46.667 -48 -101 -48 -163
c0 -63.333 20 -113 60 -149s91 -54 153 -54c34.667 0 72.334 9.66699 113.001 29c-82 -90 -163.667 -135 -245 -135c-80.667 0 -147 23 -199 69c-52 47.333 -78 109 -78 185zM671.997 158l-0.000976562 374c-10.667 12 -38.667 26.333 -84 43l84 15v174
c0 84.667 -20 152.667 -60 204s-98 82.333 -174 93c46.667 5.33301 80.334 8 101.001 8c103.333 0 183.666 -26 240.999 -78s86 -127.667 86 -227v-516c0 -78.667 17.667 -129.667 53 -153c20.667 -12.667 39 -21 55 -25s41.667 -9 77 -15
c-27.333 -18 -63.666 -35 -108.999 -51c-107.333 -37.333 -184 -30 -230 22c-26.667 29.333 -40 73.333 -40 132z" />
    <glyph glyph-name="aring" unicode="&#xe5;" horiz-adv-x="1060" 
d="M489 1161c-50 8.66699 -91.668 31.667 -125.001 69s-50 81 -50 131s16.667 93.667 50 131c34.667 37.333 77.334 61 128.001 71c-65.333 -31.333 -98 -98.333 -98 -201s31.667 -169.667 95 -201zM742.999 1361c0 -50 -17 -93.667 -51 -131s-75.667 -60.333 -125 -69
c64 32.667 96.333 99.667 97 201c0 101.333 -33 168.333 -99 201c50.667 -10 93 -33.667 127 -71s51 -81 51 -131zM292.999 1022c-27.333 -23.333 -48.668 -55.334 -64.001 -96.001c65.333 -18 98.333 -54.333 99 -109c0 -31.333 -10.667 -56.666 -32 -75.999
s-46.666 -29 -75.999 -29s-55 10 -77 30s-33 47.667 -33 83s17.333 71 52 107c34 36 77.667 66 131 90zM79.9971 229.999c0 76 29.3311 142.334 87.998 199.001s153 98.667 283 126c-53.333 -24.667 -95.666 -60.334 -126.999 -107.001c-32 -46.667 -48 -101 -48 -163
c0 -63.333 20 -113 60 -149s91 -54 153 -54c34.667 0 72.334 9.66699 113.001 29c-82 -90 -163.667 -135 -245 -135c-80.667 0 -147 23 -199 69c-52 47.333 -78 109 -78 185zM671.995 158l-0.000976562 374c-10.667 12 -38.667 26.333 -84 43l84 15v174
c0 84.667 -20 152.667 -60 204s-98 82.333 -174 93c46.667 5.33301 80.334 8 101.001 8c103.333 0 183.666 -26 240.999 -78s86 -127.667 86 -227v-516c0 -78.667 17.667 -129.667 53 -153c20.667 -12.667 39 -21 55 -25s41.667 -9 77 -15
c-27.333 -18 -63.666 -35 -108.999 -51c-107.333 -37.333 -184 -30 -230 22c-26.667 29.333 -40 73.333 -40 132z" />
    <glyph glyph-name="ae" unicode="&#xe6;" horiz-adv-x="1624" 
d="M293 1022c-27.333 -23.333 -48.668 -55.334 -64.001 -96.001c65.333 -18 98.333 -54.333 99 -109c0 -31.333 -10.667 -56.666 -32 -75.999s-46.666 -29 -75.999 -29s-55 10 -77 30s-33 47.667 -33 83s17.333 71 52 107c34 36 77.667 66 131 90zM1522 646.999
c0 -22.667 -0.666992 -42.333 -2 -59h-566c170.667 23.333 297 44.333 379 63c0 229.333 -45.667 366 -137 410c97.333 -7.33301 176 -44.333 236 -111s90 -167.667 90 -303zM79.998 230c0 76 29.3311 142.334 87.998 199.001s153 98.667 283 126
c-53.333 -24.667 -95.666 -60.334 -126.999 -107.001c-32 -46.667 -48 -101 -48 -163c0 -63.333 20 -113 60 -149s91 -54 153 -54c34.667 0 72.334 9.66699 113.001 29c-82 -90 -163.667 -135 -245 -135c-80.667 0 -147 23 -199 69c-52 47.333 -78 109 -78 185z
M667.996 764.001c0 86 -19.3301 154.671 -57.9971 206.004s-96 81.666 -172 90.999c46.667 5.33301 80.334 8 101.001 8c142 0 232.667 -56 272 -168c69.333 83.333 156.666 136 261.999 158c-62.667 -39.333 -116 -102.333 -160 -189
c-43.333 -86.667 -65 -194.667 -65 -324c0 -128 33.333 -231.333 100 -310s155 -117.667 265 -117c110 0 212.333 39 307 117c-26.667 -61.333 -75.334 -120 -146.001 -176s-158.667 -84.333 -264 -85c-136.667 -0.666992 -244.334 47.666 -323.001 144.999
s-118.334 232.666 -119.001 405.999c-8 13.333 -34.667 29.666 -80 48.999l80 15v174z" />
    <glyph glyph-name="ccedilla" unicode="&#xe7;" horiz-adv-x="952" 
d="M780 760c-35.333 0 -65.002 11.667 -89.002 35s-36 52 -36 86c0 52.667 24 92.667 72 120c-15.333 26 -34.333 47.333 -57 64c66.667 -8 122.334 -27.333 167.001 -58c44.667 -31.333 67 -68.333 67 -111s-12 -76 -36 -100c-23.333 -24 -52.666 -36 -87.999 -36z
M87.998 498c0 158.667 39.002 288.002 117.002 388.002s180.333 160.333 307 181c-70.667 -34 -124.667 -93.333 -162 -178s-56.333 -181.667 -57 -291c-0.666992 -152.667 35.666 -269.334 108.999 -350.001s162 -121 266 -121s194.667 32.667 272 98
c-24.667 -57.333 -70.667 -113 -138 -167s-151 -81.667 -251 -83l-57 -139c46.667 -6.66699 88 -24.334 124 -53.001s54 -69.334 54 -122.001s-21.333 -91.334 -64 -116.001s-93.334 -37 -152.001 -37c-59.333 0 -113 22.667 -161 68c48 -13.333 90.333 -20 127 -20
c70.667 0 106 30 106 90c0 37.333 -17.667 65.333 -53 84s-75 28.667 -119 30l185 215c-130 0.666992 -238 48.334 -324 143.001s-129 221.334 -129 380.001z" />
    <glyph glyph-name="egrave" unicode="&#xe8;" horiz-adv-x="1069" 
d="M358 1413h209c27.333 -91.333 75.333 -174.666 144 -249.999c-153.333 57.333 -271 140.666 -353 249.999zM969 596h-568c217.333 34 344.333 56 381 66c0 221.333 -46.333 354.333 -139 399c217.333 -18 326 -152.667 326 -404v-61zM557 -25
c-136.667 -0.666992 -248.665 46.335 -335.998 141.002s-131 218.667 -131 372s39 281.333 117 384s175 165 291 187c-60 -36.667 -108.667 -98.334 -146 -185.001s-56.333 -194 -57 -322c0 -128 34 -231.333 102 -310c67.333 -78.667 155.666 -118.334 264.999 -119.001
c109.333 0 211 37.667 305 113c-27.333 -61.333 -76.333 -120 -147 -176s-158.334 -84.333 -263.001 -85z" />
    <glyph glyph-name="eacute" unicode="&#xe9;" horiz-adv-x="1069" 
d="M618 1413h209c-82 -109.333 -199.333 -192.666 -352 -249.999c68 75.333 115.667 158.666 143 249.999zM969 596h-568c217.333 34 344.333 56 381 66c0 221.333 -46.333 354.333 -139 399c217.333 -18 326 -152.667 326 -404v-61zM557 -25
c-136.667 -0.666992 -248.665 46.335 -335.998 141.002s-131 218.667 -131 372s39 281.333 117 384s175 165 291 187c-60 -36.667 -108.667 -98.334 -146 -185.001s-56.333 -194 -57 -322c0 -128 34 -231.333 102 -310c67.333 -78.667 155.666 -118.334 264.999 -119.001
c109.333 0 211 37.667 305 113c-27.333 -61.333 -76.333 -120 -147 -176s-158.334 -84.333 -263.001 -85z" />
    <glyph glyph-name="ecircumflex" unicode="&#xea;" horiz-adv-x="1069" 
d="M817 1163l-244 125l-239 -125l180 250h119zM969 596h-568c217.333 34 344.333 56 381 66c0 221.333 -46.333 354.333 -139 399c217.333 -18 326 -152.667 326 -404v-61zM557 -25c-136.667 -0.666992 -248.665 46.335 -335.998 141.002s-131 218.667 -131 372
s39 281.333 117 384s175 165 291 187c-60 -36.667 -108.667 -98.334 -146 -185.001s-56.333 -194 -57 -322c0 -128 34 -231.333 102 -310c67.333 -78.667 155.666 -118.334 264.999 -119.001c109.333 0 211 37.667 305 113c-27.333 -61.333 -76.333 -120 -147 -176
s-158.334 -84.333 -263.001 -85z" />
    <glyph glyph-name="edieresis" unicode="&#xeb;" horiz-adv-x="1069" 
d="M410 1210c-30 0 -56 11 -78 33s-33 48 -33 78s11 55.667 33 77s48 32 78 32c29.333 0 54.666 -10.667 75.999 -32s32 -47 32 -77s-10.667 -56 -32 -78s-46.666 -33 -75.999 -33zM719 1210c-30 0 -56 11 -78 33s-33 48 -33 78s11 55.667 33 77s48 32 78 32
s55.667 -10.667 77 -32s32 -47 32 -77s-10.667 -56 -32 -78s-47 -33 -77 -33zM969 596h-568c217.333 34 344.333 56 381 66c0 221.333 -46.333 354.333 -139 399c217.333 -18 326 -152.667 326 -404v-61zM557 -25c-136.667 -0.666992 -248.665 46.335 -335.998 141.002
s-131 218.667 -131 372s39 281.333 117 384s175 165 291 187c-60 -36.667 -108.667 -98.334 -146 -185.001s-56.333 -194 -57 -322c0 -128 34 -231.333 102 -310c67.333 -78.667 155.666 -118.334 264.999 -119.001c109.333 0 211 37.667 305 113
c-27.333 -61.333 -76.333 -120 -147 -176s-158.334 -84.333 -263.001 -85z" />
    <glyph glyph-name="igrave" unicode="&#xec;" horiz-adv-x="618" 
d="M219 258v463c0 88.667 -10.333 148 -31 178s-67 57.333 -139 82c118.667 12 239.667 41.333 363 88v-811c0 -83.333 9.33301 -141.333 28 -174s57.667 -60.667 117 -84h-483c60 23.333 99.333 51.333 118 84s27.667 90.667 27 174zM117 1413h209
c27.333 -91.333 75 -174.666 143 -249.999c-152.667 57.333 -270 140.666 -352 249.999z" />
    <glyph glyph-name="iacute" unicode="&#xed;" horiz-adv-x="618" 
d="M219 258v463c0 88.667 -10.333 148 -31 178s-67 57.333 -139 82c118.667 12 239.667 41.333 363 88v-811c0 -83.333 9.33301 -141.333 28 -174s57.667 -60.667 117 -84h-483c60 23.333 99.333 51.333 118 84s27.667 90.667 27 174zM270 1413h209
c-82 -109.333 -199.333 -192.666 -352 -249.999c68 75.333 115.667 158.666 143 249.999z" />
    <glyph glyph-name="icircumflex" unicode="&#xee;" horiz-adv-x="618" 
d="M549 1163l-244 125l-239 -125l180 250h119zM219 258v463c0 88.667 -10.333 148 -31 178s-67 57.333 -139 82c118.667 12 239.667 41.333 363 88v-811c0 -83.333 9.33301 -141.333 28 -174s57.667 -60.667 117 -84h-483c60 23.333 99.333 51.333 118 84
s27.667 90.667 27 174z" />
    <glyph glyph-name="idieresis" unicode="&#xef;" horiz-adv-x="618" 
d="M219 258v463c0 88.667 -10.333 148 -31 178s-67 57.333 -139 82c118.667 12 239.667 41.333 363 88v-811c0 -83.333 9.33301 -141.333 28 -174s57.667 -60.667 117 -84h-483c60 23.333 99.333 51.333 118 84s27.667 90.667 27 174zM141 1210c-30 0 -56 11 -78 33
s-32.667 48 -32 78c0 30 10.667 55.667 32 77c22 21.333 48 32 78 32s55.667 -10.667 77 -32s32 -47 32 -77s-10.667 -56 -32 -78s-47 -33 -77 -33zM451 1210c-30 0 -56 11 -78 33s-33 48 -33 78s11 55.667 33 77s48 32 78 32s55.667 -10.667 77 -32s31.666 -47 30.999 -77
c0.666992 -30 -9.66602 -56 -30.999 -78s-47 -33 -77 -33z" />
    <glyph glyph-name="eth" unicode="&#xf0;" horiz-adv-x="1247" 
d="M88 524c0 137.333 43.001 255.668 129.001 355.001c86 100 192 160.667 318 182c-70 -31.333 -125 -96.333 -165 -195s-60 -212 -60 -340s18.667 -243.333 56 -346c38.667 -102.667 95.667 -168 171 -196c-126.667 19.333 -233.334 79.666 -320.001 180.999
c-86 102 -129 221.667 -129 359zM1163 549.002c0 -154 -42.668 -281.668 -128.001 -383.001s-193.333 -162 -324 -182c76.667 30.667 134.334 96.667 173.001 198s58 213.666 58 336.999s-19.333 234.333 -58 333s-91.667 166.334 -159 203.001
c44 -12 73.333 -22.333 88 -31c-54.667 104 -134 212 -238 324l-190 -76l-25 53l170 68c-38 40.667 -90.333 90.334 -157 149.001c38 -9.33301 111.667 -51 221 -125l209 86l24 -53l-178 -72c151.333 -114.667 275 -243 371 -385s143.667 -290 143 -444z" />
    <glyph glyph-name="ntilde" unicode="&#xf1;" horiz-adv-x="1269" 
d="M477 1305c-53.333 0 -92.332 -25.333 -116.999 -76c0 34 15.333 73.333 46 118s72.667 66.667 126 66c33.333 0 80 -10 140 -30s100.333 -29.667 121 -29c53.333 0 92 23 116 69c-2.66699 -38 -19 -78 -49 -120c-30.667 -42 -67.334 -63 -110.001 -63
s-93.667 10.667 -153 32c-59.333 22 -99.333 33 -120 33zM215.001 258l0.00195312 428c0 106.667 -9.33301 176 -28 208s-65.334 61 -140.001 87c117.333 12 237.666 41.333 360.999 88v-811c0 -83.333 9.33301 -141.333 28 -174s57.667 -60.667 117 -84h-483
c60 23.333 99.333 51.333 118 84s27.667 90.667 27 174zM885.003 262l-0.00292969 459.002c-0.666992 75.333 -21 132.666 -61 171.999s-90 59 -150 59s-124.333 -10.667 -193 -32c100 100 196.333 150 289 150s167.334 -28.667 224.001 -86
c56.667 -56.667 85 -146.334 85 -269.001v-453c0 -83.333 9.33301 -142 28 -176s57.334 -62.667 116.001 -86h-482c58.667 23.333 97.334 52 116.001 86s28 92.667 28 176z" />
    <glyph glyph-name="ograve" unicode="&#xf2;" horiz-adv-x="1253" 
d="M432 1413h209c27.333 -91.333 75 -174.666 143 -249.999c-152.667 57.333 -270 140.666 -352 249.999zM88 524c0 132.667 40.668 247.999 122.001 345.999s182.666 160.333 303.999 187c-64 -40.667 -114 -111 -150 -211s-54 -207.333 -54 -322s16.667 -222.667 50 -324
c34.667 -101.333 84.667 -171.333 150 -210c-121.333 26 -222 88.333 -302 187s-120 214.334 -120 347.001zM942.001 523.999c0 113.333 -18.3311 220.332 -54.998 320.999s-87.334 171.334 -152.001 212.001c124 -27.333 226.333 -87.666 307 -180.999s121 -208 121 -344
s-40.333 -254 -121 -354c-80.667 -99.333 -181.667 -162 -303 -188c65.333 39.333 115.666 110 150.999 212c34.667 101.333 52 208.666 52 321.999z" />
    <glyph glyph-name="oacute" unicode="&#xf3;" horiz-adv-x="1253" 
d="M647 1413h209c-82 -109.333 -199.333 -192.666 -352 -249.999c68 75.333 115.667 158.666 143 249.999zM88 524c0 132.667 40.668 247.999 122.001 345.999s182.666 160.333 303.999 187c-64 -40.667 -114 -111 -150 -211s-54 -207.333 -54 -322s16.667 -222.667 50 -324
c34.667 -101.333 84.667 -171.333 150 -210c-121.333 26 -222 88.333 -302 187s-120 214.334 -120 347.001zM942.001 523.999c0 113.333 -18.3311 220.332 -54.998 320.999s-87.334 171.334 -152.001 212.001c124 -27.333 226.333 -87.666 307 -180.999s121 -208 121 -344
s-40.333 -254 -121 -354c-80.667 -99.333 -181.667 -162 -303 -188c65.333 39.333 115.666 110 150.999 212c34.667 101.333 52 208.666 52 321.999z" />
    <glyph glyph-name="ocircumflex" unicode="&#xf4;" horiz-adv-x="1253" 
d="M858 1163l-244 125l-239 -125l180 250h119zM88 524c0 132.667 40.668 247.999 122.001 345.999s182.666 160.333 303.999 187c-64 -40.667 -114 -111 -150 -211s-54 -207.333 -54 -322s16.667 -222.667 50 -324c34.667 -101.333 84.667 -171.333 150 -210
c-121.333 26 -222 88.333 -302 187s-120 214.334 -120 347.001zM942.001 523.999c0 113.333 -18.3311 220.332 -54.998 320.999s-87.334 171.334 -152.001 212.001c124 -27.333 226.333 -87.666 307 -180.999s121 -208 121 -344s-40.333 -254 -121 -354
c-80.667 -99.333 -181.667 -162 -303 -188c65.333 39.333 115.666 110 150.999 212c34.667 101.333 52 208.666 52 321.999z" />
    <glyph glyph-name="otilde" unicode="&#xf5;" horiz-adv-x="1253" 
d="M467 1305c-52 0 -91 -25.333 -117 -76c0 34 15.333 73.333 46 118s72.667 66.667 126 66c34.667 0 81.334 -10 140.001 -30s98.667 -29.667 120 -29c53.333 0 92.333 23 117 69c-2.66699 -38 -19 -78 -49 -120c-30.667 -42 -67.334 -63 -110.001 -63
s-93.667 10.667 -153 32c-59.333 22 -99.333 33 -120 33zM88 524c0 132.667 40.668 247.999 122.001 345.999s182.666 160.333 303.999 187c-64 -40.667 -114 -111 -150 -211s-54 -207.333 -54 -322s16.667 -222.667 50 -324c34.667 -101.333 84.667 -171.333 150 -210
c-121.333 26 -222 88.333 -302 187s-120 214.334 -120 347.001zM942.001 523.999c0 113.333 -18.3311 220.332 -54.998 320.999s-87.334 171.334 -152.001 212.001c124 -27.333 226.333 -87.666 307 -180.999s121 -208 121 -344s-40.333 -254 -121 -354
c-80.667 -99.333 -181.667 -162 -303 -188c65.333 39.333 115.666 110 150.999 212c34.667 101.333 52 208.666 52 321.999z" />
    <glyph glyph-name="odieresis" unicode="&#xf6;" horiz-adv-x="1253" 
d="M459 1210c-30 0 -56 11 -78 33s-33 48 -33 78s11 55.667 33 77s48 32 78 32s55.667 -10.667 77 -32s32 -47 32 -77s-10.667 -56 -32 -78s-47 -33 -77 -33zM768 1210c-30 0 -56 11 -78 33s-33 48 -33 78s11 55.667 33 77s48 32 78 32s55.667 -10.667 77 -32s32 -47 32 -77
s-10.667 -56 -32 -78s-47 -33 -77 -33zM88 524c0 132.667 40.668 247.999 122.001 345.999s182.666 160.333 303.999 187c-64 -40.667 -114 -111 -150 -211s-54 -207.333 -54 -322s16.667 -222.667 50 -324c34.667 -101.333 84.667 -171.333 150 -210
c-121.333 26 -222 88.333 -302 187s-120 214.334 -120 347.001zM942.001 523.999c0 113.333 -18.3311 220.332 -54.998 320.999s-87.334 171.334 -152.001 212.001c124 -27.333 226.333 -87.666 307 -180.999s121 -208 121 -344s-40.333 -254 -121 -354
c-80.667 -99.333 -181.667 -162 -303 -188c65.333 39.333 115.666 110 150.999 212c34.667 101.333 52 208.666 52 321.999z" />
    <glyph glyph-name="divide" unicode="&#xf7;" 
d="M1010 514h-852v127h852v-127zM584 852c-36.667 0 -68.666 13.333 -95.999 40c-26.667 26.667 -40 58 -40 94s13.333 67.667 40 95s58.667 41 96 41s69 -13.667 95 -41c26.667 -27.333 40 -59 40 -95s-13.333 -67.333 -40 -94s-58.334 -40 -95.001 -40zM719.001 160
c0 -36.667 -13.332 -68 -39.999 -94s-58.334 -39 -95.001 -39s-68.667 13 -96 39c-26.667 26 -39.667 57.333 -39 94c0 36.667 13 68.334 39 95.001c26.667 26.667 58.667 40 96 40s69 -13.333 95 -40c26.667 -26.667 40 -58.334 40 -95.001z" />
    <glyph glyph-name="oslash" unicode="&#xf8;" horiz-adv-x="1253" 
d="M88 524c0 132.667 40.6699 248 122.003 346s182.666 160.333 303.999 187c-64 -40.667 -114 -111 -150 -211s-54 -209.667 -54 -329s19.667 -229 59 -329l479 742c-32.667 56 -70.334 98.333 -113.001 127c61.333 -16.667 113.333 -36.667 156 -60l76 119l59 -41
l-76 -117c142 -101.333 213 -246 213 -434c0 -130.667 -40.333 -246 -121 -346s-181.667 -162.667 -303 -188c65.333 39.333 115.666 110 150.999 212c34.667 102.667 52 210.667 52 324s-20.333 222 -61 326l-478 -741c28.667 -57.333 64.334 -97.666 107.001 -120.999
c-54.667 9.33301 -104.667 27.666 -150 54.999l-73 -113l-60 37l74 117c-64.667 50.667 -116.334 114 -155.001 190s-58 158.667 -58 248z" />
    <glyph glyph-name="ugrave" unicode="&#xf9;" horiz-adv-x="1216" 
d="M416 1413h209c27.333 -91.333 75 -174.666 143 -249.999c-152.667 57.333 -270 140.666 -352 249.999zM842 721c0 88.667 -10 148 -30 178s-66 58 -138 84c116 9.33301 236 38 360 86v-709c0 -109.333 9.66699 -180 29 -212s66.333 -59.333 141 -82
c-125.333 -16.667 -246 -47 -362 -91v746zM199 309l0.000976562 375c0 108 -9.33301 178 -28 210s-65.334 61.667 -140.001 89c113.333 9.33301 234 38 362 86v-762c0.666992 -66.667 21 -118 61 -154c40 -36.667 89 -55 147 -55s107.667 9 149 27
c-82 -100 -169 -150 -261 -150c-193.333 0 -290 111.333 -290 334z" />
    <glyph glyph-name="uacute" unicode="&#xfa;" horiz-adv-x="1216" 
d="M649 1413h209c-82 -109.333 -199.333 -192.666 -352 -249.999c68 75.333 115.667 158.666 143 249.999zM842 721c0 88.667 -10 148 -30 178s-66 58 -138 84c116 9.33301 236 38 360 86v-709c0 -109.333 9.66699 -180 29 -212s66.333 -59.333 141 -82
c-125.333 -16.667 -246 -47 -362 -91v746zM199 309l0.000976562 375c0 108 -9.33301 178 -28 210s-65.334 61.667 -140.001 89c113.333 9.33301 234 38 362 86v-762c0.666992 -66.667 21 -118 61 -154c40 -36.667 89 -55 147 -55s107.667 9 149 27
c-82 -100 -169 -150 -261 -150c-193.333 0 -290 111.333 -290 334z" />
    <glyph glyph-name="ucircumflex" unicode="&#xfb;" horiz-adv-x="1216" 
d="M848 1163l-244 125l-239 -125l180 250h119zM842 721c0 88.667 -10 148 -30 178s-66 58 -138 84c116 9.33301 236 38 360 86v-709c0 -109.333 9.66699 -180 29 -212s66.333 -59.333 141 -82c-125.333 -16.667 -246 -47 -362 -91v746zM199 309l0.000976562 375
c0 108 -9.33301 178 -28 210s-65.334 61.667 -140.001 89c113.333 9.33301 234 38 362 86v-762c0.666992 -66.667 21 -118 61 -154c40 -36.667 89 -55 147 -55s107.667 9 149 27c-82 -100 -169 -150 -261 -150c-193.333 0 -290 111.333 -290 334z" />
    <glyph glyph-name="udieresis" unicode="&#xfc;" horiz-adv-x="1216" 
d="M440 1210c-30 0 -56 11 -78 33s-32.667 48 -32 78c0 30 10.667 55.667 32 77c22 21.333 48 32 78 32s55.667 -10.667 77 -32s32 -47 32 -77s-10.667 -56 -32 -78s-47 -33 -77 -33zM750 1210c-30 0 -56 11 -78 33s-33 48 -33 78s11 55.667 33 77s48 32 78 32
c29.333 0 54.666 -10.667 75.999 -32s32 -47 32 -77s-10.667 -56 -32 -78s-46.666 -33 -75.999 -33zM842 721c0 88.667 -10 148 -30 178s-66 58 -138 84c116 9.33301 236 38 360 86v-709c0 -109.333 9.66699 -180 29 -212s66.333 -59.333 141 -82
c-125.333 -16.667 -246 -47 -362 -91v746zM199 309l0.000976562 375c0 108 -9.33301 178 -28 210s-65.334 61.667 -140.001 89c113.333 9.33301 234 38 362 86v-762c0.666992 -66.667 21 -118 61 -154c40 -36.667 89 -55 147 -55s107.667 9 149 27
c-82 -100 -169 -150 -261 -150c-193.333 0 -290 111.333 -290 334z" />
    <glyph glyph-name="yacute" unicode="&#xfd;" horiz-adv-x="1142" 
d="M666 1413h208c-82 -109.333 -199.333 -192.666 -352 -249.999c68.667 75.333 116.667 158.666 144 249.999zM733 1044l406 -0.000976562c-40.667 -19.333 -74 -39.666 -100 -60.999c-26 -22 -60.333 -73 -103 -153s-91 -192.667 -145 -338c54 188 81 311.333 81 370
s-10.667 101 -32 127c-22 26 -57.667 44.333 -107 55zM365 -381.001l-0.000976562 -12c20.667 4 39 10 55 18c16 8.66699 36.667 29 62 61s49 74 71 126c-61.333 -202 -148.666 -303.333 -261.999 -304c-48 0 -85.333 12.333 -112 37s-40 53.667 -40 87s10.333 61.333 31 84
s49 34 85 34s63.333 -12.333 82 -37s28 -56 28 -94zM382.999 909.999c0 -38.667 11.666 -91.999 34.999 -159.999l223 -680l-25 -70h-139l-274 776c-34 93.333 -62.667 156.666 -86 189.999s-57.666 59.333 -102.999 78h488c-44 -16 -74.667 -32.667 -92 -50
s-26.333 -45.333 -27 -84z" />
    <glyph glyph-name="thorn" unicode="&#xfe;" horiz-adv-x="1255" 
d="M1178 584c0 -180 -54.6631 -322.666 -163.996 -427.999s-236.333 -165 -381 -179c95.333 26 175.666 89.667 240.999 191s98 220 98 356s-32.667 242 -98 318c-66.667 75.333 -147 112.666 -241 111.999c-54.667 0 -109.334 -12 -164.001 -36
c87.333 101.333 187.666 152 300.999 152s209.666 -45.667 288.999 -137c79.333 -90.667 119 -207 119 -349zM184.004 1176c0 90 -9.66797 150.001 -29.001 180.001c-20 30 -66.333 56.667 -139 80c124 15.333 245.667 46.666 365 93.999v-1460
c28.667 -36.667 69 -66.667 121 -90c-45.333 2.66699 -85.666 6 -120.999 10v-201c0 -83.333 11 -141.666 33 -174.999s67 -61.666 135 -84.999h-510c60 23.333 99.333 51.666 118 84.999s27.667 91.666 27 174.999v1387z" />
    <glyph glyph-name="ydieresis" unicode="&#xff;" horiz-adv-x="1142" 
d="M457 1210c-30 0 -56 11 -78 33s-33 48 -33 78s11 55.667 33 77s48 32 78 32s55.667 -10.667 77 -32s32 -47 32 -77s-10.667 -56 -32 -78s-47 -33 -77 -33zM766 1210c-30 0 -56.001 11 -78.001 33s-33 48 -33 78s11 55.667 33 77s48 32 78 32s55.667 -10.667 77 -32
c20.667 -21.333 31 -47 31 -77s-10.667 -56 -32 -78s-46.666 -33 -75.999 -33zM732.999 1044l406 -0.000976562c-40.667 -19.333 -74 -39.666 -100 -60.999c-26 -22 -60.333 -73 -103 -153s-91 -192.667 -145 -338c54 188 81 311.333 81 370s-10.667 101 -32 127
c-22 26 -57.667 44.333 -107 55zM364.999 -381.001l-0.000976562 -12c20.667 4 39 10 55 18c16 8.66699 36.667 29 62 61s49 74 71 126c-61.333 -202 -148.666 -303.333 -261.999 -304c-48 0 -85.333 12.333 -112 37s-40 53.667 -40 87s10.333 61.333 31 84s49 34 85 34
s63.333 -12.333 82 -37s28 -56 28 -94zM382.998 909.999c0 -38.667 11.666 -91.999 34.999 -159.999l223 -680l-25 -70h-139l-274 776c-34 93.333 -62.667 156.666 -86 189.999s-57.666 59.333 -102.999 78h488c-44 -16 -74.667 -32.667 -92 -50s-26.333 -45.333 -27 -84z
" />
    <glyph glyph-name="Amacron" unicode="&#x100;" horiz-adv-x="1439" 
d="M993 1618h-495v98h495v-98zM301 186c-0.666992 -53.333 9 -93.333 29 -120s56 -48.667 108 -66h-438c45.333 18.667 82 38 110 58s62.333 58.667 103 116s81.667 134.666 123 231.999c-23.333 -93.333 -35 -166.666 -35 -219.999zM1438 0h-520.001
c42 12 72.333 27.667 91 47s27.667 46 27 80c0 57.333 -34.667 185 -104 383h-565l24 65h516l-266 766l25 82h151l342 -958c60.667 -173.333 108.334 -288 143.001 -344s80 -96.333 136 -121z" />
    <glyph glyph-name="amacron" unicode="&#x101;" horiz-adv-x="1060" 
d="M764 1241h-496v98h496v-98zM293 1022c-27.333 -23.333 -48.668 -55.334 -64.001 -96.001c65.333 -18 98.333 -54.333 99 -109c0 -31.333 -10.667 -56.666 -32 -75.999s-46.666 -29 -75.999 -29s-55 10 -77 30s-33 47.667 -33 83s17.333 71 52 107c34 36 77.667 66 131 90
zM79.998 229.999c0 76 29.3311 142.334 87.998 199.001s153 98.667 283 126c-53.333 -24.667 -95.666 -60.334 -126.999 -107.001c-32 -46.667 -48 -101 -48 -163c0 -63.333 20 -113 60 -149s91 -54 153 -54c34.667 0 72.334 9.66699 113.001 29
c-82 -90 -163.667 -135 -245 -135c-80.667 0 -147 23 -199 69c-52 47.333 -78 109 -78 185zM671.996 158l-0.000976562 374c-10.667 12 -38.667 26.333 -84 43l84 15v174c0 84.667 -20 152.667 -60 204s-98 82.333 -174 93c46.667 5.33301 80.334 8 101.001 8
c103.333 0 183.666 -26 240.999 -78s86 -127.667 86 -227v-516c0 -78.667 17.667 -129.667 53 -153c20.667 -12.667 39 -21 55 -25s41.667 -9 77 -15c-27.333 -18 -63.666 -35 -108.999 -51c-107.333 -37.333 -184 -30 -230 22c-26.667 29.333 -40 73.333 -40 132z" />
    <glyph glyph-name="Abreve" unicode="&#x102;" horiz-adv-x="1439" 
d="M744 1665c45.333 0 91.334 11.333 138.001 34c47.333 22.667 82.333 53.667 105 93c-11.333 -68 -37.666 -126.667 -78.999 -176s-95.333 -74 -162 -74s-121.334 24.667 -164.001 74c-41.333 49.333 -67.333 108 -78 176c24 -40.667 58.667 -72 104 -94
s90.666 -33 135.999 -33zM301.001 186c-0.666992 -53.333 9 -93.333 29 -120s56 -48.667 108 -66h-438c45.333 18.667 82 38 110 58s62.333 58.667 103 116s81.667 134.666 123 231.999c-23.333 -93.333 -35 -166.666 -35 -219.999zM1438 0h-520.001
c42 12 72.333 27.667 91 47s27.667 46 27 80c0 57.333 -34.667 185 -104 383h-565l24 65h516l-266 766l25 82h151l342 -958c60.667 -173.333 108.334 -288 143.001 -344s80 -96.333 136 -121z" />
    <glyph glyph-name="abreve" unicode="&#x103;" horiz-adv-x="1060" 
d="M514 1288c45.333 0 91.334 11.333 138.001 34s82 53.667 106 93c-12 -68 -38.667 -126.667 -80 -176s-95.333 -74 -162 -74s-121 24.667 -163 74s-68.333 108 -79 176c23.333 -40.667 58 -72 104 -94c45.333 -22 90.666 -33 135.999 -33zM293.001 1022
c-27.333 -23.333 -48.668 -55.334 -64.001 -96.001c65.333 -18 98.333 -54.333 99 -109c0 -31.333 -10.667 -56.666 -32 -75.999s-46.666 -29 -75.999 -29s-55 10 -77 30s-33 47.667 -33 83s17.333 71 52 107c34 36 77.667 66 131 90zM79.999 229.999
c0 76 29.3311 142.334 87.998 199.001s153 98.667 283 126c-53.333 -24.667 -95.666 -60.334 -126.999 -107.001c-32 -46.667 -48 -101 -48 -163c0 -63.333 20 -113 60 -149s91 -54 153 -54c34.667 0 72.334 9.66699 113.001 29c-82 -90 -163.667 -135 -245 -135
c-80.667 0 -147 23 -199 69c-52 47.333 -78 109 -78 185zM671.997 158l-0.000976562 374c-10.667 12 -38.667 26.333 -84 43l84 15v174c0 84.667 -20 152.667 -60 204s-98 82.333 -174 93c46.667 5.33301 80.334 8 101.001 8c103.333 0 183.666 -26 240.999 -78
s86 -127.667 86 -227v-516c0 -78.667 17.667 -129.667 53 -153c20.667 -12.667 39 -21 55 -25s41.667 -9 77 -15c-27.333 -18 -63.666 -35 -108.999 -51c-107.333 -37.333 -184 -30 -230 22c-26.667 29.333 -40 73.333 -40 132z" />
    <glyph glyph-name="Aogonek" unicode="&#x104;" horiz-adv-x="1439" 
d="M301 186c-0.666992 -53.333 9 -93.333 29 -120s56 -48.667 108 -66h-438c45.333 18.667 82 38 110 58s62.333 58.667 103 116s81.667 134.666 123 231.999c-23.333 -93.333 -35 -166.666 -35 -219.999zM1260 -318c0 -66.667 31.3311 -100.001 93.998 -100.001
c22 0 41 2.66699 57 8c-13.333 -22.667 -33.666 -42 -60.999 -58c-26.667 -16 -60 -24 -100 -24s-73.667 13.333 -101 40s-41 58.667 -41 96c0 54.667 34 116 102 184s139.667 125.333 215 172h-507c42 12 72.333 27.667 91 47s27.667 46 27 80
c0 57.333 -34.667 185 -104 383h-565l24 65h516l-266 766l25 82h151l342 -958c60.667 -173.333 108.334 -288 143.001 -344s80 -96.333 136 -121c-44 -49.333 -84.667 -105.666 -122 -168.999s-56 -113 -56 -149z" />
    <glyph glyph-name="aogonek" unicode="&#x105;" horiz-adv-x="1060" 
d="M293 1022c-27.333 -23.333 -48.668 -55.334 -64.001 -96.001c65.333 -18 98.333 -54.333 99 -109c0 -31.333 -10.667 -56.666 -32 -75.999s-46.666 -29 -75.999 -29s-55 10 -77 30s-33 47.667 -33 83s17.333 71 52 107c34 36 77.667 66 131 90zM79.998 229.999
c0 76 29.3311 142.334 87.998 199.001s153 98.667 283 126c-53.333 -24.667 -95.666 -60.334 -126.999 -107.001c-32 -46.667 -48 -101 -48 -163c0 -63.333 20 -113 60 -149s91 -54 153 -54c34.667 0 72.334 9.66699 113.001 29c-82 -90 -163.667 -135 -245 -135
c-80.667 0 -147 23 -199 69c-52 47.333 -78 109 -78 185zM671.996 158l0.000976562 374c-10.667 12 -38.667 26.333 -84 43l84 15v174c0 84.667 -20 152.667 -60 204s-98 82.333 -174 93c46.667 5.33301 80.334 8 101.001 8c103.333 0 183.666 -26 240.999 -78
s86 -127.667 86 -227v-516c0 -78.667 17.667 -129.667 53 -153c20.667 -12.667 39 -21 55 -25s41.667 -9 77 -15c-44 -50 -86 -112.333 -126 -187s-60.333 -142 -61 -202c0 -24 8.66699 -44 26 -60s38.666 -24 63.999 -24s46 2.66699 62 8c-13.333 -22.667 -34 -42 -62 -58
s-61.333 -24 -100 -24c-40 0 -73.333 13.333 -100 40s-40.334 58.667 -41.001 96c0 64 34.333 135 103 213s141.334 140.667 218.001 188c-75.333 -42 -141.333 -63 -198 -63c-109.333 0 -164 58.667 -164 176z" />
    <glyph glyph-name="Cacute" unicode="&#x106;" horiz-adv-x="1437" 
d="M913 1790h209c-82 -109.333 -199.333 -192.666 -352 -249.999c68 75.333 115.667 158.666 143 249.999zM1354 381l-29 -326.001c-66.667 -35.333 -171 -61.333 -313 -78c109.333 38.667 223.333 173.334 342 404.001zM1305 1360l1.99902 -311
c-114.667 216 -226 343.667 -334 383c140.667 -14 251.334 -38 332.001 -72zM93.999 680.999c0 192.667 61.999 356.331 185.999 490.998s273 218.334 447 251.001c-117.333 -46 -213.666 -135 -288.999 -267c-74.667 -132 -112 -284 -112 -456s42.667 -326 128 -462
c85.333 -136.667 193.333 -222.667 324 -258c-200 20.667 -364 94.334 -492 221.001s-192 286.667 -192 480z" />
    <glyph glyph-name="cacute" unicode="&#x107;" horiz-adv-x="952" 
d="M604 1413h209c-82 -109.333 -199.333 -192.666 -352 -249.999c68 75.333 115.667 158.666 143 249.999zM780 760c-35.333 0 -65.002 11.667 -89.002 35s-36 52 -36 86c0 52.667 24 92.667 72 120c-15.333 26 -34.333 47.333 -57 64
c66.667 -8 122.334 -27.333 167.001 -58c44.667 -31.333 67 -68.333 67 -111s-12 -76 -36 -100c-23.333 -24 -52.666 -36 -87.999 -36zM542.998 -25c-130 0.666992 -238.332 48.333 -324.999 143s-130 221.334 -130 380.001s39 288 117 388s180.333 160.333 307 181
c-70.667 -34 -124.667 -93.333 -162 -178s-56.333 -181.667 -57 -291c-0.666992 -152.667 35.666 -269.334 108.999 -350.001s162 -121 266 -121s194.667 32.667 272 98c-26 -58.667 -73 -115 -141 -169s-153.333 -81 -256 -81z" />
    <glyph glyph-name="Ccircumflex" unicode="&#x108;" horiz-adv-x="1437" 
d="M1114 1540l-244 125l-239 -125l180 250h119zM1354 381l-29 -326.001c-66.667 -35.333 -171 -61.333 -313 -78c109.333 38.667 223.333 173.334 342 404.001zM1305 1360l1.99902 -311c-114.667 216 -226 343.667 -334 383c140.667 -14 251.334 -38 332.001 -72z
M93.999 680.999c0 192.667 61.999 356.331 185.999 490.998s273 218.334 447 251.001c-117.333 -46 -213.666 -135 -288.999 -267c-74.667 -132 -112 -284 -112 -456s42.667 -326 128 -462c85.333 -136.667 193.333 -222.667 324 -258c-200 20.667 -364 94.334 -492 221.001
s-192 286.667 -192 480z" />
    <glyph glyph-name="ccircumflex" unicode="&#x109;" horiz-adv-x="952" 
d="M803 1163l-244 125l-240 -125l181 250h118zM780 760c-35.333 0 -65.002 11.667 -89.002 35s-36 52 -36 86c0 52.667 24 92.667 72 120c-15.333 26 -34.333 47.333 -57 64c66.667 -8 122.334 -27.333 167.001 -58c44.667 -31.333 67 -68.333 67 -111s-12 -76 -36 -100
c-23.333 -24 -52.666 -36 -87.999 -36zM542.998 -25c-130 0.666992 -238.332 48.333 -324.999 143s-130 221.334 -130 380.001s39 288 117 388s180.333 160.333 307 181c-70.667 -34 -124.667 -93.333 -162 -178s-56.333 -181.667 -57 -291
c-0.666992 -152.667 35.666 -269.334 108.999 -350.001s162 -121 266 -121s194.667 32.667 272 98c-26 -58.667 -73 -115 -141 -169s-153.333 -81 -256 -81z" />
    <glyph glyph-name="Cdotaccent" unicode="&#x10a;" horiz-adv-x="1437" 
d="M870 1573c-30.667 0 -57.335 11.333 -80.002 34s-34 49.667 -34 81c0 30.667 11.333 57.334 34 80.001s49.334 34 80.001 34s58 -11.333 82 -34c23.333 -22.667 35 -49.334 35 -80.001s-11.667 -57.667 -35 -81c-23.333 -22.667 -50.666 -34 -81.999 -34zM1354 381
l-29 -326.001c-66.667 -35.333 -171 -61.333 -313 -78c109.333 38.667 223.333 173.334 342 404.001zM1305 1360l1.99902 -311c-114.667 216 -226 343.667 -334 383c140.667 -14 251.334 -38 332.001 -72zM93.998 680.999c0 192.667 61.999 356.331 185.999 490.998
s273 218.334 447 251.001c-117.333 -46 -213.666 -135 -288.999 -267c-74.667 -132 -112 -284 -112 -456s42.667 -326 128 -462c85.333 -136.667 193.333 -222.667 324 -258c-200 20.667 -364 94.334 -492 221.001s-192 286.667 -192 480z" />
    <glyph glyph-name="cdotaccent" unicode="&#x10b;" horiz-adv-x="952" 
d="M559 1196c-31.333 0 -58.333 11.333 -81 34s-34 49.667 -34 81s11.333 58.333 34 81s49.667 34 81 34s58.666 -11.333 81.999 -34s35 -49.667 35 -81s-11.667 -58.333 -35 -81s-50.666 -34 -81.999 -34zM780 760c-35.333 0 -65.002 11.667 -89.002 35s-36 52 -36 86
c0 52.667 24 92.667 72 120c-15.333 26 -34.333 47.333 -57 64c66.667 -8 122.334 -27.333 167.001 -58c44.667 -31.333 67 -68.333 67 -111s-12 -76 -36 -100c-23.333 -24 -52.666 -36 -87.999 -36zM542.998 -25c-130 0.666992 -238.332 48.333 -324.999 143
s-130 221.334 -130 380.001s39 288 117 388s180.333 160.333 307 181c-70.667 -34 -124.667 -93.333 -162 -178s-56.333 -181.667 -57 -291c-0.666992 -152.667 35.666 -269.334 108.999 -350.001s162 -121 266 -121s194.667 32.667 272 98c-26 -58.667 -73 -115 -141 -169
s-153.333 -81 -256 -81z" />
    <glyph glyph-name="Ccaron" unicode="&#x10c;" horiz-adv-x="1437" 
d="M930 1540h-119l-180 250l239 -127l244 127zM1354 381l-29 -326.001c-66.667 -35.333 -171 -61.333 -313 -78c109.333 38.667 223.333 173.334 342 404.001zM1305 1360l1.99902 -311c-114.667 216 -226 343.667 -334 383c140.667 -14 251.334 -38 332.001 -72z
M93.999 680.999c0 192.667 61.999 356.331 185.999 490.998s273 218.334 447 251.001c-117.333 -46 -213.666 -135 -288.999 -267c-74.667 -132 -112 -284 -112 -456s42.667 -326 128 -462c85.333 -136.667 193.333 -222.667 324 -258c-200 20.667 -364 94.334 -492 221.001
s-192 286.667 -192 480z" />
    <glyph glyph-name="ccaron" unicode="&#x10d;" horiz-adv-x="952" 
d="M618 1163h-118l-181 250l240 -127l244 127zM780 760c-35.333 0 -65.002 11.667 -89.002 35s-36 52 -36 86c0 52.667 24 92.667 72 120c-15.333 26 -34.333 47.333 -57 64c66.667 -8 122.334 -27.333 167.001 -58c44.667 -31.333 67 -68.333 67 -111s-12 -76 -36 -100
c-23.333 -24 -52.666 -36 -87.999 -36zM542.998 -25c-130 0.666992 -238.332 48.333 -324.999 143s-130 221.334 -130 380.001s39 288 117 388s180.333 160.333 307 181c-70.667 -34 -124.667 -93.333 -162 -178s-56.333 -181.667 -57 -291
c-0.666992 -152.667 35.666 -269.334 108.999 -350.001s162 -121 266 -121s194.667 32.667 272 98c-26 -58.667 -73 -115 -141 -169s-153.333 -81 -256 -81z" />
    <glyph glyph-name="Dcaron" unicode="&#x10e;" horiz-adv-x="1591" 
d="M766 1540h-119l-180 250l240 -127l243 127zM1284 718c0 178.667 -46.668 331.998 -140.001 459.998c-93.333 126.667 -227 203.667 -401 231c220 -21.333 399.667 -80.333 539 -177c74 -51.333 131.333 -119.666 172 -204.999s61.334 -184 62.001 -296
c0 -221.333 -71.333 -393.666 -214 -516.999s-331 -194 -565 -212c176 46.667 311.333 133 406 259c94 126 141 278.333 141 457zM445.999 -0.00195312h-376c70.667 23.333 117 53 139 89s33 99.333 33 190v856c0 90 -11 152.667 -33 188s-68.333 65.333 -139 90h376v-1413z
" />
    <glyph glyph-name="dcaron" unicode="&#x10f;" horiz-adv-x="1316" 
d="M1196 1347c0 27.333 8.99902 49.668 26.999 67.001s40.333 26 67 26s49.334 -8.66699 68.001 -26c17.333 -17.333 26 -40 26 -68s-14.667 -84.667 -44 -170c-29.333 -84.667 -46 -150.334 -50 -197.001c-4 46.667 -20.667 112.667 -50 198s-44 142 -44 170z
M81.999 484.002c0 157.333 48.667 288.333 146 393c97.333 105.333 218.666 167.333 363.999 186c-91.333 -30 -165.333 -92.333 -222 -187s-85 -207.667 -85 -339s34.667 -238 104 -320s159.333 -123 270 -123c34.667 0.666992 72.334 7.66699 113.001 21
c-74 -92.667 -161.333 -139.334 -262 -140.001c-117.333 0.666992 -218 46.334 -302 137.001s-126 214.667 -126 372zM882.999 1176c0 90 -11 150.333 -33 181s-70.333 57 -145 79c132.667 13.333 258.667 44.666 378 93.999v-1163c0 -114 9 -187 27 -219
s65 -59.333 141 -82c-114 -15.333 -236 -45.666 -366 -90.999l-2 973c-30 48 -72.333 85.667 -127 113c52 -4 94.333 -8.66699 127 -14v129z" />
    <glyph glyph-name="Dcroat" unicode="&#x110;" horiz-adv-x="1591" 
d="M1284 718c0 178.667 -46.668 331.998 -140.001 459.998c-93.333 126.667 -227 203.667 -401 231c220 -21.333 399.667 -80.333 539 -177c74 -51.333 131.333 -119.666 172 -204.999s61.334 -184 62.001 -296c0 -221.333 -71.333 -393.666 -214 -516.999
s-331 -194 -565 -212c176 46.667 311.333 133 406 259c94 126 141 278.333 141 457zM445.999 -0.00195312h-376c70.667 23.333 117 53 139 89s33 99.333 33 190v411h-156v68h156v377c0 90 -11 152.667 -33 188s-68.333 65.333 -139 90h376v-655h289v-68h-289v-690z" />
    <glyph glyph-name="dcroat" unicode="&#x111;" horiz-adv-x="1257" 
d="M82 484c0 157.333 48.667 288.333 146 393c97.333 105.333 218.666 167.333 363.999 186c-91.333 -30 -165.333 -92.333 -222 -187s-85 -207.667 -85 -339s34.667 -238 104 -320s159.333 -123 270 -123c34.667 0.666992 72.334 7.66699 113.001 21
c-74 -92.667 -161.333 -139.334 -262 -140.001c-117.333 0.666992 -218 46.334 -302 137.001s-126 214.667 -126 372zM883 1186h-351.001v71h347c-5.33301 54.667 -19.666 93.334 -42.999 116.001s-67 43.667 -131 63c132.667 13.333 258.667 44.666 378 93.999v-1163
c0 -114 9 -187 27 -219s65 -59.333 141 -82c-104.667 -14 -215 -40 -331 -78l-37 -13v973c-30 48 -72.333 85.667 -127 113c52 -4 94.333 -8.66699 127 -14v139z" />
    <glyph glyph-name="Emacron" unicode="&#x112;" horiz-adv-x="1183" 
d="M834 1618h-496v98h496v-98zM1016 1413l-0.000976562 -302.999c-57.333 83.333 -109.666 148.666 -156.999 195.999s-103 83 -167 107h324zM923.999 891.001v-330c-86 82 -188.667 138 -308 168c127.333 28.667 230 82.667 308 162zM1075 0.000976562l-354 0.000976562
c80.667 31.333 147 69.666 199 114.999s117.333 118.333 196 219zM448.999 0.00195312l-377 -0.000976562c69.333 23.333 115 53 137 89s33 99.333 33 190v856c0 87.333 -11 149.333 -33 186s-67.667 67.334 -137 92.001h377v-1413z" />
    <glyph glyph-name="emacron" unicode="&#x113;" horiz-adv-x="1069" 
d="M825 1241h-495v98h495v-98zM969 596h-568c217.333 34 344.333 56 381 66c0 221.333 -46.333 354.333 -139 399c217.333 -18 326 -152.667 326 -404v-61zM557 -25c-136.667 -0.666992 -248.665 46.335 -335.998 141.002s-131 218.667 -131 372s39 281.333 117 384
s175 165 291 187c-60 -36.667 -108.667 -98.334 -146 -185.001s-56.333 -194 -57 -322c0 -128 34 -231.333 102 -310c67.333 -78.667 155.666 -118.334 264.999 -119.001c109.333 0 211 37.667 305 113c-27.333 -61.333 -76.333 -120 -147 -176
s-158.334 -84.333 -263.001 -85z" />
    <glyph glyph-name="Ebreve" unicode="&#x114;" horiz-adv-x="1183" 
d="M584 1665c45.333 0 91.334 11.333 138.001 34s81.667 53.667 105 93c-12 -68 -38.333 -126.667 -79 -176c-41.333 -49.333 -95.333 -74 -162 -74s-121 24.667 -163 74s-68.333 108 -79 176c24 -40.667 58.667 -72 104 -94s90.666 -33 135.999 -33zM1016 1413
l-0.000976562 -302.999c-57.333 83.333 -109.666 148.666 -156.999 195.999s-103 83 -167 107h324zM924 891.001v-330c-86 82 -188.667 138 -308 168c127.333 28.667 230 82.667 308 162zM1075 0.000976562l-354 0.000976562c80.667 31.333 147 69.666 199 114.999
s117.333 118.333 196 219zM449 0.00195312l-377 -0.000976562c69.333 23.333 115 53 137 89s33 99.333 33 190v856c0 87.333 -11 149.333 -33 186s-67.667 67.334 -137 92.001h377v-1413z" />
    <glyph glyph-name="ebreve" unicode="&#x115;" horiz-adv-x="1069" 
d="M576 1288c45.333 0 91.333 11.333 138 34s81.667 53.667 105 93c-11.333 -68 -37.666 -126.667 -78.999 -176s-95.333 -74 -162 -74s-121 24.667 -163 74s-68.333 108 -79 176c24 -40.667 58.667 -72 104 -94s90.666 -33 135.999 -33zM969 596h-568
c217.333 34 344.333 56 381 66c0 221.333 -46.333 354.333 -139 399c217.333 -18 326 -152.667 326 -404v-61zM557 -25c-136.667 -0.666992 -248.665 46.335 -335.998 141.002s-131 218.667 -131 372s39 281.333 117 384s175 165 291 187
c-60 -36.667 -108.667 -98.334 -146 -185.001s-56.333 -194 -57 -322c0 -128 34 -231.333 102 -310c67.333 -78.667 155.666 -118.334 264.999 -119.001c109.333 0 211 37.667 305 113c-27.333 -61.333 -76.333 -120 -147 -176s-158.334 -84.333 -263.001 -85z" />
    <glyph glyph-name="Edotaccent" unicode="&#x116;" horiz-adv-x="1183" 
d="M582 1573c-31.333 0 -58.332 11.333 -80.999 34s-34 49.667 -34 81c0 30.667 11.333 57.334 34 80.001s49.667 34 81 34s58.666 -11.333 81.999 -34c22.667 -22.667 34 -49.334 34 -80.001s-11.333 -57.667 -34 -81c-22.667 -22.667 -50 -34 -82 -34zM1016 1413
l-0.000976562 -302.999c-57.333 83.333 -109.666 148.666 -156.999 195.999s-103 83 -167 107h324zM924 891.001v-330c-86 82 -188.667 138 -308 168c127.333 28.667 230 82.667 308 162zM1075 0.000976562l-354 0.000976562c80.667 31.333 147 69.666 199 114.999
s117.333 118.333 196 219zM449 0.00195312l-377 -0.000976562c69.333 23.333 115 53 137 89s33 99.333 33 190v856c0 87.333 -11 149.333 -33 186s-67.667 67.334 -137 92.001h377v-1413z" />
    <glyph glyph-name="edotaccent" unicode="&#x117;" horiz-adv-x="1069" 
d="M573 1196c-31.333 0 -58.334 11.333 -81.001 34s-33.667 49.667 -33 81c0 31.333 11.333 58.333 34 81c23.333 22.667 50.333 34 81 34s57.667 -11.333 81 -34s35 -49.667 35 -81s-11.667 -58.333 -35 -81s-50.666 -34 -81.999 -34zM968.999 596h-568
c217.333 34 344.333 56 381 66c0 221.333 -46.333 354.333 -139 399c217.333 -18 326 -152.667 326 -404v-61zM556.999 -25c-136.667 -0.666992 -248.665 46.335 -335.998 141.002s-131 218.667 -131 372s39 281.333 117 384s175 165 291 187
c-60 -36.667 -108.667 -98.334 -146 -185.001s-56.333 -194 -57 -322c0 -128 34 -231.333 102 -310c67.333 -78.667 155.666 -118.334 264.999 -119.001c109.333 0 211 37.667 305 113c-27.333 -61.333 -76.333 -120 -147 -176s-158.334 -84.333 -263.001 -85z" />
    <glyph glyph-name="Eogonek" unicode="&#x118;" horiz-adv-x="1183" 
d="M1016 1413l-0.000976562 -302.999c-57.333 83.333 -109.666 148.666 -156.999 195.999s-103 83 -167 107h324zM923.999 891.001v-330c-86 82 -188.667 138 -308 168c127.333 28.667 230 82.667 308 162zM898.999 -317.999c0 -66.667 31.332 -99.9971 93.999 -99.9971
c22 0 41.333 2.66699 58 8c-12.667 -22.667 -33 -42 -61 -58s-62 -24 -102 -24s-73.333 13.333 -100 40c-27.333 26.667 -40.666 58.667 -39.999 96c0 53.333 33.667 114.666 101 183.999s138 126.666 212 171.999h-340c80.667 31.333 147 69.666 199 114.999
s117.333 118.333 196 219l-41 -334c-44 -48 -84.333 -104 -121 -168s-55 -114 -55 -150zM448.998 0.00390625l-377 -0.000976562c69.333 23.333 115 53 137 89s33 99.333 33 190v856c0 87.333 -11 149.333 -33 186s-67.667 67.334 -137 92.001h377v-1413z" />
    <glyph glyph-name="eogonek" unicode="&#x119;" horiz-adv-x="1069" 
d="M969 596h-568c217.333 34 344.333 56 381 66c0 221.333 -46.333 354.333 -139 399c217.333 -18 326 -152.667 326 -404v-61zM746 -492c-40 0 -73.6689 13.3359 -101.002 40.0029s-41 56.667 -41 90s11 72.666 33 117.999c22 44 44.667 82.667 68 116s57 79 101 137
c44.667 58 75 98.667 91 122c-90 -104 -203.333 -156 -340 -156c-136.667 -0.666992 -248.667 46.333 -336 141s-131 218.667 -131 372s39 281.333 117 384s175 165 291 187c-60 -36.667 -108.667 -98.334 -146 -185.001s-56.333 -194 -57 -322c0 -128 34 -231.333 102 -310
s156.333 -118.334 265 -119.001c108.667 0 210.334 37.667 305.001 113c-142 -284 -212.333 -470 -211 -558c0 -32 8.66699 -56 26 -72s38 -24 62 -24c25.333 0 46.333 2.66699 63 8c-13.333 -22.667 -33.666 -42 -60.999 -58c-26.667 -16 -60 -24 -100 -24z" />
    <glyph glyph-name="Ecaron" unicode="&#x11a;" horiz-adv-x="1183" 
d="M641 1540h-119l-180 250l240 -127l243 127zM1016 1413l-0.000976562 -302.999c-57.333 83.333 -109.666 148.666 -156.999 195.999s-103 83 -167 107h324zM923.999 891.001v-330c-86 82 -188.667 138 -308 168c127.333 28.667 230 82.667 308 162zM1075 0.000976562
l-354 0.000976562c80.667 31.333 147 69.666 199 114.999s117.333 118.333 196 219zM448.999 0.00195312l-377 -0.000976562c69.333 23.333 115 53 137 89s33 99.333 33 190v856c0 87.333 -11 149.333 -33 186s-67.667 67.334 -137 92.001h377v-1413z" />
    <glyph glyph-name="ecaron" unicode="&#x11b;" horiz-adv-x="1069" 
d="M633 1163h-119l-180 250l239 -127l244 127zM969 596h-568c217.333 34 344.333 56 381 66c0 221.333 -46.333 354.333 -139 399c217.333 -18 326 -152.667 326 -404v-61zM557 -25c-136.667 -0.666992 -248.665 46.335 -335.998 141.002s-131 218.667 -131 372
s39 281.333 117 384s175 165 291 187c-60 -36.667 -108.667 -98.334 -146 -185.001s-56.333 -194 -57 -322c0 -128 34 -231.333 102 -310c67.333 -78.667 155.666 -118.334 264.999 -119.001c109.333 0 211 37.667 305 113c-27.333 -61.333 -76.333 -120 -147 -176
s-158.334 -84.333 -263.001 -85z" />
    <glyph glyph-name="Gcircumflex" unicode="&#x11c;" horiz-adv-x="1540" 
d="M1112 1540l-244 125l-239 -125l180 250h119zM1335 1364v-296.999c-125.333 210 -241.333 333.667 -348 371c138 -12.667 254 -37.334 348 -74.001zM1180 428.001c0 82 -11.333 141.667 -34 179s-67.334 68.333 -134.001 93h495c-52.667 -26 -87.667 -55.333 -105 -88
s-26 -94 -26 -184v-375c-126.667 -36.667 -233.667 -59.667 -321 -69c54.667 26 96.334 58.667 125.001 98v346zM94 688.001c0 202 64.666 368.001 193.999 498.001s283.333 210.333 462 241c-120 -42 -220.667 -129.333 -302 -262s-122 -288.334 -122 -467.001
s46.333 -336.667 139 -474s209.334 -220.333 350.001 -249c-208.667 6.66699 -381 76.667 -517 210s-204 301 -204 503z" />
    <glyph glyph-name="gcircumflex" unicode="&#x11d;" horiz-adv-x="1056" 
d="M754 1163l-244 125l-240 -125l181 250h118zM1057 963l-336 84l336 94v-178zM25 -260c0 52 21.332 94.334 63.999 127.001c43.333 32.667 102.333 51.667 177 57c-48 -31.333 -72 -81 -72 -149s33 -127.333 99 -178c65.333 -50.667 150 -76.667 254 -78
c-31.333 -6.66699 -60.666 -10.334 -87.999 -11.001c-114.667 0 -215.667 20.667 -303 62s-131 98 -131 170zM714.999 700.001c0 74 -12 145.33 -36 213.997s-56.333 117.667 -97 147c92.667 -16.667 172 -56.667 238 -120c66.667 -63.333 100 -141.666 100 -234.999
s-32.667 -173.666 -98 -240.999s-148.333 -107.666 -249 -120.999c45.333 26 80.333 73.333 105 142s37 140 37 214zM304.999 704.998c0 -75.333 12.333 -147.668 37 -217.001s61 -117.333 109 -144c-98 10.667 -181 48 -249 112s-102 146 -102 246s32 182.333 96 247
s146 103.334 246 116.001c-44 -27.333 -78 -75.333 -102 -144s-35.667 -140.667 -35 -216zM261.999 255.996c0 -58.667 48 -88.667 144 -90l299 -10c228 -8 342 -92.667 342 -254c0.666992 -80.667 -30.333 -151 -93 -211s-141.667 -105.667 -237 -137
c122.667 54.667 184 142 184 262c0 52 -17.333 90.667 -52 116s-91 39.666 -169 42.999l-301 11c-155.333 6.66699 -233.333 57 -234 151c0 70.667 42.333 130.667 127 180c-6.66699 -19.333 -10 -39.666 -10 -60.999z" />
    <glyph glyph-name="Gbreve" unicode="&#x11e;" horiz-adv-x="1540" 
d="M870 1665c45.333 0 91.668 11.333 139.001 34s82.333 53.667 105 93c-12 -68 -38.667 -126.667 -80 -176s-95.333 -74 -162 -74s-120.667 24.667 -162 74s-67.666 108 -78.999 176c23.333 -40.667 57.666 -72 102.999 -94s90.666 -33 135.999 -33zM1335 1364v-296.999
c-125.333 210 -241.333 333.667 -348 371c138 -12.667 254 -37.334 348 -74.001zM1180 428.001c0 82 -11.333 141.667 -34 179s-67.334 68.333 -134.001 93h495c-52.667 -26 -87.667 -55.333 -105 -88s-26 -94 -26 -184v-375c-126.667 -36.667 -233.667 -59.667 -321 -69
c54.667 26 96.334 58.667 125.001 98v346zM94.002 688.001c0 202 64.666 368.001 193.999 498.001s283.333 210.333 462 241c-120 -42 -220.667 -129.333 -302 -262s-122 -288.334 -122 -467.001s46.333 -336.667 139 -474s209.334 -220.333 350.001 -249
c-208.667 6.66699 -381 76.667 -517 210s-204 301 -204 503z" />
    <glyph glyph-name="gbreve" unicode="&#x11f;" horiz-adv-x="1056" 
d="M512 1288c45.333 0 91.334 11.333 138.001 34s82 53.667 106 93c-12 -68 -38.667 -126.667 -80 -176s-95.333 -74 -162 -74s-121 24.667 -163 74s-68.333 108 -79 176c23.333 -40.667 58 -72 104 -94c45.333 -22 90.666 -33 135.999 -33zM1057 963l-336 84l336 94v-178z
M25.001 -260c0 52 21.332 94.334 63.999 127.001c43.333 32.667 102.333 51.667 177 57c-48 -31.333 -72 -81 -72 -149s33 -127.333 99 -178c65.333 -50.667 150 -76.667 254 -78c-31.333 -6.66699 -60.666 -10.334 -87.999 -11.001c-114.667 0 -215.667 20.667 -303 62
s-131 98 -131 170zM715 700.001c0 74 -12 145.33 -36 213.997s-56.333 117.667 -97 147c92.667 -16.667 172 -56.667 238 -120c66.667 -63.333 100 -141.666 100 -234.999s-32.667 -173.666 -98 -240.999s-148.333 -107.666 -249 -120.999c45.333 26 80.333 73.333 105 142
s37 140 37 214zM305 704.998c0 -75.333 12.333 -147.668 37 -217.001s61 -117.333 109 -144c-98 10.667 -181 48 -249 112s-102 146 -102 246s32 182.333 96 247s146 103.334 246 116.001c-44 -27.333 -78 -75.333 -102 -144s-35.667 -140.667 -35 -216zM262 255.996
c0 -58.667 48 -88.667 144 -90l299 -10c228 -8 342 -92.667 342 -254c0.666992 -80.667 -30.333 -151 -93 -211s-141.667 -105.667 -237 -137c122.667 54.667 184 142 184 262c0 52 -17.333 90.667 -52 116s-91 39.666 -169 42.999l-301 11
c-155.333 6.66699 -233.333 57 -234 151c0 70.667 42.333 130.667 127 180c-6.66699 -19.333 -10 -39.666 -10 -60.999z" />
    <glyph glyph-name="Gdotaccent" unicode="&#x120;" horiz-adv-x="1540" 
d="M868 1573c-31.333 0 -58.334 11.333 -81.001 34s-33.667 49.667 -33 81c0 30.667 11.333 57.334 34 80.001s49.334 34 80.001 34c31.333 0 58.666 -11.333 81.999 -34s35 -49.334 35 -80.001s-11.667 -57.667 -35 -81c-23.333 -22.667 -50.666 -34 -81.999 -34z
M1335 1364v-296.999c-125.333 210 -241.333 333.667 -348 371c138 -12.667 254 -37.334 348 -74.001zM1180 428.001c0 82 -11.333 141.667 -34 179s-67.334 68.333 -134.001 93h495c-52.667 -26 -87.667 -55.333 -105 -88s-26 -94 -26 -184v-375
c-126.667 -36.667 -233.667 -59.667 -321 -69c54.667 26 96.334 58.667 125.001 98v346zM93.999 688.001c0 202 64.666 368.001 193.999 498.001s283.333 210.333 462 241c-120 -42 -220.667 -129.333 -302 -262s-122 -288.334 -122 -467.001s46.333 -336.667 139 -474
s209.334 -220.333 350.001 -249c-208.667 6.66699 -381 76.667 -517 210s-204 301 -204 503z" />
    <glyph glyph-name="gdotaccent" unicode="&#x121;" horiz-adv-x="1056" 
d="M510 1196c-31.333 0 -58.333 11.333 -81 34s-34 49.667 -34 81s11.333 58.333 34 81s49.667 34 81 34s58.666 -11.333 81.999 -34s35 -49.667 35 -81s-11.667 -58.333 -35 -81s-50.666 -34 -81.999 -34zM1057 963l-336 84l336 94v-178zM25 -260
c0 52 21.332 94.334 63.999 127.001c43.333 32.667 102.333 51.667 177 57c-48 -31.333 -72 -81 -72 -149s33 -127.333 99 -178c65.333 -50.667 150 -76.667 254 -78c-31.333 -6.66699 -60.666 -10.334 -87.999 -11.001c-114.667 0 -215.667 20.667 -303 62
s-131 98 -131 170zM714.999 700.001c0 74 -12 145.33 -36 213.997s-56.333 117.667 -97 147c92.667 -16.667 172 -56.667 238 -120c66.667 -63.333 100 -141.666 100 -234.999s-32.667 -173.666 -98 -240.999s-148.333 -107.666 -249 -120.999
c45.333 26 80.333 73.333 105 142s37 140 37 214zM304.999 704.998c0 -75.333 12.333 -147.668 37 -217.001s61 -117.333 109 -144c-98 10.667 -181 48 -249 112s-102 146 -102 246s32 182.333 96 247s146 103.334 246 116.001c-44 -27.333 -78 -75.333 -102 -144
s-35.667 -140.667 -35 -216zM261.999 255.996c0 -58.667 48 -88.667 144 -90l299 -10c228 -8 342 -92.667 342 -254c0.666992 -80.667 -30.333 -151 -93 -211s-141.667 -105.667 -237 -137c122.667 54.667 184 142 184 262c0 52 -17.333 90.667 -52 116
s-91 39.666 -169 42.999l-301 11c-155.333 6.66699 -233.333 57 -234 151c0 70.667 42.333 130.667 127 180c-6.66699 -19.333 -10 -39.666 -10 -60.999z" />
    <glyph glyph-name="Gcommaaccent" unicode="&#x122;" horiz-adv-x="1540" 
d="M768 -216c0 26.667 9.99902 49.667 29.999 69s44.667 29 74 29s54.666 -11.667 75.999 -35c20.667 -22.667 31 -54.334 31 -95.001c0.666992 -40 -21.666 -88 -66.999 -144s-98.666 -103.667 -159.999 -143c46.667 70.667 69.667 130.334 69 179.001
c-0.666992 18.667 -9.66699 40 -27 64s-26 49.333 -26 76zM1335 1364v-296.999c-125.333 210 -241.333 333.667 -348 371c138 -12.667 254 -37.334 348 -74.001zM1180 428.001c0 82 -11.333 141.667 -34 179s-67.334 68.333 -134.001 93h495
c-52.667 -26 -87.667 -55.333 -105 -88s-26 -94 -26 -184v-375c-126.667 -36.667 -233.667 -59.667 -321 -69c54.667 26 96.334 58.667 125.001 98v346zM93.999 688.001c0 202 64.666 368.001 193.999 498.001s283.333 210.333 462 241
c-120 -42 -220.667 -129.333 -302 -262s-122 -288.334 -122 -467.001s46.333 -336.667 139 -474s209.334 -220.333 350.001 -249c-208.667 6.66699 -381 76.667 -517 210s-204 301 -204 503z" />
    <glyph glyph-name="gcommaaccent" unicode="&#x123;" horiz-adv-x="1056" 
d="M569 1421c0 -18 9.00098 -39.0029 27.001 -63.0029s27 -49.667 27 -77c0 -26.667 -10 -49.667 -30 -69c-20 -18.667 -45 -28 -75 -28s-55.333 11.333 -76 34s-30.667 49.334 -30 80.001c0 50.667 22.333 103.334 67 158.001
c45.333 54.667 98.666 102.334 159.999 143.001c-46.667 -70.667 -70 -130 -70 -178zM1057 962.997l-336 84l336 94v-178zM25.001 -260.003c0 52 21.332 94.334 63.999 127.001c43.333 32.667 102.333 51.667 177 57c-48 -31.333 -72 -81 -72 -149s33 -127.333 99 -178
c65.333 -50.667 150 -76.667 254 -78c-31.333 -6.66699 -60.666 -10.334 -87.999 -11.001c-114.667 0 -215.667 20.667 -303 62s-131 98 -131 170zM715 699.998c0 74 -12 145.33 -36 213.997s-56.333 117.667 -97 147c92.667 -16.667 172 -56.667 238 -120
c66.667 -63.333 100 -141.666 100 -234.999s-32.667 -173.666 -98 -240.999s-148.333 -107.666 -249 -120.999c45.333 26 80.333 73.333 105 142s37 140 37 214zM305 704.995c0 -75.333 12.333 -147.668 37 -217.001s61 -117.333 109 -144c-98 10.667 -181 48 -249 112
s-102 146 -102 246s32 182.333 96 247s146 103.334 246 116.001c-44 -27.333 -78 -75.333 -102 -144s-35.667 -140.667 -35 -216zM262 255.993c0 -58.667 48 -88.667 144 -90l299 -10c228 -8 342 -92.667 342 -254c0.666992 -80.667 -30.333 -151 -93 -211
s-141.667 -105.667 -237 -137c122.667 54.667 184 142 184 262c0 52 -17.333 90.667 -52 116s-91 39.666 -169 42.999l-301 11c-155.333 6.66699 -233.333 57 -234 151c0 70.667 42.333 130.667 127 180c-6.66699 -19.333 -10 -39.666 -10 -60.999z" />
    <glyph glyph-name="Hcircumflex" unicode="&#x124;" horiz-adv-x="1654" 
d="M1075 1540l-244 125l-239 -125l180 250h119zM1139 690h-617v68h617v-68zM1208 1141c0 87.333 -10.668 148.333 -32.001 183c-22 34.667 -68.667 64.334 -140 89.001h547c-69.333 -24.667 -115 -54.334 -137 -89.001s-33 -95.667 -33 -183v-871c0 -86 11 -146.667 33 -182
s67.667 -64.666 137 -87.999h-547c70.667 23.333 117.334 52.666 140.001 87.999c22 35.333 32.667 96 32 182v871zM241.999 270l0.000976562 870.999c0 87.333 -11 148.333 -33 183s-67.667 64.334 -137 89.001h546c-69.333 -24.667 -115 -54.334 -137 -89.001
s-32.667 -95.667 -32 -183v-871c0.666992 -86 11.667 -146.667 33 -182s66.666 -64.666 135.999 -87.999h-546c69.333 23.333 115 52.333 137 87s33 95.667 33 183z" />
    <glyph glyph-name="hcircumflex" unicode="&#x125;" horiz-adv-x="1290" 
d="M553 1561l-244 125l-239 -125l180 249h119zM889 262l-0.000976562 459.001c0.666992 75.333 -19.666 133.666 -60.999 174.999s-92 62 -152 62s-121.333 -8.66699 -184 -26c96.667 91.333 190.667 137 282 137s165.333 -28.333 222 -85s85 -147 85 -271v-416
c0 -102.667 8.66699 -172 26 -208s57.333 -65.667 120 -89h-484c60 23.333 99.333 52 118 86s28 92.667 28 176zM210.999 262.001l-0.00195312 905c0 90 -9.66699 151 -29 183s-65.666 60.667 -138.999 86c96.667 8 219.667 39.333 369 94v-1268
c0 -86 9.33301 -145.667 28 -179s57.667 -61 117 -83h-489c58.667 23.333 97.334 52 116.001 86s27.667 92.667 27 176z" />
    <glyph glyph-name="Hbar" unicode="&#x126;" horiz-adv-x="1654" 
d="M1139 1032h-617v70h617v-70zM1139 688h-617v72h617v-72zM1208 1141c0 87.333 -10.668 148.333 -32.001 183c-22 34.667 -68.667 64.334 -140 89.001h547c-69.333 -24.667 -115 -54.334 -137 -89.001s-33 -95.667 -33 -183v-39h113v-70h-113v-762
c0 -86 11 -146.667 33 -182s67.667 -64.666 137 -87.999h-547c70.667 23.333 117.334 52.666 140.001 87.999c22 35.333 32.667 96 32 182v871zM241.999 270l0.000976562 761.999h-113v70h113v39c0 87.333 -11 148.333 -33 183s-67.667 64.334 -137 89.001h546
c-69.333 -24.667 -115 -54.334 -137 -89.001s-32.667 -95.667 -32 -183v-871c0.666992 -86 11.667 -146.667 33 -182s66.666 -64.666 135.999 -87.999h-546c69.333 23.333 115 52.333 137 87s33 95.667 33 183z" />
    <glyph glyph-name="hbar" unicode="&#x127;" horiz-adv-x="1290" 
d="M889 262l-0.000976562 459.001c0.666992 75.333 -19.666 133.666 -60.999 174.999s-92 62 -152 62s-121.333 -8.66699 -184 -26c96.667 91.333 190.667 137 282 137s165.333 -28.333 222 -85s85 -147 85 -271v-416c0 -102.667 8.66699 -172 26 -208
s57.333 -65.667 120 -89h-484c60 23.333 99.333 52 118 86s28 92.667 28 176zM210.999 262.001v928c0 79.333 -11.333 134.333 -34 165s-67.334 57.667 -134.001 81c96.667 8 219.667 39.333 369 94v-273h311v-71h-311v-924c0 -86 9.33301 -145.667 28 -179
s57.667 -61 117 -83h-489c58.667 23.333 97.334 52 116.001 86s27.667 92.667 27 176z" />
    <glyph glyph-name="Itilde" unicode="&#x128;" horiz-adv-x="692" 
d="M195 1681c-53.333 0 -92.332 -25 -116.999 -75c0 34.667 15.333 74 46 118s72.667 66 126 66c32.667 0 79 -10 139 -30s100.333 -29.667 121 -29c53.333 0 92.333 23 117 69c-2.66699 -37.333 -19 -77.333 -49 -120c-30.667 -42.667 -67.334 -64 -110.001 -64
s-93.667 10.667 -153 32s-99.333 32.333 -120 33zM242.001 270l0.000976562 871c0 87.333 -11 148.333 -33 183s-67.667 64.334 -137 89.001h546c-69.333 -24.667 -115 -54.334 -137 -89.001s-32.667 -95.667 -32 -183v-871c0.666992 -87.333 11.667 -148.333 33 -183
s66.666 -63.667 135.999 -87h-546c69.333 23.333 115 52.333 137 87s33 95.667 33 183z" />
    <glyph glyph-name="itilde" unicode="&#x129;" horiz-adv-x="618" 
d="M219 258v463c0 88.667 -10.333 148 -31 178s-67 57.333 -139 82c118.667 12 239.667 41.333 363 88v-811c0 -83.333 9.33301 -141.333 28 -174s57.667 -60.667 117 -84h-483c60 23.333 99.333 51.333 118 84s27.667 90.667 27 174zM156 1305c-52 0 -91 -25.333 -117 -76
c0 34 15.333 73.333 46 118s72.667 66.667 126 66c34 0 80.333 -10 139 -30s99 -29.667 121 -29c53.333 0 92.333 23 117 69c-2.66699 -38 -19 -78 -49 -120s-66.333 -63 -109 -63s-94 10.667 -154 32c-59.333 22 -99.333 33 -120 33z" />
    <glyph glyph-name="Imacron" unicode="&#x12a;" horiz-adv-x="692" 
d="M596 1618h-496v98h496v-98zM242 270l0.000976562 871c0 87.333 -11 148.333 -33 183s-67.667 64.334 -137 89.001h546c-69.333 -24.667 -115 -54.334 -137 -89.001s-32.667 -95.667 -32 -183v-871c0.666992 -87.333 11.667 -148.333 33 -183s66.666 -63.667 135.999 -87
h-546c69.333 23.333 115 52.333 137 87s33 95.667 33 183z" />
    <glyph glyph-name="imacron" unicode="&#x12b;" horiz-adv-x="618" 
d="M219 258v463c0 88.667 -10.333 148 -31 178s-67 57.333 -139 82c118.667 12 239.667 41.333 363 88v-811c0 -83.333 9.33301 -141.333 28 -174s57.667 -60.667 117 -84h-483c60 23.333 99.333 51.333 118 84s27.667 90.667 27 174zM557 1241h-496v98h496v-98z" />
    <glyph glyph-name="Ibreve" unicode="&#x12c;" horiz-adv-x="692" 
d="M346 1665c45.333 0 91.334 11.333 138.001 34s82 53.667 106 93c-12 -68 -38.667 -126.667 -80 -176s-95.333 -74 -162 -74s-121 24.667 -163 74s-68.333 108 -79 176c23.333 -40.667 58 -72 104 -94c45.333 -22 90.666 -33 135.999 -33zM242.001 270l0.000976562 871
c0 87.333 -11 148.333 -33 183s-67.667 64.334 -137 89.001h546c-69.333 -24.667 -115 -54.334 -137 -89.001s-32.667 -95.667 -32 -183v-871c0.666992 -87.333 11.667 -148.333 33 -183s66.666 -63.667 135.999 -87h-546c69.333 23.333 115 52.333 137 87s33 95.667 33 183
z" />
    <glyph glyph-name="ibreve" unicode="&#x12d;" horiz-adv-x="618" 
d="M219 258v463c0 88.667 -10.333 148 -31 178s-67 57.333 -139 82c118.667 12 239.667 41.333 363 88v-811c0 -83.333 9.33301 -141.333 28 -174s57.667 -60.667 117 -84h-483c60 23.333 99.333 51.333 118 84s27.667 90.667 27 174zM308 1288
c45.333 0 91.334 11.333 138.001 34s81.667 53.667 105 93c-11.333 -68 -37.666 -126.667 -78.999 -176s-95.333 -74 -162 -74s-121.334 24.667 -164.001 74c-41.333 49.333 -67.333 108 -78 176c24 -40.667 58.667 -72 104 -94s90.666 -33 135.999 -33z" />
    <glyph glyph-name="Iogonek" unicode="&#x12e;" horiz-adv-x="692" 
d="M242 270l0.00195312 870.999c0 87.333 -11 148.333 -33 183s-67.667 64.334 -137 89.001h546c-69.333 -24.667 -115 -54.334 -137 -89.001s-32.667 -95.667 -32 -183v-871c0.666992 -87.333 11.667 -148.333 33 -183s66.666 -63.667 135.999 -87
c-42 -48 -81.333 -104 -118 -168c-64 -112 -74 -187.333 -30 -226c17.333 -16 38.666 -24 63.999 -24s46 2.66699 62 8c-13.333 -22.667 -33.666 -42 -60.999 -58s-61 -24 -101 -24s-73.333 13.333 -100 40s-40.334 58.667 -41.001 96c0 53.333 33 114.333 99 183
s136 126.334 210 173.001h-530c69.333 23.333 115 52.333 137 87s33 95.667 33 183z" />
    <glyph glyph-name="iogonek" unicode="&#x12f;" horiz-adv-x="618" 
d="M432 1330c0 -33.333 -12 -61.666 -36 -84.999s-52.667 -35 -86 -35s-61.666 11.667 -84.999 35s-35 51.666 -35 84.999s11.667 62 35 86s51.666 36 84.999 36s62 -12 86 -36s36 -52.667 36 -86zM219 258l0.000976562 462.998c0 88.667 -10.333 148 -31 178
s-67 57.333 -139 82c118.667 12 239.667 41.333 363 88v-811c0 -83.333 9.33301 -141.333 28 -174s57.667 -60.667 117 -84c-44 -49.333 -84.667 -105.666 -122 -168.999s-56 -113 -56 -149c0 -66.667 31.333 -100 94 -100c22 0 41 2.66699 57 8
c-13.333 -22.667 -33.666 -42 -60.999 -58s-61 -24 -101 -24s-73.333 13.333 -100 40c-27.333 26.667 -41 58.667 -41 96c-0.666992 53.333 33.666 114.333 102.999 183s141.666 126.334 216.999 173.001h-473c60 23.333 99.333 51.333 118 84s27.667 90.667 27 174z" />
    <glyph glyph-name="Idotaccent" unicode="&#x130;" horiz-adv-x="692" 
d="M344 1573c-31.333 0 -58.333 11.333 -81 34s-34 49.667 -34 81c0 30.667 11.333 57.334 34 80.001s49.667 34 81 34s58.666 -11.333 81.999 -34s35 -49.334 35 -80.001s-11.667 -57.667 -35 -81c-23.333 -22.667 -50.666 -34 -81.999 -34zM242 270l0.000976562 871
c0 87.333 -11 148.333 -33 183s-67.667 64.334 -137 89.001h546c-69.333 -24.667 -115 -54.334 -137 -89.001s-32.667 -95.667 -32 -183v-871c0.666992 -87.333 11.667 -148.333 33 -183s66.666 -63.667 135.999 -87h-546c69.333 23.333 115 52.333 137 87s33 95.667 33 183
z" />
    <glyph glyph-name="dotlessi" unicode="&#x131;" horiz-adv-x="618" 
d="M219 258v463c0 88.667 -10.333 148 -31 178s-67 57.333 -139 82c118.667 12 239.667 41.333 363 88v-811c0 -83.333 9.33301 -141.333 28 -174s57.667 -60.667 117 -84h-483c60 23.333 99.333 51.333 118 84s27.667 90.667 27 174z" />
    <glyph glyph-name="IJ" unicode="&#x132;" horiz-adv-x="1378" 
d="M934 -20v1155c0 91.333 -10.667 154.333 -32 189s-67.333 64.334 -138 89.001h547c-69.333 -24.667 -115 -54.667 -137 -90s-33 -98 -33 -188v-1074c0 -146 -44.333 -257.667 -133 -335c-70 -61.333 -152.667 -111.333 -248 -150c116 79.333 174 214 174 404z
M242 269.999l0.000976562 871c0 87.333 -11 148.333 -33 183s-67.667 64.334 -137 89.001h546c-69.333 -24.667 -115 -54.334 -137 -89.001s-32.667 -95.667 -32 -183v-871c0.666992 -87.333 11.667 -148.333 33 -183s66.666 -63.667 135.999 -87h-546
c69.333 23.333 115 52.333 137 87s33 95.667 33 183z" />
    <glyph glyph-name="ij" unicode="&#x133;" horiz-adv-x="1224" 
d="M831 -80v801.002c0 88.667 -9.66699 148 -29 178c-20 30 -66 57.333 -138 82c121.333 12 244 41.333 368 88v-1057c0 -148.667 -42.667 -266.334 -128 -353.001c-66.667 -66.667 -142 -117 -226 -151c46.667 36.667 84 91.667 112 165
c27.333 73.333 41 155.666 41 246.999zM1051 1330c0 -33.333 -12 -61.666 -36 -84.999s-52.667 -35 -86 -35s-61.666 11.667 -84.999 35s-35 51.666 -35 84.999s11.667 62 35 86s51.666 36 84.999 36s62 -12 86 -36s36 -52.667 36 -86zM219 258.002v463
c0 88.667 -10.333 148 -31 178s-67 57.333 -139 82c118.667 12 239.667 41.333 363 88v-811c0 -83.333 9.33301 -141.333 28 -174s57.667 -60.667 117 -84h-483c60 23.333 99.333 51.333 118 84s27.667 90.667 27 174zM432 1330c0 -33.333 -12 -61.666 -36 -84.999
s-52.667 -35 -86 -35s-61.666 11.667 -84.999 35s-35 51.666 -35 84.999s11.667 62 35 86s51.666 36 84.999 36s62 -12 86 -36s36 -52.667 36 -86z" />
    <glyph glyph-name="Jcircumflex" unicode="&#x134;" horiz-adv-x="686" 
d="M588 1540l-244 125l-240 -125l181 250h118zM242 -20v1155c0 91.333 -10.667 154.333 -32 189s-67.333 64.334 -138 89.001h546c-69.333 -24.667 -115 -54.667 -137 -90s-32.667 -98 -32 -188v-1074c0 -146.667 -44.667 -258.334 -134 -335.001
c-70.667 -61.333 -153 -111.333 -247 -150c116 79.333 174 214 174 404z" />
    <glyph glyph-name="jcircumflex" unicode="&#x135;" horiz-adv-x="604" 
d="M551 1163l-244 125l-239 -125l180 250h119zM213 -80v801.001c0 88.667 -10 148 -30 178s-66 57.333 -138 82c121.333 12 244.333 41.333 369 88v-1057c0 -240.667 -118.333 -408.667 -355 -504c46.667 36.667 84 91.667 112 165s42 155.666 42 246.999z" />
    <glyph glyph-name="Kcommaaccent" unicode="&#x136;" horiz-adv-x="1476" 
d="M678 -216c0 26.667 9.99902 49.667 29.999 69s44.667 29 74 29s54.666 -11.667 75.999 -35c20.667 -22.667 31 -54.334 31 -95.001c0.666992 -40 -21.666 -88 -66.999 -144s-98.666 -103.667 -159.999 -143c46.667 70.667 69.667 130.334 69 179.001
c-0.666992 18.667 -9.66699 40 -27 64s-26 49.333 -26 76zM894.999 1413h539c-81.333 -30 -155.333 -65.333 -222 -106s-149 -109 -247 -205l-25 -22c-10.667 -9.33301 -19 -17 -25 -23c67.333 90 101 166.667 101 230s-40.333 105.333 -121 126zM1063 98
c0 35.333 -44.332 118.001 -132.999 248.001l-285 412l137 147l375 -536c95.333 -136.667 163.666 -225.667 204.999 -267s94 -75.333 158 -102h-572c32 9.33301 53.333 16.666 64 21.999c34.667 16 51.667 41.333 51 76zM238 270.001v871.003
c0 83.333 -12 143.666 -36 180.999s-68.667 67.666 -134 90.999h546c-69.333 -24.667 -115 -54.334 -137 -89.001s-33 -95.667 -33 -183v-871c0 -83.333 12 -143.333 36 -180s68.667 -66.667 134 -90h-546c69.333 23.333 115 52.333 137 87s33 95.667 33 183z" />
    <glyph glyph-name="kcommaaccent" unicode="&#x137;" horiz-adv-x="1202" 
d="M563 -216c0 26.667 10 49.667 30 69s45 29 75 29c30.667 0 56 -11.667 76 -35c20 -22.667 30 -54.334 30 -95.001c0 -40 -22.667 -88 -68 -144s-98.333 -103.667 -159 -143c46.667 70.667 69.667 130.334 69 179.001c0 18.667 -8.66699 40 -26 64s-26.333 49.333 -27 76z
M645 1044h547.001c-125.333 -26 -284.333 -117.333 -477 -274c49.333 52 73.666 101.333 72.999 148c0 58 -47.667 100 -143 126zM1073 0c-54.667 0 -94.6689 1 -120.002 3s-52.666 12.667 -81.999 32c-30 19.333 -53 39 -69 59s-47 61 -93 123l-238 313l135 129l346 -428
c61.333 -75.333 113.333 -128.333 156 -159s88.334 -54.667 137.001 -72h-172zM208.999 258v918c0 90 -10 150 -30 180s-66 56.667 -138 80c124 13.333 247 44.666 369 93.999v-1272c0 -82 9.33301 -139.667 28 -173s57 -61.666 115 -84.999h-490
c60 23.333 99.333 51.333 118 84s28 90.667 28 174z" />
    <glyph glyph-name="kgreenlandic" unicode="&#x138;" horiz-adv-x="1202" 
d="M645 1044h547c-125.333 -28.667 -294.666 -131 -507.999 -307c79.333 83.333 116 149 110 197c-6.66699 47.333 -56.334 84 -149.001 110zM1044 0c-86 0 -144.001 9.33301 -174.001 28s-77.667 72.667 -143 162l-18 27l-238 313l133 134l348 -433
c78 -98.667 148 -163.667 210 -195c22.667 -12 50.334 -24 83.001 -36h-201zM214.999 258l-0.000976562 463.001c0 88.667 -10 148 -30 178s-66 57.333 -138 82c114.667 10.667 235.667 40 363 88v-811c0 -83.333 9.33301 -141.333 28 -174s57.667 -60.667 117 -84h-483
c58.667 23.333 97.334 51.666 116.001 84.999s27.667 91 27 173z" />
    <glyph glyph-name="Lacute" unicode="&#x139;" horiz-adv-x="1130" 
d="M387 1790h209c-82 -109.333 -199.333 -192.666 -352 -249.999c68 75.333 115.667 158.666 143 249.999zM1049 0h-349c72.667 27.333 137.667 65 195 113s122.333 121.667 195 221zM444 0h-376c68 23.333 113.333 53 136 89s34 96.333 34 181v871
c0 84.667 -11.333 145 -34 181s-68 66.333 -136 91h546c-68 -24.667 -113.333 -55 -136 -91s-34 -96.333 -34 -181v-1141z" />
    <glyph glyph-name="lacute" unicode="&#x13a;" horiz-adv-x="612" 
d="M352 1810h209c-82 -109.333 -199.333 -192.333 -352 -249c68 74.667 115.667 157.667 143 249zM209 258v918c0 90 -10 150 -30 180s-66 56.667 -138 80c124 13.333 247 44.666 369 93.999v-1272c0 -82 9.33301 -139.667 28 -173s57 -61.666 115 -84.999h-490
c60 23.333 99.333 51.333 118 84s28 90.667 28 174z" />
    <glyph glyph-name="Lcommaaccent" unicode="&#x13b;" horiz-adv-x="1130" 
d="M471 -216c0 26.667 10 49.667 30 69c20.667 19.333 45.667 29 75 29s54.333 -11.667 75 -35c20.667 -22.667 31 -54.334 31 -95.001c0 -40 -22.667 -88 -68 -144s-98.333 -103.667 -159 -143c46.667 70.667 69.667 130.334 69 179.001c0 18.667 -8.66699 40 -26 64
s-26.333 49.333 -27 76zM1049 0h-349c72.667 27.333 137.667 65 195 113s122.333 121.667 195 221zM444 0h-376c68 23.333 113.333 53 136 89s34 96.333 34 181v871c0 84.667 -11.333 145 -34 181s-68 66.333 -136 91h546c-68 -24.667 -113.333 -55 -136 -91
s-34 -96.333 -34 -181v-1141z" />
    <glyph glyph-name="lcommaaccent" unicode="&#x13c;" horiz-adv-x="612" 
d="M258 -356c0 18.667 -9.00098 40 -27.001 64s-27 49.333 -27 76s10 49.667 30 69s45 29 75 29s55.333 -11.667 76 -35c20.667 -22.667 31 -54.334 31 -95.001c0 -40 -22.667 -88 -68 -144s-98.666 -103.667 -159.999 -143c46.667 70.667 70 130.334 70 179.001z
M208.999 258v918c0 90 -10 150 -30 180s-66 56.667 -138 80c124 13.333 247 44.666 369 93.999v-1272c0 -82 9.33301 -139.667 28 -173s57 -61.666 115 -84.999h-490c60 23.333 99.333 51.333 118 84s28 90.667 28 174z" />
    <glyph glyph-name="Lcaron" unicode="&#x13d;" horiz-adv-x="1130" 
d="M684 1349c0 27.333 8.99902 49.668 26.999 67.001s40.333 26 67 26s49.334 -8.66699 68.001 -26c17.333 -17.333 26 -40 26 -68s-14.667 -84.667 -44 -170c-29.333 -84.667 -46 -150.334 -50 -197.001c-4 46.667 -20.667 112.667 -50 198s-44 142 -44 170z
M1049 0.00195312h-349c72.667 27.333 137.667 65 195 113s122.333 121.667 195 221zM443.999 0.00195312h-376c68 23.333 113.333 53 136 89s34 96.333 34 181v871c0 84.667 -11.333 145 -34 181s-68 66.333 -136 91h546c-68 -24.667 -113.333 -55 -136 -91
s-34 -96.333 -34 -181v-1141z" />
    <glyph glyph-name="lcaron" unicode="&#x13e;" horiz-adv-x="647" 
d="M524 1347c0 27.333 8.99902 49.668 26.999 67.001s40.333 26 67 26s49.334 -8.66699 68.001 -26c18 -17.333 27 -40 27 -68c-0.666992 -28 -15.667 -84.667 -45 -170c-29.333 -84.667 -46 -150.334 -50 -197.001c-4 46.667 -20.667 112.667 -50 198s-44 142 -44 170z
M208.999 258.002v918c0 90 -10 150 -30 180s-66 56.667 -138 80c124 13.333 247 44.666 369 93.999v-1272c0 -82 9.33301 -139.667 28 -173s57 -61.666 115 -84.999h-490c60 23.333 99.333 51.333 118 84s28 90.667 28 174z" />
    <glyph glyph-name="Ldot" unicode="&#x13f;" horiz-adv-x="1130" 
d="M1049 0h-349c72.667 27.333 137.667 65 195 113s122.333 121.667 195 221zM444 0h-376c68 23.333 113.333 53 136 89s34 96.333 34 181v871c0 84.667 -11.333 145 -34 181s-68 66.333 -136 91h546c-68 -24.667 -113.333 -55 -136 -91s-34 -96.333 -34 -181v-1141z
M922 729c0 -35.333 -13 -65.666 -39 -90.999s-57 -38 -93 -38s-67 12.667 -93 38c-25.333 25.333 -38 55.666 -38 90.999s12.667 66 38 92s56 39 92 39c35.333 0 66.333 -13 93 -39s40 -56.667 40 -92z" />
    <glyph glyph-name="ldot" unicode="&#x140;" horiz-adv-x="825" 
d="M209 258v918c0 90 -10 150 -30 180s-66 56.667 -138 80c124 13.333 247 44.666 369 93.999v-1272c0 -82 9.33301 -139.667 28 -173s57 -61.666 115 -84.999h-490c60 23.333 99.333 51.333 118 84s28 90.667 28 174zM758 729c0 -35.333 -13 -65.666 -39 -90.999
s-57 -38 -93 -38s-66.667 12.667 -92 38s-38 55.666 -38 90.999s12.667 66 38 92s56 39 92 39s67 -13 93 -39s39 -56.667 39 -92z" />
    <glyph glyph-name="Lslash" unicode="&#x141;" horiz-adv-x="1130" 
d="M1049 0h-349c72.667 27.333 137.667 65 195 113s122.333 121.667 195 221zM444 0h-376c68 23.333 113.333 53 136 89s34 96.333 34 181v287l-152 -53v84l152 51v502c0 84.667 -11.333 145 -34 181s-68 66.333 -136 91h546c-68 -24.667 -113.333 -55 -136 -91
s-34 -96.333 -34 -181v-430l238 82v-84l-238 -82v-627z" />
    <glyph glyph-name="lslash" unicode="&#x142;" horiz-adv-x="612" 
d="M209 258v582l-170 -64v82l170 64v268c0 90 -10 150 -30 180s-66 56.667 -138 80c124 13.333 247 44.666 369 93.999v-547l165 66v-82l-165 -66v-657c0 -82 9.33301 -139.667 28 -173s57 -61.666 115 -84.999h-490c60 23.333 99.333 51.333 118 84s28 90.667 28 174z" />
    <glyph glyph-name="Nacute" unicode="&#x143;" horiz-adv-x="1628" 
d="M893 1790h209c-82 -109.333 -199.333 -192.666 -352 -249.999c68 75.333 115.667 158.666 143 249.999zM1180 1413l405 -0.00195312c-65.333 -30 -112.333 -87.667 -141 -173s-48 -225.666 -58 -420.999c-10.667 198 -30 340.333 -58 427s-77.333 142.334 -148 167.001z
M494 -0.00195312h-433c46.667 20.667 82 46.667 106 78c50 65.333 83.667 238 101 518c12 -275.333 49.333 -448 112 -518c26.667 -30 64.667 -56 114 -78zM1395 -16.002h-62l-966 1163c-60 72.667 -115 130 -165 172s-107 73.333 -171 94h381l983 -1171v-258z" />
    <glyph glyph-name="nacute" unicode="&#x144;" horiz-adv-x="1269" 
d="M686 1413h209c-82 -109.333 -199.333 -192.666 -352 -249.999c68 75.333 115.667 158.666 143 249.999zM215 258l0.00195312 428c0 106.667 -9.33301 176 -28 208s-65.334 61 -140.001 87c117.333 12 237.666 41.333 360.999 88v-811c0 -83.333 9.33301 -141.333 28 -174
s57.667 -60.667 117 -84h-483c60 23.333 99.333 51.333 118 84s27.667 90.667 27 174zM885.002 262l-0.00292969 459.002c-0.666992 75.333 -21 132.666 -61 171.999s-90 59 -150 59s-124.333 -10.667 -193 -32c100 100 196.333 150 289 150s167.334 -28.667 224.001 -86
c56.667 -56.667 85 -146.334 85 -269.001v-453c0 -83.333 9.33301 -142 28 -176s57.334 -62.667 116.001 -86h-482c58.667 23.333 97.334 52 116.001 86s28 92.667 28 176z" />
    <glyph glyph-name="Ncommaaccent" unicode="&#x145;" horiz-adv-x="1628" 
d="M791 -356c0 18.667 -9 40 -27 64s-27 49.333 -27 76s10 49.667 30 69s45 29 75 29s55.333 -11.667 76 -35c20.667 -22.667 30.667 -49.334 30 -80.001c0 -50 -22.667 -103 -68 -159s-98.333 -103.667 -159 -143c46.667 70.667 70 130.334 70 179.001zM1180 1413
l405 -0.00195312c-65.333 -30 -112.333 -87.667 -141 -173s-48 -225.666 -58 -420.999c-10.667 198 -30 340.333 -58 427s-77.333 142.334 -148 167.001zM494 -0.00195312h-433c46.667 20.667 82 46.667 106 78c50 65.333 83.667 238 101 518
c12 -275.333 49.333 -448 112 -518c26.667 -30 64.667 -56 114 -78zM1395 -16.002h-62l-966 1163c-60 72.667 -115 130 -165 172s-107 73.333 -171 94h381l983 -1171v-258z" />
    <glyph glyph-name="ncommaaccent" unicode="&#x146;" horiz-adv-x="1269" 
d="M594 -356c0 18.667 -9.00098 40 -27.001 64s-27 49.333 -27 76s10 49.667 30 69s45 29 75 29s55.333 -11.667 76 -35c20.667 -22.667 31 -54.334 31 -95.001c0 -40 -22.667 -88 -68 -144s-98.666 -103.667 -159.999 -143c46.667 70.667 70 130.334 70 179.001z
M214.999 258l0.00195312 428c0 106.667 -9.33301 176 -28 208s-65.334 61 -140.001 87c117.333 12 237.666 41.333 360.999 88v-811c0 -83.333 9.33301 -141.333 28 -174s57.667 -60.667 117 -84h-483c60 23.333 99.333 51.333 118 84s27.667 90.667 27 174zM885.001 262
l-0.00292969 459.002c-0.666992 75.333 -21 132.666 -61 171.999s-90 59 -150 59s-124.333 -10.667 -193 -32c100 100 196.333 150 289 150s167.334 -28.667 224.001 -86c56.667 -56.667 85 -146.334 85 -269.001v-453c0 -83.333 9.33301 -142 28 -176
s57.334 -62.667 116.001 -86h-482c58.667 23.333 97.334 52 116.001 86s28 92.667 28 176z" />
    <glyph glyph-name="Ncaron" unicode="&#x147;" horiz-adv-x="1628" 
d="M907 1540h-119l-180 250l240 -127l244 127zM1180 1413l405 -0.00195312c-65.333 -30 -112.333 -87.667 -141 -173s-48 -225.666 -58 -420.999c-10.667 198 -30 340.333 -58 427s-77.333 142.334 -148 167.001zM494 -0.00195312h-433c46.667 20.667 82 46.667 106 78
c50 65.333 83.667 238 101 518c12 -275.333 49.333 -448 112 -518c26.667 -30 64.667 -56 114 -78zM1395 -16.002h-62l-966 1163c-60 72.667 -115 130 -165 172s-107 73.333 -171 94h381l983 -1171v-258z" />
    <glyph glyph-name="ncaron" unicode="&#x148;" horiz-adv-x="1269" 
d="M705 1163h-119l-180 250l239 -127l244 127zM215 258l0.00195312 428c0 106.667 -9.33301 176 -28 208s-65.334 61 -140.001 87c117.333 12 237.666 41.333 360.999 88v-811c0 -83.333 9.33301 -141.333 28 -174s57.667 -60.667 117 -84h-483
c60 23.333 99.333 51.333 118 84s27.667 90.667 27 174zM885.002 262l-0.00292969 459.002c-0.666992 75.333 -21 132.666 -61 171.999s-90 59 -150 59s-124.333 -10.667 -193 -32c100 100 196.333 150 289 150s167.334 -28.667 224.001 -86
c56.667 -56.667 85 -146.334 85 -269.001v-453c0 -83.333 9.33301 -142 28 -176s57.334 -62.667 116.001 -86h-482c58.667 23.333 97.334 52 116.001 86s28 92.667 28 176z" />
    <glyph glyph-name="napostrophe" unicode="&#x149;" horiz-adv-x="1269" 
d="M213 1432c0 26.667 10 49.667 30 69c20.667 19.333 45.667 29 75 29s54.333 -11.333 75 -34s31 -54.667 31 -96s-22.667 -89 -68 -143c-45.333 -54.667 -98.333 -102.334 -159 -143.001c46.667 70.667 69.667 129.334 69 176.001c0 18 -8.66699 39.333 -26 64
c-18 25.333 -27 51.333 -27 78zM215 258l0.00195312 428c0 106.667 -9.33301 176 -28 208s-65.334 61 -140.001 87c117.333 12 237.666 41.333 360.999 88v-811c0 -83.333 9.33301 -141.333 28 -174s57.667 -60.667 117 -84h-483c60 23.333 99.333 51.333 118 84
s27.667 90.667 27 174zM885.002 262l-0.00292969 459.002c-0.666992 75.333 -21 132.666 -61 171.999s-90 59 -150 59s-124.333 -10.667 -193 -32c100 100 196.333 150 289 150s167.334 -28.667 224.001 -86c56.667 -56.667 85 -146.334 85 -269.001v-453
c0 -83.333 9.33301 -142 28 -176s57.334 -62.667 116.001 -86h-482c58.667 23.333 97.334 52 116.001 86s28 92.667 28 176z" />
    <glyph glyph-name="Eng" unicode="&#x14a;" horiz-adv-x="1628" 
d="M494 0h-433c46.667 20.667 82 46.667 106 78c50 65.333 83.667 238 101 518c12 -275.333 49.333 -448 112 -518c26.667 -30 64.667 -56 114 -78zM1180 1413l405.001 0.000976562c-62.667 -28.667 -109 -90.334 -139 -185.001s-50 -231 -60 -409
c-10.667 179.333 -31.334 317 -62.001 413s-78.667 156.333 -144 181zM1395 86.001c0.666992 -136.667 -31 -246.999 -95 -330.999s-137 -126 -219 -126s-123 30.667 -123 92c0 23.333 6.33301 46.666 19 69.999c38 -16.667 74.667 -24.667 110 -24
c125.333 0 198 75.667 218 227c-16 32 -34 61.333 -54 88l-884 1065c-116 142 -228 230.667 -336 266h381l983 -1171v-156z" />
    <glyph glyph-name="eng" unicode="&#x14b;" horiz-adv-x="1269" 
d="M215 258l0.00195312 428c0 106.667 -9.33301 176 -28 208s-65.334 61 -140.001 87c117.333 12 237.666 41.333 360.999 88v-811c0 -83.333 9.33301 -141.333 28 -174s57.667 -60.667 117 -84h-483c60 23.333 99.333 51.333 118 84s27.667 90.667 27 174zM673.002 952
c-59.333 0 -123.334 -10.666 -192.001 -31.999c100 100 196 150 288 150s166 -29.333 222 -88c56 -58 84 -149.667 84 -275v-695c0 -149.333 -41.667 -267 -125 -353c-65.333 -66.667 -140.333 -117 -225 -151c46.667 38 84.334 93.667 113.001 167s43 155.666 43 246.999
l2 799c-0.666992 74 -21 131 -61 171s-89.667 60 -149 60z" />
    <glyph glyph-name="Omacron" unicode="&#x14c;" horiz-adv-x="1671" 
d="M1090 1618h-496v98h496v-98zM86 698c0 184 60.667 343.332 182 477.999s266 217.667 434 249c-121.333 -42 -215.333 -129 -282 -261s-100 -284.667 -100 -458s35.667 -328.666 107 -465.999c72 -138 164.667 -224 278 -258c-172 30 -318.333 110.667 -439 242
c-120 132 -180 290 -180 474zM1585 697.999c0 -184.667 -60.3311 -342.669 -180.998 -474.002s-266.334 -212 -437.001 -242c120 42 213.667 129.667 281 263c68 133.333 102 287 102 461c0 174.667 -33.333 327.334 -100 458.001s-160.334 217.667 -281.001 261
c166.667 -32.667 311 -115.667 433 -249s183 -292.666 183 -477.999z" />
    <glyph glyph-name="omacron" unicode="&#x14d;" horiz-adv-x="1253" 
d="M874 1241h-495v98h495v-98zM88 524c0 132.667 40.668 247.999 122.001 345.999s182.666 160.333 303.999 187c-64 -40.667 -114 -111 -150 -211s-54 -207.333 -54 -322s16.667 -222.667 50 -324c34.667 -101.333 84.667 -171.333 150 -210
c-121.333 26 -222 88.333 -302 187s-120 214.334 -120 347.001zM942.001 523.999c0 113.333 -18.3311 220.332 -54.998 320.999s-87.334 171.334 -152.001 212.001c124 -27.333 226.333 -87.666 307 -180.999s121 -208 121 -344s-40.333 -254 -121 -354
c-80.667 -99.333 -181.667 -162 -303 -188c65.333 39.333 115.666 110 150.999 212c34.667 101.333 52 208.666 52 321.999z" />
    <glyph glyph-name="Obreve" unicode="&#x14e;" horiz-adv-x="1671" 
d="M842 1665c45.333 0 91.334 11.333 138.001 34s81.667 53.667 105 93c-12 -68 -38.333 -126.667 -79 -176c-41.333 -49.333 -95.333 -74 -162 -74s-121 24.667 -163 74s-68.333 108 -79 176c23.333 -40.667 58 -72 104 -94c45.333 -22 90.666 -33 135.999 -33zM86.001 698
c0 184 60.667 343.332 182 477.999s266 217.667 434 249c-121.333 -42 -215.333 -129 -282 -261s-100 -284.667 -100 -458s35.667 -328.666 107 -465.999c72 -138 164.667 -224 278 -258c-172 30 -318.333 110.667 -439 242c-120 132 -180 290 -180 474zM1585 697.999
c0 -184.667 -60.3311 -342.669 -180.998 -474.002s-266.334 -212 -437.001 -242c120 42 213.667 129.667 281 263c68 133.333 102 287 102 461c0 174.667 -33.333 327.334 -100 458.001s-160.334 217.667 -281.001 261c166.667 -32.667 311 -115.667 433 -249
s183 -292.666 183 -477.999z" />
    <glyph glyph-name="obreve" unicode="&#x14f;" horiz-adv-x="1253" 
d="M625 1288c46 0 92.333 11.333 139 34s81.334 53.667 104.001 93c-12 -68 -38.667 -126.667 -80 -176s-95 -74 -161 -74c-66.667 0 -121 24.667 -163 74s-68.333 108 -79 176c23.333 -40.667 57.666 -72 102.999 -94s91 -33 137 -33zM88 524
c0 132.667 40.668 247.999 122.001 345.999s182.666 160.333 303.999 187c-64 -40.667 -114 -111 -150 -211s-54 -207.333 -54 -322s16.667 -222.667 50 -324c34.667 -101.333 84.667 -171.333 150 -210c-121.333 26 -222 88.333 -302 187s-120 214.334 -120 347.001z
M942.001 523.999c0 113.333 -18.3311 220.332 -54.998 320.999s-87.334 171.334 -152.001 212.001c124 -27.333 226.333 -87.666 307 -180.999s121 -208 121 -344s-40.333 -254 -121 -354c-80.667 -99.333 -181.667 -162 -303 -188c65.333 39.333 115.666 110 150.999 212
c34.667 101.333 52 208.666 52 321.999z" />
    <glyph glyph-name="Ohungarumlaut" unicode="&#x150;" horiz-adv-x="1671" 
d="M950 1790h164.001c-46.667 -96.667 -118.334 -180 -215.001 -250c28.667 98.667 45.667 182 51 250zM702.001 1790h164c-48 -100 -119.667 -183.333 -215 -250c31.333 94 48.333 177.333 51 250zM86.001 698c0 184 60.667 343.332 182 477.999s266 217.667 434 249
c-121.333 -42 -215.333 -129 -282 -261s-100 -284.667 -100 -458s35.667 -328.666 107 -465.999c72 -138 164.667 -224 278 -258c-172 30 -318.333 110.667 -439 242c-120 132 -180 290 -180 474zM1585 697.999c0 -184.667 -60.3311 -342.669 -180.998 -474.002
s-266.334 -212 -437.001 -242c120 42 213.667 129.667 281 263c68 133.333 102 287 102 461c0 174.667 -33.333 327.334 -100 458.001s-160.334 217.667 -281.001 261c166.667 -32.667 311 -115.667 433 -249s183 -292.666 183 -477.999z" />
    <glyph glyph-name="ohungarumlaut" unicode="&#x151;" horiz-adv-x="1253" 
d="M756 1413h164.001c-46.667 -96.667 -118.334 -180 -215.001 -250c28.667 98.667 45.667 182 51 250zM508.001 1413h164c-48 -100 -119.667 -183.333 -215 -250c31.333 94 48.333 177.333 51 250zM88.001 524c0 132.667 40.668 247.999 122.001 345.999
s182.666 160.333 303.999 187c-64 -40.667 -114 -111 -150 -211s-54 -207.333 -54 -322s16.667 -222.667 50 -324c34.667 -101.333 84.667 -171.333 150 -210c-121.333 26 -222 88.333 -302 187s-120 214.334 -120 347.001zM942.002 523.999
c0 113.333 -18.3311 220.332 -54.998 320.999s-87.334 171.334 -152.001 212.001c124 -27.333 226.333 -87.666 307 -180.999s121 -208 121 -344s-40.333 -254 -121 -354c-80.667 -99.333 -181.667 -162 -303 -188c65.333 39.333 115.666 110 150.999 212
c34.667 101.333 52 208.666 52 321.999z" />
    <glyph glyph-name="OE" unicode="&#x152;" horiz-adv-x="2310" 
d="M2120 1413l0.000976562 -303c-54.667 79.333 -106.334 143.333 -155.001 192s-105 85.667 -169 111h324zM2028 891v-330c-90 80.667 -192.667 136.667 -308 168c127.333 28.667 230 82.667 308 162zM2179 0l-356 0.000976562c82 31.333 149 69.666 201 114.999
s117.333 118.333 196 219zM86.001 698.001c0 184 60.667 343.332 182 477.999s266 217.667 434 249c-121.333 -42 -215.333 -129 -282 -261s-100 -284.667 -100 -458s35.667 -328.666 107 -465.999c72 -138 164.667 -224 278 -258c-172 30 -318.333 110.667 -439 242
c-120 132 -180 290 -180 474zM1552 0l-206.001 -0.00195312v180c-101.333 -105.333 -227.666 -170.666 -378.999 -195.999c120 40.667 213.667 127.667 281 261c68 133.333 102 287 102 461c0 174.667 -33.333 327.334 -100 458.001s-160.334 217.667 -281.001 261
c144.667 -27.333 270.334 -96 377.001 -206v194h206v-1413z" />
    <glyph glyph-name="oe" unicode="&#x153;" horiz-adv-x="1898" 
d="M1817 582h-564.001c84.667 8 211 29 379 63c0 232 -46.333 370 -139 414c95.333 -6.66699 173.333 -46 234 -118s91.334 -172 92.001 -300c0 -27.333 -0.666992 -47 -2 -59zM87.999 524c0 132.667 40.668 247.999 122.001 345.999s182.666 160.333 303.999 187
c-64 -40.667 -114 -111 -150 -211s-54 -207.333 -54 -322s16.667 -222.667 50 -324c34.667 -101.333 84.667 -171.333 150 -210c-121.333 26 -222 88.333 -302 187s-120 214.334 -120 347.001zM1409 -25.001c-172 0 -299.663 69.6689 -382.996 209.002
c-70.667 -105.333 -166.334 -170 -287.001 -194c65.333 39.333 115.666 110 150.999 212c34.667 101.333 52 208.666 52 321.999s-18.333 220.333 -55 321s-87.334 171.334 -152.001 212.001c135.333 -31.333 237 -104.333 305 -219c75.333 121.333 178.666 195 309.999 221
c-60 -36.667 -108.667 -98.334 -146 -185.001s-56.333 -194 -57 -322c0 -128 34 -231.333 102 -310c68.667 -78.667 157.667 -118.334 267 -119.001c109.333 0 211 37.667 305 113c-27.333 -61.333 -76.333 -120 -147 -176s-159 -84.333 -265 -85z" />
    <glyph glyph-name="Racute" unicode="&#x154;" horiz-adv-x="1349" 
d="M713 1790h209c-82 -109.333 -199.667 -192.666 -353 -249.999c68.667 75.333 116.667 158.666 144 249.999zM1266 0c-117.333 0 -192.997 8.66602 -226.997 25.999c-33.333 17.333 -79.333 71.333 -138 162l-293 451c101.333 10 184.666 48.333 249.999 115
s98 160.667 98 282c0 91.333 -25 172.333 -75 243c-50.667 70 -125.334 114 -224.001 132c170.667 -8 299 -39.667 385 -95s129 -146.666 129 -273.999c0 -105.333 -33 -189.333 -99 -252s-151 -106.334 -255 -131.001l309 -430c60 -84.667 106.667 -139.667 140 -165
s79.666 -46.666 138.999 -63.999h-139zM238.003 278.999v856c0 90 -11 152.667 -33 188s-67.667 65.333 -137 90h376v-1134c0 -90 11 -153 33 -189s67.667 -66 137 -90h-546c69.333 23.333 115 53 137 89s33 99.333 33 190z" />
    <glyph glyph-name="racute" unicode="&#x155;" horiz-adv-x="782" 
d="M442 1413h209c-82 -109.333 -199.333 -192.666 -352 -249.999c68 75.333 115.667 158.666 143 249.999zM215 262l-0.00195312 443.002c0 90 -9.66699 151 -29 183s-65.666 61 -138.999 87c86 5.33301 207 36.666 363 93.999v-807c0 -86 10.667 -145.667 32 -179
s67.333 -61 138 -83h-508c58.667 23.333 97.334 51.666 116.001 84.999s27.667 92.333 27 177zM646.998 815.002c-35.333 0 -65.335 12.333 -90.002 37s-37 54.667 -37 90s12.333 65.333 37 90s54.334 37 89.001 37s64.334 -12.333 89.001 -37s37 -54.667 37 -90
s-12 -65.333 -36 -90s-53.667 -37 -89 -37z" />
    <glyph glyph-name="Rcommaaccent" unicode="&#x156;" horiz-adv-x="1349" 
d="M594 -216c0 26.667 9.99902 49.667 29.999 69s44.667 29 74 29s54.666 -11.667 75.999 -35c20.667 -22.667 31 -54.334 31 -95.001c0.666992 -40 -21.666 -88 -66.999 -144s-98.666 -103.667 -159.999 -143c46.667 70.667 69.667 130.334 69 179.001
c-0.666992 18.667 -9.66699 40 -27 64s-26 49.333 -26 76zM1266 0c-117.333 0 -192.997 8.66602 -226.997 25.999c-33.333 17.333 -79.333 71.333 -138 162l-293 451c101.333 10 184.666 48.333 249.999 115s98 160.667 98 282c0 91.333 -25 172.333 -75 243
c-50.667 70 -125.334 114 -224.001 132c170.667 -8 299 -39.667 385 -95s129 -146.666 129 -273.999c0 -105.333 -33 -189.333 -99 -252s-151 -106.334 -255 -131.001l309 -430c60 -84.667 106.667 -139.667 140 -165s79.666 -46.666 138.999 -63.999h-139zM238.002 278.999
v856c0 90 -11 152.667 -33 188s-67.667 65.333 -137 90h376v-1134c0 -90 11 -153 33 -189s67.667 -66 137 -90h-546c69.333 23.333 115 53 137 89s33 99.333 33 190z" />
    <glyph glyph-name="rcommaaccent" unicode="&#x157;" horiz-adv-x="782" 
d="M211 -216c0 26.667 10 49.667 30 69c20.667 19.333 45.667 29 75 29s54.333 -11.667 75 -35c20.667 -22.667 31 -54.334 31 -95.001c0 -40 -22.667 -88 -68 -144s-98.333 -103.667 -159 -143c46.667 70.667 69.667 130.334 69 179.001c0 18.667 -8.66699 40 -26 64
s-26.333 49.333 -27 76zM215 262l-0.00195312 443.002c0 90 -9.66699 151 -29 183s-65.666 61 -138.999 87c86 5.33301 207 36.666 363 93.999v-807c0 -86 10.667 -145.667 32 -179s67.333 -61 138 -83h-508c58.667 23.333 97.334 51.666 116.001 84.999
s27.667 92.333 27 177zM646.998 815.002c-35.333 0 -65.335 12.333 -90.002 37s-37 54.667 -37 90s12.333 65.333 37 90s54.334 37 89.001 37s64.334 -12.333 89.001 -37s37 -54.667 37 -90s-12 -65.333 -36 -90s-53.667 -37 -89 -37z" />
    <glyph glyph-name="Rcaron" unicode="&#x158;" horiz-adv-x="1349" 
d="M727 1540h-119l-180 250l240 -127l243 127zM1266 0c-117.333 0 -192.997 8.66602 -226.997 25.999c-33.333 17.333 -79.333 71.333 -138 162l-293 451c101.333 10 184.666 48.333 249.999 115s98 160.667 98 282c0 91.333 -25 172.333 -75 243
c-50.667 70 -125.334 114 -224.001 132c170.667 -8 299 -39.667 385 -95s129 -146.666 129 -273.999c0 -105.333 -33 -189.333 -99 -252s-151 -106.334 -255 -131.001l309 -430c60 -84.667 106.667 -139.667 140 -165s79.666 -46.666 138.999 -63.999h-139zM238.003 278.999
v856c0 90 -11 152.667 -33 188s-67.667 65.333 -137 90h376v-1134c0 -90 11 -153 33 -189s67.667 -66 137 -90h-546c69.333 23.333 115 53 137 89s33 99.333 33 190z" />
    <glyph glyph-name="rcaron" unicode="&#x159;" horiz-adv-x="782" 
d="M457 1163h-119l-180 250l239 -127l244 127zM215 262l-0.00195312 443.002c0 90 -9.66699 151 -29 183s-65.666 61 -138.999 87c86 5.33301 207 36.666 363 93.999v-807c0 -86 10.667 -145.667 32 -179s67.333 -61 138 -83h-508
c58.667 23.333 97.334 51.666 116.001 84.999s27.667 92.333 27 177zM646.998 815.002c-35.333 0 -65.335 12.333 -90.002 37s-37 54.667 -37 90s12.333 65.333 37 90s54.334 37 89.001 37s64.334 -12.333 89.001 -37s37 -54.667 37 -90s-12 -65.333 -36 -90
s-53.667 -37 -89 -37z" />
    <glyph glyph-name="Sacute" unicode="&#x15a;" horiz-adv-x="1050" 
d="M561 1790h209c-82 -109.333 -199.333 -192.666 -352 -249.999c68 75.333 115.667 158.666 143 249.999zM905 1358l0.000976562 -301c-84.667 221.333 -188.334 348.333 -311.001 381c86 -4 189.667 -30.667 311 -80zM121.001 55l0.000976562 359.001
c45.333 -122.667 92.333 -219.334 141 -290.001c49.333 -70 113 -120.333 191 -151c-136.667 10.667 -247.334 38 -332.001 82zM805.002 266.001c0 62.667 -23.666 121.334 -70.999 176.001s-104.333 102 -171 142l-199 124c-66 41.333 -122.667 92.666 -170 153.999
s-71 134.666 -71 219.999s31.667 160.666 95 225.999s144.333 106.666 243 123.999c-52 -19.333 -94.667 -53.666 -128 -102.999c-33.333 -50 -50 -103.667 -50 -161s23.333 -112.666 70 -165.999c47.333 -52.667 104.666 -98.667 171.999 -138l203 -122
c68 -42.667 125.333 -95.667 172 -159c47.333 -63.333 71 -139.333 71 -228s-32 -167.667 -96 -237s-148 -114.666 -252 -135.999c56 22.667 100.333 60 133 112s49 109.333 49 172z" />
    <glyph glyph-name="sacute" unicode="&#x15b;" horiz-adv-x="888" 
d="M451 1413h208c-82 -109.333 -199.333 -192.666 -352 -249.999c68.667 75.333 116.667 158.666 144 249.999zM729 1010l-0.000976562 -280.999c-15.333 72.667 -47.333 142 -96 208c-49.333 66 -98.666 108 -147.999 126c84.667 -6.66699 166 -24.334 244 -53.001z
M97.999 55.001c-1.33301 64 -2 160.333 -2 289c69.333 -192.667 163 -312.667 281 -360c-112 9.33301 -205 33 -279 71zM654.999 188.001c0 80.667 -64.998 152.336 -194.998 215.003l-162 82c-54 28.667 -100 67.667 -138 117c-38.667 49.333 -58 108.666 -58 177.999
s23.667 128.666 71 177.999s108.333 82.333 183 99c-36.667 -18 -66 -43.667 -88 -77c-21.333 -33.333 -32 -71.333 -32 -114c0.666992 -74 67 -143 199 -207c55.333 -26 110.666 -53.667 165.999 -83s102.333 -68.333 141 -117c38.667 -50 58 -111 58 -183
s-26 -135 -78 -189c-52.667 -54 -121.334 -87.667 -206.001 -101c92.667 39.333 139 106.666 139 201.999z" />
    <glyph glyph-name="Scircumflex" unicode="&#x15c;" horiz-adv-x="1050" 
d="M780 1540l-243 125l-240 -125l180 250h119zM905 1358l0.000976562 -301c-84.667 221.333 -188.334 348.333 -311.001 381c86 -4 189.667 -30.667 311 -80zM121.001 55l0.000976562 359.001c45.333 -122.667 92.333 -219.334 141 -290.001
c49.333 -70 113 -120.333 191 -151c-136.667 10.667 -247.334 38 -332.001 82zM805.002 266.001c0 62.667 -23.666 121.334 -70.999 176.001s-104.333 102 -171 142l-199 124c-66 41.333 -122.667 92.666 -170 153.999s-71 134.666 -71 219.999s31.667 160.666 95 225.999
s144.333 106.666 243 123.999c-52 -19.333 -94.667 -53.666 -128 -102.999c-33.333 -50 -50 -103.667 -50 -161s23.333 -112.666 70 -165.999c47.333 -52.667 104.666 -98.667 171.999 -138l203 -122c68 -42.667 125.333 -95.667 172 -159
c47.333 -63.333 71 -139.333 71 -228s-32 -167.667 -96 -237s-148 -114.666 -252 -135.999c56 22.667 100.333 60 133 112s49 109.333 49 172z" />
    <glyph glyph-name="scircumflex" unicode="&#x15d;" horiz-adv-x="888" 
d="M672 1163l-244 125l-240 -125l181 250h118zM729 1010l-0.000976562 -280.999c-15.333 72.667 -47.333 142 -96 208c-49.333 66 -98.666 108 -147.999 126c84.667 -6.66699 166 -24.334 244 -53.001zM97.999 55.001c-1.33301 64 -2 160.333 -2 289
c69.333 -192.667 163 -312.667 281 -360c-112 9.33301 -205 33 -279 71zM654.999 188.001c0 80.667 -64.998 152.336 -194.998 215.003l-162 82c-54 28.667 -100 67.667 -138 117c-38.667 49.333 -58 108.666 -58 177.999s23.667 128.666 71 177.999s108.333 82.333 183 99
c-36.667 -18 -66 -43.667 -88 -77c-21.333 -33.333 -32 -71.333 -32 -114c0.666992 -74 67 -143 199 -207c55.333 -26 110.666 -53.667 165.999 -83s102.333 -68.333 141 -117c38.667 -50 58 -111 58 -183s-26 -135 -78 -189c-52.667 -54 -121.334 -87.667 -206.001 -101
c92.667 39.333 139 106.666 139 201.999z" />
    </font>
</defs>
</svg>
