<?xml version="1.0" encoding="utf-8"?>
<!-- Generator: Adobe Illustrator 19.0.0, SVG Export Plug-In . SVG Version: 6.00 Build 0)  -->
<svg version="1.2" baseProfile="tiny" id="Слой_1"
	 xmlns="http://www.w3.org/2000/svg" xmlns:xlink="http://www.w3.org/1999/xlink" x="0px" y="0px" viewBox="0 0 55.3 55.3"
	 xml:space="preserve">
<rect y="36.9" fill="#007550" width="55.3" height="18.4"/>
<rect y="0" fill="#CE1141" width="55.3" height="37"/>
<g>
	<path fill="none" d="M15.6,39.5h1.6l0.5-2.2c0-0.1,0-0.2,0.1-0.3h-1.4L15.6,39.5z"/>
	<path fill="none" d="M14.9,41.7c0.2,0.2,0.4,0.4,0.6,0.6h0.9l0.7-2.7h-1.6L14.9,41.7z"/>
	<path fill="none" d="M16.3,42.9C16.3,42.8,16.3,42.8,16.3,42.9l0.1-0.4h-0.7C15.9,42.6,16.1,42.7,16.3,42.9z"/>
	<path fill="none" d="M13.4,36l-0.3,0.9h1.4C14.5,36.2,14.1,36.1,13.4,36z"/>
	<path fill="none" d="M13.6,40.4l0.2-0.8h-0.9C13.1,39.9,13.3,40.1,13.6,40.4z"/>
	<path fill="none" d="M12.4,39c0.1,0.2,0.2,0.3,0.3,0.5h1.1l0.6-1.9c0.1-0.2,0.1-0.4,0.1-0.6h-1.5L12.4,39z"/>
	<path fill="none" d="M28.9,36.9h3.9c0.4-1.4,1.2-2.1,2-2.4c0,0,0,0,0.1,0H31c0.5,0.1,1.2,0.4,1.5,1.1l-1,1.3
		C31.6,35.7,29.7,35,28.9,36.9z"/>
	<path fill="none" d="M31.6,42.1l0.1,0.2h1c-0.2-0.7-0.4-1.6-0.3-2.7h-4.1c0,1.1,0.1,2.1,0.4,2.7h2.8C31.6,42.2,31.6,42.2,31.6,42.1
		z"/>
	<path fill="none" d="M16.6,35.9l-0.3,0.9h1.4C17.7,36.2,17.2,36,16.6,35.9z"/>
	<path fill="none" d="M34.4,36.9l2.2,0C36.3,35.9,34.7,35.2,34.4,36.9z"/>
	<path fill="none" d="M34.5,42c0.1,0.1,0.1,0.2,0.2,0.3l2.7,0l-0.4-2.7h-2.8C34.1,40.6,34.2,41.4,34.5,42z"/>
	<path fill="none" d="M19.5,36.7l0,0.2h1.3c0.3-0.5,0.6-1,0.8-1.3c1.1-1.3,2.8-1.5,3.1-0.5l0.1-0.6h1.7c0,0-0.1,1.1-0.2,2.4h1
		c0.6-1.7,1.5-2.3,2.3-2.5l-19.8,0c0.4,0.9,0.8,1.7,1.2,2.5h0.5l0.9-2.4h5.4C19,34.4,19.7,35.7,19.5,36.7z"/>
	<path fill="none" d="M11.2,37.3l0.1-0.3H11C11,37.1,11.1,37.2,11.2,37.3z"/>
	<path fill="none" d="M34.3,37c-0.2,0.8-0.2,1.7-0.2,2.5h2.8L36.6,37v0H34.3z"/>
	<path fill="none" d="M23.4,14l0.1,0.3c0,0-0.3,0.1-0.3,0.1l0.1,1l-0.1,0.5h9l-0.1-0.5l0.1-1c0,0-0.3-0.1-0.3-0.1c0,0,0-0.2,0-0.2
		c1.7,0,10.2,0,10.2,0c0.2,0.1-0.8-0.8-0.6-0.6l-10.1,0v-0.2c-0.1-0.2-0.3-0.2-0.3,0v0.2h-1h-5.5l0-0.2c-0.1-0.1-0.2-0.1-0.3,0
		l0,0.2l-10.1,0c0.1-0.2-0.8,0.7-0.6,0.7C13.4,14,21.7,14,23.4,14z"/>
	<path fill="none" d="M12.1,26.4h14.3c0.6-1,2-1,2.5,0l14.4,0l-0.3-0.9h4.1c0,0-0.1-0.4-0.1-0.8c-0.1-0.4-0.1-0.7-0.1-0.7H43v0
		l-34.5,0c0,0-0.1,0.4-0.1,0.8c0,0.4-0.1,0.7-0.1,0.8l4,0L12.1,26.4z"/>
	<polygon fill="none" points="12.9,23.4 12.3,23.4 12.4,23.8 43,23.8 43.2,23.4 42.5,23.4 42.3,22.6 46.6,22.6 46.2,21.2 41.8,21.2 
		9.2,21.3 8.8,22.6 13.2,22.6 	"/>
	<path fill="none" d="M20.7,16.9c0,0-0.1,0.9-0.1,0.9l-0.4,0l0.2,0.7l14.7,0l0.2-0.7h-0.4c0,0-0.1-0.9-0.1-0.9c0,0,9.5,0,9.5,0
		c0,0-0.4-0.6-0.6-0.9h-9.8c0,0-0.1-0.6-0.1-0.9c0-0.3-0.3-0.3-0.3,0l0,1l-1.3,0v0L22,16c0,0,0.1-0.8,0.1-0.8c0-0.3-0.3-0.3-0.3,0
		c0,0.3-0.1,1-0.2,0.9l-9.8,0c-0.2,0.3-0.6,0.9-0.6,0.9C11.2,16.9,20.7,16.9,20.7,16.9z"/>
	<polygon fill="none" points="10.6,31.6 16.2,31.6 16.7,29.1 8.3,29.1 8.5,30.3 8.7,31.3 10.7,31.3 	"/>
	<path fill="none" d="M29.7,12.4l0,0.7l-1.4-0.8l0-0.2l-0.5,0l0-0.4h0.7l0-0.3l-0.7,0l0-0.5l10.5,0c-0.2-0.2-0.6-0.4-0.6-0.4
		s-10.1,0-10.1,0c0,0-10,0-10,0s-0.4,0.1-0.6,0.4h10.5l0,0.5l-0.7,0l0,0.3l0.7,0v0.4l-0.5,0l0,0.2l-1.4,0.8v-0.7
		c-0.1-0.2-0.2-0.2-0.3,0c0,0,0,0.5-0.1,0.8l4.7,0l0,0.1L30,12.4C29.9,12.3,29.7,12.2,29.7,12.4z"/>
	<polygon fill="none" points="16.8,31.2 18.4,31.2 18.7,29.1 18,29.1 17.3,29.1 	"/>
	<path fill="none" d="M18.9,27.8c0.1-1-0.9-1-1.4-0.1l-0.1,0.6h1.4L18.9,27.8z"/>
	<path fill="none" d="M26.1,29.1h-7.2l-0.4,2.5h7.6C26.1,31.3,26.1,30.2,26.1,29.1z"/>
	<path fill="none" d="M26.2,31.2l3,0c0-0.3,0-1.8,0-2h-3C26.2,29.5,26.2,30.9,26.2,31.2z"/>
	<path fill="none" d="M11.3,29h5.4l0.3-1.4c0.5-1.4,2.2-1.2,2,0.2L18.9,29h7.2c0-0.9,0-1.8,0.1-2.2c0-0.1,0.1-0.2,0.1-0.3l-18.1,0
		l0,1.1l0,0.7l3.3,0L11.3,29z"/>
	<path fill="none" d="M27.7,26.5L27.7,26.5c-0.5,0-1.4,0.3-1.5,1.8h2.9C29.1,26.8,28.1,26.5,27.7,26.5z"/>
	<path fill="none" d="M41.5,20.8c-0.1-0.5-0.3-1.1-0.3-1.1l4.5,0c0,0-0.4-1.1-0.5-1.1c0,0-2,0-4.3,0c0.1-0.4-0.5-0.4-0.5,0
		c-0.7,0-1.1,0-1.8,0c0.1-0.4-0.5-0.5-0.5,0c-1.6,0-3.1,0-3.1,0c0,0-17.7,0-17.7,0c0.1-0.5-0.6-0.4-0.5,0h-1.8
		c0.1-0.4-0.6-0.4-0.5,0c-2.2,0-4.3,0-4.3,0c0,0-0.5,1.1-0.5,1.1l4.6,0c0,0-0.2,0.6-0.3,1.1l-0.3,0c0,0,0,0.2,0,0.3h28l0,0.1
		c0,0,0.1-0.5,0.1-0.5C41.8,20.8,41.5,20.8,41.5,20.8z M15.6,20.2l-0.8,0l0-0.4h1L15.6,20.2z M16.5,20.2h-0.2l0-0.5l0.5,0L16.5,20.2
		z M18.4,20.3l-0.4,0l-0.1,0.3l-0.7,0c0,0.1,0-0.8,0-0.8l1.4,0L18.4,20.3z M19.9,20.1c-0.3,0.2-0.7,0.1-0.7,0.1l-0.1-0.6h1.1
		L19.9,20.1z M36.3,20.2c0,0-0.6,0.1-0.8-0.1l-0.2-0.4l1.1,0L36.3,20.2z M38.2,20.5l-0.6,0l-0.1-0.3c-0.2,0-0.4,0-0.4,0l-0.1-0.6
		l1.3,0C38.2,19.7,38.2,20.6,38.2,20.5z M39.2,20.1h-0.3l-0.1-0.5h0.5L39.2,20.1z M39.9,20.1l-0.1-0.5l0.8,0l0,0.5H39.9z"/>
	<path fill="none" d="M8.8,31.7c0.1,0.6,0.4,1.6,0.7,2.4l0.6,0l-0.1,0.2h35.3l-0.1-0.2l0.5,0c0.2-0.5,0.7-1.9,0.8-2.4H45L8.8,31.7z"
		/>
	<path fill="none" d="M44.2,37.4c0.1-0.1,0.2-0.3,0.3-0.4H44L44.2,37.4z"/>
	<path fill="none" d="M39.8,39.6h-1.3c0.2,1.2,0.3,2.3,0.4,2.6c0,0,0,0,0,0h0.9c0.1-0.1,0.2-0.2,0.4-0.3c0,0,0-0.1,0-0.1L39.8,39.6z
		"/>
	<path fill="none" d="M41.8,40.7l0.1,0.6c0.3,0.9,0.6,1.2,1.6,1.3l-0.7-2.9C42.5,39.9,42.2,40.3,41.8,40.7z"/>
	<path fill="none" d="M42.8,39.3L42.3,37h-1.2l0.5,2.5h1C42.7,39.4,42.7,39.4,42.8,39.3z"/>
	<path fill="none" d="M41.6,39.6l0.2,0.8c0.2-0.3,0.5-0.5,0.7-0.8H41.6z"/>
	<path fill="none" d="M45.5,34.4H35.4c0.5,0.1,0.9,0.4,1,0.6c0-0.1,0-0.3,0-0.3v-0.3h1.4c0,0,0.1,1.1,0.3,2.4h1.2l-0.1-0.8h-0.7
		l0.2-1.7h1.8l0.5,2.4h1.2l-0.5-2.4h1.6l0.7,2.4h0.5c0.5-0.8,0.9-1.6,1.2-2.5H45.5L45.5,34.4z"/>
	<path fill="none" d="M38.7,29.1l0.6,2.5h5.6c0-0.2-0.1-0.4-0.1-0.4l2,0l0.2-1l0.1-1.1h-2.9H38.7z"/>
	<path fill="none" d="M37,31.6l-0.4-2.5h-7.3c0,1.1,0,2.1,0,2.5H37z"/>
	<path fill="none" d="M31.5,42.4h-2.6c0,0,0,0,0,0C29.4,43.4,30.8,43.5,31.5,42.4z"/>
	<path fill="none" d="M43.4,26.5L43.4,26.5l-14.4,0c0,0.1,0.1,0.2,0.1,0.3c0.1,0.4,0.1,1.3,0.1,2.2h7.3l-0.2-1.3
		c-0.2-1.3,1.5-1.6,2-0.2l0.3,1.4h5.4l-0.2-0.7h3.3l0-0.7v-1.1H43.4z"/>
	<polygon fill="none" points="38.6,31.2 38.2,29.1 36.7,29.1 37,31.2 	"/>
	<path fill="none" d="M36.5,27.8l0.1,0.6l1.4,0l-0.1-0.7C37.5,26.7,36.4,26.9,36.5,27.8z"/>
	<path fill="none" d="M24.5,36.7c0.1-0.9-1.1-1-1.7-0.1c-0.1,0.1-0.1,0.2-0.2,0.4h1.9L24.5,36.7z"/>
	<path fill="none" d="M24.5,37h-2c-0.4,0.7-0.7,1.6-0.9,2.5h2.7L24.5,37z"/>
	<path fill="none" d="M21.5,40.2c0,0.7,0.1,1.5,0.5,2.1H24c0,0,0-0.1,0-0.1l0.2-2.6h-2.7C21.5,39.8,21.5,40,21.5,40.2z"/>
	<path fill="none" d="M26.2,37c-0.1,0.8-0.2,1.7-0.2,2.5h0.7c0.1-0.8,0.2-1.7,0.5-2.5H26.2z"/>
	<path fill="none" d="M25.9,39.6c-0.1,0.9-0.1,1.6-0.2,1.9c0,0.3,0,0.6,0.1,0.8H27c-0.2-0.9-0.3-1.8-0.3-2.7H25.9z"/>
	<path fill="none" d="M39.1,42.8c0.2-0.1,0.3-0.2,0.5-0.4h-0.7C39,42.6,39,42.7,39.1,42.8z"/>
	<path fill="none" d="M18.9,39.6l-0.5,2.7h1.5c-0.1-0.4-0.1-0.7-0.1-1.2c0-0.5,0.1-1,0.1-1.5H18.9z"/>
	<path fill="none" d="M37.3,42.4h-2.6c0.6,0.7,1.6,0.9,2.4,0.5c0,0-0.2,0.7-0.3,1.3c0.3-0.2,0.6-0.3,0.9-0.5
		c-0.1-0.3-0.2-0.7-0.3-1.1L37.3,42.4z"/>
	<path fill="none" d="M32.7,37.3c0-0.1,0.1-0.2,0.1-0.3l-3.9,0c-0.3,0.8-0.4,1.7-0.5,2.5h4.1C32.5,38.9,32.5,38.2,32.7,37.3z"/>
	<path fill="none" d="M33.9,44.3c-0.3-0.4-0.7-1-1.1-1.9h-1l1,1.4c-1.2,2.3-3.7,2.3-4.9,0.5c-0.4-0.6-0.7-1.2-0.9-1.9h-1.1
		c0.1,0.4,0.4,0.6,0.9,0.7l-1,2.5c0,0-0.2-0.3-0.8-0.8c-0.6-0.4-1-1.1-0.9-2.4h-2c0.4,0.5,0.9,0.8,1.7,0.6l-1.1,2.4
		c-1-0.1-2.4-1.2-2.8-3l-1.5,0c-0.1,0.5,0.3,1,1,1.1l-0.5,0.9c2.7,1.4,5.7,2.2,8.9,2.2c2.6,0,5-0.5,7.2-1.4
		C34.3,44.8,33.9,44.4,33.9,44.3z"/>
	<path fill="none" d="M20.6,37h-1.2l-0.5,2.5h1C20,38.5,20.3,37.7,20.6,37z"/>
	<path fill="none" d="M39.3,37h-1.2c0.1,0.8,0.2,1.7,0.3,2.5h1.3L39.3,37z"/>
	<path fill="#FFFFFF" d="M35.4,20c0.3,0.2,0.8,0.1,0.8,0.1l0.1-0.5l-1.1,0L35.4,20z"/>
	<path fill="#FFFFFF" d="M37,20.3c0,0,0.3,0,0.4,0l0.1,0.3l0.6,0c0,0.1,0.1-0.9,0.1-0.9l-1.3,0L37,20.3z"/>
	<polygon fill="#FFFFFF" points="39.7,19.7 39.9,20.1 40.6,20.1 40.6,19.7 	"/>
	<polygon fill="#FFFFFF" points="38.8,20.1 39.2,20.1 39.3,19.7 38.7,19.7 	"/>
	
		<line fill="none" stroke="#FFFFFF" stroke-width="0" stroke-linecap="round" stroke-linejoin="round" x1="27.8" y1="46.7" x2="27.8" y2="46.7"/>
	
		<line fill="none" stroke="#FFFFFF" stroke-width="0" stroke-linecap="round" stroke-linejoin="round" x1="27.7" y1="46.7" x2="27.7" y2="46.7"/>
	<path fill="#FFFFFF" d="M27.7,7.6c-11,0-19.7,9-19.6,19.6c0,3.8,1.1,7.3,3.1,10.3l-2.8,7.8h1.9l2-6.1c0.4,0.5,0.8,0.9,1.2,1.3
		L12,45.3h1.9l1-3.4c0.5,0.4,0.9,0.8,1.4,1.1c-0.1,0.9,0.3,1.6,0.9,2l0.9,0.6l0.6-1.1c2.7,1.4,5.7,2.2,9,2.2v0c0,0,0,0,0,0
		c0,0,0,0,0,0v0c2.6,0,5.1-0.5,7.4-1.5c0.3,0.2,0.8,0.3,1.3,0.3c0,0,0.1-0.5,0.3-1c0.3-0.2,0.7-0.4,1-0.6c0.5,1.1,1.5,1.6,2.3,1.6
		l0.2-2.4c-0.3,0-0.6,0-0.9-0.2c0.3-0.2,0.7-0.5,1-0.7c0.7,2.6,2.8,3.3,6.1,3.1l-2.1-7.7c2-3.1,3.1-6.7,3.1-10.5
		C47.4,16.6,38.7,7.6,27.7,7.6z M14,13.3l10.1,0l0-0.2c0.1-0.1,0.2-0.2,0.3,0l0,0.2H30l0-0.1l-4.7,0c0-0.3,0.1-0.8,0.1-0.8
		c0.1-0.2,0.2-0.2,0.3,0v0.7l1.4-0.8l0-0.2l0.5,0v-0.4l-0.7,0l0-0.3l0.7,0l0-0.5H17c0.2-0.2,0.6-0.4,0.6-0.4s10,0,10,0
		c0,0,10.1,0,10.1,0s0.3,0.2,0.6,0.4l-10.5,0l0,0.5l0.7,0l0,0.3h-0.7l0,0.4l0.5,0l0,0.2l1.4,0.8l0-0.7c0.1-0.1,0.2-0.1,0.3,0
		l0.1,0.9h1v-0.2c0.1-0.2,0.3-0.2,0.3,0v0.2l10.1,0C41.2,13.1,42.2,14,42,14c0,0-8.5,0-10.2,0c0,0,0,0.2,0,0.2c0,0,0.3,0.1,0.3,0.1
		l-0.1,1l0.1,0.5h-9l0.1-0.5l-0.1-1c0,0,0.3-0.1,0.3-0.1L23.4,14c-1.6,0-10,0-10,0C13.3,14.1,14.2,13.2,14,13.3z M11.8,16l9.8,0
		c0,0.1,0.1-0.6,0.2-0.9c0-0.3,0.3-0.3,0.3,0c0,0.1-0.1,0.8-0.1,0.8l10.2,0v0l1.3,0l0-1c0-0.3,0.2-0.3,0.3,0c0,0.3,0.1,0.9,0.1,0.9
		h9.8c0.2,0.3,0.6,0.9,0.6,0.9c0,0-9.5,0-9.5,0c0,0,0.1,0.9,0.1,0.9h0.4l-0.2,0.7l-14.7,0l-0.2-0.7l0.4,0c0,0,0.1-0.9,0.1-0.9
		c0,0-9.5,0-9.5,0C11.2,16.9,11.6,16.3,11.8,16z M9.2,21.3l32.6,0l0-0.1h-28c0-0.1,0-0.3,0-0.3l0.3,0c0.1-0.5,0.3-1.1,0.3-1.1
		l-4.6,0c0,0,0.5-1.1,0.5-1.1c0,0,2.1,0,4.3,0c-0.1-0.4,0.6-0.4,0.5,0h1.8c-0.2-0.4,0.6-0.5,0.5,0c0,0,17.7,0,17.7,0
		c0,0,1.5,0,3.1,0c-0.1-0.5,0.6-0.4,0.5,0c0.7,0,1.1,0,1.8,0c-0.1-0.4,0.5-0.4,0.5,0c2.3,0,4.3,0,4.3,0c0,0,0.5,1.1,0.5,1.1l-4.5,0
		c0,0,0.2,0.6,0.3,1.1c0,0,0.3,0,0.3,0c0,0-0.1,0.5-0.1,0.5h4.5l0.4,1.3h-4.4l0.2,0.8h0.7L43,23.8H12.4l-0.1-0.4h0.7l0.2-0.8H8.8
		L9.2,21.3z M8.4,24.7c0-0.4,0.1-0.8,0.1-0.8l34.5,0v0h3.9c0,0,0.1,0.3,0.1,0.7c0.1,0.4,0.1,0.8,0.1,0.8h-4.1l0.3,0.9l-14.4,0
		c-0.6-1-2-1-2.5,0H12.1l0.2-0.9l-4,0C8.3,25.5,8.4,25.1,8.4,24.7z M26.3,28.4c0.1-1.6,1-1.8,1.4-1.8h0.1c0.4,0,1.3,0.3,1.4,1.8
		H26.3z M29.2,29.1c0,0.2,0,1.7,0,2l-3,0c0-0.3,0-1.7,0-2H29.2z M8.2,27.6l0-1.1l18.1,0c0,0.1-0.1,0.2-0.1,0.3
		c-0.1,0.4-0.1,1.3-0.1,2.2h-7.2l0.2-1.2c0.2-1.4-1.5-1.5-2-0.2L16.8,29h-5.4l0.2-0.7l-3.3,0L8.2,27.6z M18,29.1h0.7l-0.3,2.1
		l-1.6,0l0.4-2.1H18z M17.4,28.3l0.1-0.6c0.4-0.9,1.5-0.9,1.4,0.1l-0.1,0.5H17.4z M18.9,29.1h7.2c0,1.1,0,2.1,0,2.5h-7.6L18.9,29.1z
		 M8.5,30.3l-0.2-1.2h8.4l-0.6,2.5h-5.6l0.1-0.4l-2,0L8.5,30.3z M11.2,37.3C11.1,37.2,11,37.1,11,37h0.3L11.2,37.3z M13.6,40.4
		c-0.2-0.3-0.5-0.5-0.7-0.8h0.9L13.6,40.4z M14.4,37.6l-0.6,1.9h-1.1c-0.1-0.1-0.2-0.3-0.3-0.5l0.7-2h1.5
		C14.5,37.2,14.5,37.4,14.4,37.6z M13.1,36.9l0.3-0.9c0.7,0.1,1.1,0.3,1.1,0.9H13.1z M16.3,42.8C16.3,42.8,16.3,42.8,16.3,42.8
		c-0.2-0.1-0.4-0.2-0.6-0.4h0.7L16.3,42.8z M16.5,42.3h-0.9c-0.2-0.2-0.4-0.4-0.6-0.6l0.6-2.1h1.6L16.5,42.3z M17.7,37.3l-0.5,2.2
		h-1.6l0.7-2.5h1.4C17.7,37.1,17.7,37.2,17.7,37.3z M16.4,36.9l0.3-0.9c0.5,0.1,1.1,0.3,1.1,0.9H16.4z M17.6,34.4h-5.4l-0.9,2.4
		h-0.5c-0.5-0.8-0.9-1.6-1.2-2.5l19.8,0c-0.7,0.2-1.7,0.8-2.3,2.5h-1c0.1-1.3,0.2-2.4,0.2-2.4h-1.7L24.7,35c-0.4-0.9-2-0.8-3.1,0.5
		c-0.3,0.3-0.6,0.8-0.8,1.3h-1.3l0-0.2C19.7,35.7,19,34.4,17.6,34.4z M31,34.4h3.8c0,0,0,0-0.1,0c-0.8,0.3-1.6,1-2,2.4h-3.9
		c0.8-1.9,2.7-1.2,2.6-0.1l1-1.3C32.2,34.8,31.6,34.5,31,34.4z M36.9,39.5h-2.8c0-0.8,0.1-1.7,0.2-2.5h2.2v0L36.9,39.5z M36.9,39.6
		l0.4,2.7l-2.7,0c-0.1-0.1-0.1-0.2-0.2-0.3c-0.2-0.6-0.4-1.4-0.4-2.4H36.9z M34.4,36.9c0.4-1.7,1.9-0.9,2.2,0L34.4,36.9z M28.8,42.3
		c-0.3-0.6-0.4-1.6-0.4-2.7h4.1c0,1.1,0.1,2,0.3,2.7h-1l-0.1-0.2c0,0.1-0.1,0.1-0.1,0.2H28.8z M31.5,42.4c-0.6,1.1-2.1,1-2.6,0
		c0,0,0,0,0,0H31.5z M28.4,39.5c0-0.8,0.2-1.7,0.5-2.5l3.9,0c0,0.1-0.1,0.2-0.1,0.3c-0.2,0.8-0.2,1.5-0.2,2.2H28.4z M27,42.3h-1.1
		c-0.1-0.2-0.1-0.5-0.1-0.8c0-0.3,0.1-1,0.2-1.9h0.7C26.6,40.5,26.7,41.4,27,42.3z M26.7,39.5H26c0.1-0.8,0.2-1.7,0.2-2.5h1
		C26.9,37.8,26.8,38.7,26.7,39.5z M21.6,39.5c0.1-0.9,0.5-1.8,0.9-2.5h2l-0.2,2.5H21.6z M24.3,39.6L24,42.2c0,0,0,0.1,0,0.1H22
		c-0.4-0.6-0.5-1.4-0.5-2.1c0-0.2,0-0.4,0.1-0.5H24.3z M22.5,36.9c0.1-0.1,0.1-0.2,0.2-0.4c0.6-0.8,1.8-0.7,1.7,0.1l0,0.2H22.5z
		 M19.8,42.3h-1.5l0.5-2.7h1c-0.1,0.5-0.1,1-0.1,1.5C19.7,41.6,19.8,41.9,19.8,42.3z M18.9,39.5l0.5-2.5h1.2
		c-0.3,0.7-0.6,1.5-0.8,2.5H18.9z M27.7,46.6c-3.2,0-6.3-0.8-8.9-2.2l0.5-0.9c-0.7-0.1-1-0.6-1-1.1l1.5,0c0.4,1.8,1.8,2.9,2.8,3
		l1.1-2.4c-0.8,0.2-1.4-0.1-1.7-0.6h2c-0.1,1.3,0.4,2,0.9,2.4c0.6,0.5,0.8,0.8,0.8,0.8l1-2.5c-0.4-0.1-0.7-0.3-0.9-0.7H27
		c0.2,0.7,0.5,1.3,0.9,1.9c1.3,1.8,3.7,1.7,4.9-0.5l-1-1.4h1c0.3,0.9,0.8,1.6,1.1,1.9c0,0.1,0.4,0.5,1,0.8
		C32.7,46.1,30.3,46.6,27.7,46.6z M36.8,44.3c0.2-0.7,0.3-1.3,0.3-1.3c-0.8,0.3-1.8,0.2-2.4-0.5h2.6l0,0.3c0.1,0.4,0.2,0.8,0.3,1.1
		C37.4,44,37.1,44.1,36.8,44.3z M38.1,37h1.2l0.4,2.5h-1.3C38.3,38.7,38.2,37.8,38.1,37z M39.1,42.8c-0.1-0.1-0.2-0.2-0.2-0.4h0.7
		C39.5,42.6,39.3,42.7,39.1,42.8z M39.8,42.3h-0.9c0,0,0,0,0,0c-0.1-0.3-0.2-1.4-0.4-2.6h1.3l0.4,2.2c0,0,0,0.1,0,0.1
		C40,42.1,39.9,42.2,39.8,42.3z M41.1,37h1.2l0.5,2.3c-0.1,0.1-0.1,0.1-0.2,0.2h-1L41.1,37z M41.6,39.6h0.9
		c-0.2,0.3-0.5,0.5-0.7,0.8L41.6,39.6z M42,41.2l-0.1-0.6c0.4-0.4,0.7-0.7,1-1.1l0.7,2.9C42.6,42.4,42.3,42.2,42,41.2z M44.2,37.4
		L44,37h0.4C44.3,37.1,44.2,37.3,44.2,37.4z M44.5,36.9H44l-0.7-2.4h-1.6l0.5,2.4H41l-0.5-2.4h-1.8l-0.2,1.7h0.7l0.1,0.8h-1.2
		c-0.2-1.4-0.3-2.4-0.3-2.4h-1.4v0.3c0,0,0,0.2,0,0.3c0-0.2-0.5-0.5-1-0.6h10.1v0l0.2,0C45.4,35.3,45,36.1,44.5,36.9z M45.9,34.1
		l-0.5,0l0.1,0.2H10.1l0.1-0.2l-0.6,0c-0.3-0.8-0.6-1.7-0.7-2.4l36.1,0h1.7C46.5,32.2,46,33.6,45.9,34.1z M29.3,29.1h7.3l0.4,2.5
		h-7.7C29.3,31.3,29.3,30.2,29.3,29.1z M36.6,28.3l-0.1-0.6c-0.1-0.9,1-1,1.4-0.1l0.1,0.7L36.6,28.3z M38.2,29.1l0.4,2.1H37
		l-0.3-2.1H38.2z M46.9,30.3l-0.2,1l-2,0c0,0,0.1,0.2,0.1,0.4h-5.6l-0.6-2.5h5.4h2.9L46.9,30.3z M47.2,28.3h-3.3l0.2,0.7h-5.4
		l-0.3-1.4c-0.5-1.4-2.2-1.1-2,0.2l0.2,1.3h-7.3c0-0.9-0.1-1.8-0.1-2.2c0-0.1-0.1-0.2-0.1-0.3l14.4,0l0,0h3.8v1.1L47.2,28.3z"/>
	<path fill="#FFFFFF" d="M19.2,20.3c0,0,0.5,0.1,0.7-0.1l0.2-0.5h-1.1L19.2,20.3z"/>
	<path fill="#FFFFFF" d="M17.2,20.6l0.7,0l0.1-0.3l0.4,0l0.2-0.6l-1.4,0C17.2,19.7,17.2,20.6,17.2,20.6z"/>
	<polygon fill="#FFFFFF" points="14.8,20.2 15.6,20.2 15.8,19.7 14.8,19.7 	"/>
	<polygon fill="#FFFFFF" points="16.3,20.2 16.5,20.2 16.7,19.7 16.2,19.7 	"/>
</g>
</svg>
