<?xml version="1.0" encoding="utf-8"?>
<!-- Generator: Adobe Illustrator 19.0.0, SVG Export Plug-In . SVG Version: 6.00 Build 0)  -->
<svg version="1.2" baseProfile="tiny" id="Слой_1"
	 xmlns="http://www.w3.org/2000/svg" xmlns:xlink="http://www.w3.org/1999/xlink" x="0px" y="0px" viewBox="0 0 74.3 74.3"
	 xml:space="preserve">
<path fill="#FFFFFF" d="M74.3,68.6c0,1.5-0.6,2.9-1.7,4c-1.1,1.1-2.5,1.7-4,1.7c-1.6,0-2.9-0.6-4-1.7L49.2,57.3
	C43.9,61,38,62.9,31.4,62.9c-4.3,0-8.3-0.8-12.2-2.5s-7.2-3.9-10-6.7c-2.8-2.8-5-6.2-6.7-10S0,35.7,0,31.4c0-4.3,0.8-8.3,2.5-12.2
	c1.7-3.9,3.9-7.2,6.7-10c2.8-2.8,6.2-5,10-6.7S27.2,0,31.4,0c4.3,0,8.3,0.8,12.2,2.5s7.2,3.9,10,6.7c2.8,2.8,5,6.2,6.7,10
	c1.7,3.9,2.5,8,2.5,12.2c0,6.5-1.8,12.5-5.5,17.8l15.3,15.3C73.7,65.7,74.3,67,74.3,68.6z M51.4,31.4c0-5.5-2-10.2-5.9-14.1
	s-8.6-5.9-14.1-5.9s-10.2,2-14.1,5.9s-5.9,8.6-5.9,14.1s2,10.2,5.9,14.1s8.6,5.9,14.1,5.9s10.2-2,14.1-5.9S51.4,36.9,51.4,31.4z"/>
</svg>
